<ttFont>
    <TTGlyph name=".notdef" xMin="-49" yMin="-192" xMax="535" yMax="832">
      <contour>
        <pt x="155" y="832" on="1"/>
        <pt x="535" y="832" on="1"/>
        <pt x="331" y="-192" on="1"/>
        <pt x="-49" y="-192" on="1"/>
      </contour>
      <contour>
        <pt x="125" y="18" on="0"/>
        <pt x="157" y="-10" on="0"/>
        <pt x="182" y="-10" on="1"/>
        <pt x="208" y="-10" on="0"/>
        <pt x="247" y="20" on="0"/>
        <pt x="253" y="48" on="1"/>
        <pt x="255" y="60" on="0"/>
        <pt x="255" y="64" on="1"/>
        <pt x="255" y="89" on="0"/>
        <pt x="223" y="118" on="0"/>
        <pt x="198" y="118" on="1"/>
        <pt x="168" y="118" on="0"/>
        <pt x="125" y="78" on="0"/>
        <pt x="125" y="43" on="1"/>
      </contour>
      <contour>
        <pt x="287" y="575" on="0"/>
        <pt x="372" y="537" on="0"/>
        <pt x="372" y="509" on="1"/>
        <pt x="372" y="504" on="0"/>
        <pt x="370" y="494" on="1"/>
        <pt x="365" y="466" on="0"/>
        <pt x="334" y="427" on="0"/>
        <pt x="303" y="399" on="1"/>
        <pt x="257" y="358" on="0"/>
        <pt x="195" y="270" on="0"/>
        <pt x="178" y="192" on="1"/>
        <pt x="248" y="192" on="1"/>
        <pt x="257" y="237" on="0"/>
        <pt x="292" y="301" on="0"/>
        <pt x="330" y="342" on="0"/>
        <pt x="360" y="369" on="1"/>
        <pt x="396" y="402" on="0"/>
        <pt x="434" y="451" on="0"/>
        <pt x="441" y="488" on="1"/>
        <pt x="444" y="505" on="0"/>
        <pt x="444" y="519" on="1"/>
        <pt x="444" y="578" on="0"/>
        <pt x="321" y="641" on="0"/>
        <pt x="178" y="645" on="1"/>
        <pt x="167" y="581" on="1"/>
      </contour>
    </TTGlyph>
    <TTGlyph name="A" xMin="-10" yMin="0" xMax="386" yMax="643">
      <contour>
        <pt x="43" y="188" on="0"/>
        <pt x="187" y="521" on="0"/>
        <pt x="273" y="643" on="1"/>
        <pt x="337" y="643" on="1"/>
        <pt x="386" y="490" on="0"/>
        <pt x="386" y="272" on="1"/>
        <pt x="386" y="140" on="0"/>
        <pt x="368" y="0" on="1"/>
        <pt x="294" y="0" on="1"/>
        <pt x="305" y="93" on="0"/>
        <pt x="310" y="192" on="1"/>
        <pt x="128" y="192" on="1"/>
        <pt x="93" y="94" on="0"/>
        <pt x="66" y="0" on="1"/>
        <pt x="-10" y="0" on="1"/>
      </contour>
      <contour>
        <pt x="312" y="256" on="1"/>
        <pt x="312" y="293" on="1"/>
        <pt x="312" y="442" on="0"/>
        <pt x="291" y="550" on="1"/>
        <pt x="217" y="426" on="0"/>
        <pt x="151" y="256" on="1"/>
      </contour>
    </TTGlyph>
    <TTGlyph name="A.hex" xMin="-11" yMin="0" xMax="379" yMax="579">
      <contour>
        <pt x="39" y="170" on="0"/>
        <pt x="177" y="470" on="0"/>
        <pt x="260" y="579" on="1"/>
        <pt x="324" y="579" on="1"/>
        <pt x="379" y="427" on="0"/>
        <pt x="379" y="208" on="1"/>
        <pt x="379" y="107" on="0"/>
        <pt x="367" y="0" on="1"/>
        <pt x="294" y="0" on="1"/>
        <pt x="302" y="88" on="0"/>
        <pt x="303" y="128" on="1"/>
        <pt x="108" y="128" on="1"/>
        <pt x="86" y="69" on="0"/>
        <pt x="66" y="0" on="1"/>
        <pt x="-11" y="0" on="1"/>
      </contour>
      <contour>
        <pt x="306" y="192" on="1"/>
        <pt x="308" y="375" on="0"/>
        <pt x="279" y="489" on="1"/>
        <pt x="200" y="367" on="0"/>
        <pt x="131" y="192" on="1"/>
      </contour>
    </TTGlyph>
    <TTGlyph name="A.short" xMin="-11" yMin="0" xMax="379" yMax="579">
      <component glyphName="A.hex" x="0" y="0" flags="0x400"/>
    </TTGlyph>
    <TTGlyph name="A.sups" xMin="128" yMin="320" xMax="365" yMax="642">
      <contour>
        <pt x="176" y="503" on="0"/>
        <pt x="271" y="642" on="1"/>
        <pt x="338" y="642" on="1"/>
        <pt x="365" y="555" on="0"/>
        <pt x="365" y="449" on="1"/>
        <pt x="365" y="388" on="0"/>
        <pt x="356" y="320" on="1"/>
        <pt x="292" y="320" on="1"/>
        <pt x="298" y="358" on="0"/>
        <pt x="301" y="394" on="1"/>
        <pt x="216" y="394" on="1"/>
        <pt x="198" y="335" on="0"/>
        <pt x="194" y="320" on="1"/>
        <pt x="128" y="320" on="1"/>
      </contour>
      <contour>
        <pt x="304" y="448" on="1"/>
        <pt x="305" y="518" on="0"/>
        <pt x="296" y="576" on="1"/>
        <pt x="265" y="523" on="0"/>
        <pt x="236" y="448" on="1"/>
      </contour>
    </TTGlyph>
    <TTGlyph name="AE" xMin="-63" yMin="0" xMax="531" yMax="640">
      <contour>
        <pt x="426" y="64" on="1"/>
        <pt x="413" y="0" on="1"/>
        <pt x="154" y="0" on="1"/>
        <pt x="192" y="192" on="1"/>
        <pt x="74" y="192" on="1"/>
        <pt x="39" y="94" on="0"/>
        <pt x="12" y="0" on="1"/>
        <pt x="-63" y="0" on="1"/>
        <pt x="-10" y="188" on="0"/>
        <pt x="134" y="519" on="0"/>
        <pt x="217" y="640" on="1"/>
        <pt x="531" y="640" on="1"/>
        <pt x="518" y="576" on="1"/>
        <pt x="341" y="576" on="1"/>
        <pt x="290" y="320" on="1"/>
        <pt x="413" y="320" on="1"/>
        <pt x="400" y="256" on="1"/>
        <pt x="277" y="256" on="1"/>
        <pt x="239" y="64" on="1"/>
      </contour>
      <contour>
        <pt x="205" y="256" on="1"/>
        <pt x="269" y="576" on="1"/>
        <pt x="254" y="576" on="1"/>
        <pt x="173" y="449" on="0"/>
        <pt x="98" y="256" on="1"/>
      </contour>
    </TTGlyph>
    <TTGlyph name="AEacute" xMin="-63" yMin="0" xMax="531" yMax="832">
      <component glyphName="AE" x="0" y="0" flags="0x400"/>
      <component glyphName="acutecomb.case" x="41" y="0" flags="0x400"/>
    </TTGlyph>
    <TTGlyph name="Aacute" xMin="-10" yMin="0" xMax="457" yMax="832">
      <component glyphName="A" x="0" y="0" flags="0x400"/>
      <component glyphName="acutecomb.case" x="0" y="0" flags="0x400"/>
    </TTGlyph>
    <TTGlyph name="Abreve" xMin="-10" yMin="0" xMax="476" yMax="836">
      <component glyphName="A" x="0" y="0" flags="0x400"/>
      <component glyphName="uni0306.case" x="0" y="0" flags="0x400"/>
    </TTGlyph>
    <TTGlyph name="Acircumflex" xMin="-10" yMin="0" xMax="457" yMax="842">
      <component glyphName="A" x="0" y="0" flags="0x400"/>
      <component glyphName="uni0302.case" x="0" y="0" flags="0x400"/>
    </TTGlyph>
    <TTGlyph name="Adieresis" xMin="-10" yMin="0" xMax="474" yMax="816">
      <component glyphName="A" x="0" y="0" flags="0x400"/>
      <component glyphName="uni0308.case" x="0" y="0" flags="0x400"/>
    </TTGlyph>
    <TTGlyph name="Agrave" xMin="-10" yMin="0" xMax="386" yMax="832">
      <component glyphName="A" x="0" y="0" flags="0x400"/>
      <component glyphName="gravecomb.case" x="0" y="0" flags="0x400"/>
    </TTGlyph>
    <TTGlyph name="Alpha" xMin="-10" yMin="0" xMax="386" yMax="643">
      <component glyphName="A" x="0" y="0" flags="0x400"/>
    </TTGlyph>
    <TTGlyph name="Alphatonos" xMin="-10" yMin="0" xMax="386" yMax="704">
      <component glyphName="A" x="0" y="0" flags="0x400"/>
      <component glyphName="tonos" x="-192" y="0" flags="0x400"/>
    </TTGlyph>
    <TTGlyph name="Amacron" xMin="-10" yMin="0" xMax="452" yMax="766">
      <component glyphName="A" x="0" y="0" flags="0x400"/>
      <component glyphName="uni0304.case" x="0" y="0" flags="0x400"/>
    </TTGlyph>
    <TTGlyph name="Aogonek" xMin="-10" yMin="-197" xMax="386" yMax="643">
      <component glyphName="A" x="0" y="0" flags="0x400"/>
      <component glyphName="uni0328" x="26" y="0" flags="0x400"/>
    </TTGlyph>
    <TTGlyph name="Aring" xMin="-11" yMin="0" xMax="428" yMax="825">
      <component glyphName="A.short" x="0" y="0" flags="0x400"/>
      <component glyphName="uni030A.case" x="0" y="0" flags="0x400"/>
    </TTGlyph>
    <TTGlyph name="Aringacute" xMin="-11" yMin="0" xMax="460" yMax="832">
      <component glyphName="A.short" x="0" y="0" flags="0x400"/>
      <component glyphName="uni030A.case" x="-22" y="-97" flags="0x404"/>
      <component glyphName="acutecomb.case" x="3" y="0" flags="0x400"/>
    </TTGlyph>
    <TTGlyph name="Atilde" xMin="-10" yMin="0" xMax="498" yMax="837">
      <component glyphName="A" x="0" y="0" flags="0x400"/>
      <component glyphName="tildecomb.case" x="0" y="0" flags="0x400"/>
    </TTGlyph>
    <TTGlyph name="B" xMin="15" yMin="0" xMax="444" yMax="640">
      <contour>
        <pt x="143" y="640" on="1"/>
        <pt x="273" y="640" on="1"/>
        <pt x="355" y="640" on="0"/>
        <pt x="444" y="574" on="0"/>
        <pt x="444" y="510" on="1"/>
        <pt x="444" y="449" on="0"/>
        <pt x="380" y="352" on="0"/>
        <pt x="321" y="310" on="1"/>
        <pt x="360" y="298" on="0"/>
        <pt x="403" y="241" on="0"/>
        <pt x="403" y="199" on="1"/>
        <pt x="403" y="140" on="0"/>
        <pt x="343" y="50" on="0"/>
        <pt x="237" y="0" on="0"/>
        <pt x="170" y="0" on="1"/>
        <pt x="15" y="0" on="1"/>
      </contour>
      <contour>
        <pt x="167" y="64" on="1"/>
        <pt x="244" y="64" on="0"/>
        <pt x="328" y="135" on="0"/>
        <pt x="328" y="202" on="1"/>
        <pt x="328" y="237" on="0"/>
        <pt x="275" y="272" on="0"/>
        <pt x="214" y="272" on="1"/>
        <pt x="142" y="272" on="1"/>
        <pt x="100" y="64" on="1"/>
      </contour>
      <contour>
        <pt x="260" y="336" on="1"/>
        <pt x="307" y="365" on="0"/>
        <pt x="367" y="457" on="0"/>
        <pt x="367" y="509" on="1"/>
        <pt x="367" y="543" on="0"/>
        <pt x="316" y="576" on="0"/>
        <pt x="257" y="576" on="1"/>
        <pt x="202" y="576" on="1"/>
        <pt x="154" y="336" on="1"/>
      </contour>
    </TTGlyph>
    <TTGlyph name="B.hex" xMin="15" yMin="0" xMax="433" yMax="576">
      <contour>
        <pt x="130" y="576" on="1"/>
        <pt x="260" y="576" on="1"/>
        <pt x="342" y="576" on="0"/>
        <pt x="433" y="515" on="0"/>
        <pt x="433" y="457" on="1"/>
        <pt x="433" y="438" on="0"/>
        <pt x="429" y="422" on="1"/>
        <pt x="415" y="345" on="0"/>
        <pt x="319" y="277" on="1"/>
        <pt x="356" y="265" on="0"/>
        <pt x="398" y="214" on="0"/>
        <pt x="398" y="176" on="1"/>
        <pt x="398" y="163" on="0"/>
        <pt x="395" y="146" on="1"/>
        <pt x="381" y="75" on="0"/>
        <pt x="261" y="0" on="0"/>
        <pt x="170" y="0" on="1"/>
        <pt x="15" y="0" on="1"/>
      </contour>
      <contour>
        <pt x="167" y="64" on="1"/>
        <pt x="240" y="64" on="0"/>
        <pt x="313" y="112" on="0"/>
        <pt x="322" y="160" on="1"/>
        <pt x="324" y="174" on="0"/>
        <pt x="324" y="179" on="1"/>
        <pt x="324" y="209" on="0"/>
        <pt x="270" y="240" on="0"/>
        <pt x="208" y="240" on="1"/>
        <pt x="135" y="240" on="1"/>
        <pt x="100" y="64" on="1"/>
      </contour>
      <contour>
        <pt x="255" y="304" on="1"/>
        <pt x="301" y="330" on="0"/>
        <pt x="356" y="414" on="0"/>
        <pt x="356" y="454" on="1"/>
        <pt x="356" y="484" on="0"/>
        <pt x="305" y="512" on="0"/>
        <pt x="244" y="512" on="1"/>
        <pt x="189" y="512" on="1"/>
        <pt x="148" y="304" on="1"/>
      </contour>
    </TTGlyph>
    <TTGlyph name="B.short" xMin="15" yMin="0" xMax="433" yMax="576">
      <component glyphName="B.hex" x="0" y="0" flags="0x400"/>
    </TTGlyph>
    <TTGlyph name="B.sups" xMin="137" yMin="320" xMax="390" yMax="640">
      <contour>
        <pt x="201" y="640" on="1"/>
        <pt x="294" y="640" on="1"/>
        <pt x="339" y="640" on="0"/>
        <pt x="390" y="602" on="0"/>
        <pt x="390" y="570" on="1"/>
        <pt x="390" y="519" on="0"/>
        <pt x="338" y="478" on="1"/>
        <pt x="372" y="459" on="0"/>
        <pt x="372" y="421" on="1"/>
        <pt x="372" y="416" on="0"/>
        <pt x="370" y="404" on="1"/>
        <pt x="362" y="367" on="0"/>
        <pt x="297" y="320" on="0"/>
        <pt x="246" y="320" on="1"/>
        <pt x="137" y="320" on="1"/>
      </contour>
      <contour>
        <pt x="246" y="372" on="1"/>
        <pt x="297" y="372" on="0"/>
        <pt x="305" y="416" on="1"/>
        <pt x="311" y="446" on="0"/>
        <pt x="266" y="446" on="1"/>
        <pt x="226" y="446" on="1"/>
        <pt x="211" y="372" on="1"/>
      </contour>
      <contour>
        <pt x="286" y="498" on="1"/>
        <pt x="303" y="512" on="0"/>
        <pt x="323" y="547" on="0"/>
        <pt x="323" y="564" on="1"/>
        <pt x="323" y="576" on="0"/>
        <pt x="306" y="588" on="0"/>
        <pt x="285" y="588" on="1"/>
        <pt x="255" y="588" on="1"/>
        <pt x="237" y="498" on="1"/>
      </contour>
    </TTGlyph>
    <TTGlyph name="Beta" xMin="15" yMin="0" xMax="444" yMax="640">
      <component glyphName="B" x="0" y="0" flags="0x400"/>
    </TTGlyph>
    <TTGlyph name="C" xMin="61" yMin="-9" xMax="458" yMax="647">
      <contour>
        <pt x="143" y="-9" on="0"/>
        <pt x="61" y="73" on="0"/>
        <pt x="61" y="166" on="1"/>
        <pt x="61" y="233" on="0"/>
        <pt x="80" y="325" on="1"/>
        <pt x="104" y="446" on="0"/>
        <pt x="173" y="585" on="0"/>
        <pt x="276" y="647" on="0"/>
        <pt x="354" y="647" on="1"/>
        <pt x="406" y="647" on="0"/>
        <pt x="458" y="634" on="1"/>
        <pt x="437" y="575" on="1"/>
        <pt x="400" y="583" on="0"/>
        <pt x="357" y="583" on="1"/>
        <pt x="291" y="583" on="0"/>
        <pt x="218" y="529" on="0"/>
        <pt x="177" y="419" on="0"/>
        <pt x="156" y="313" on="1"/>
        <pt x="133" y="201" on="0"/>
        <pt x="133" y="152" on="1"/>
        <pt x="133" y="100" on="0"/>
        <pt x="181" y="55" on="0"/>
        <pt x="241" y="55" on="1"/>
        <pt x="284" y="55" on="0"/>
        <pt x="335" y="67" on="1"/>
        <pt x="342" y="4" on="1"/>
        <pt x="293" y="-9" on="0"/>
        <pt x="232" y="-9" on="1"/>
      </contour>
    </TTGlyph>
    <TTGlyph name="C.hex" xMin="58" yMin="-9" xMax="445" yMax="583">
      <contour>
        <pt x="141" y="-9" on="0"/>
        <pt x="58" y="69" on="0"/>
        <pt x="58" y="157" on="1"/>
        <pt x="58" y="216" on="0"/>
        <pt x="74" y="293" on="1"/>
        <pt x="95" y="401" on="0"/>
        <pt x="161" y="527" on="0"/>
        <pt x="263" y="583" on="0"/>
        <pt x="341" y="583" on="1"/>
        <pt x="393" y="583" on="0"/>
        <pt x="445" y="570" on="1"/>
        <pt x="424" y="511" on="1"/>
        <pt x="387" y="519" on="0"/>
        <pt x="344" y="519" on="1"/>
        <pt x="278" y="519" on="0"/>
        <pt x="206" y="471" on="0"/>
        <pt x="168" y="375" on="0"/>
        <pt x="149" y="281" on="1"/>
        <pt x="139" y="230" on="0"/>
        <pt x="130" y="169" on="0"/>
        <pt x="130" y="145" on="1"/>
        <pt x="130" y="97" on="0"/>
        <pt x="179" y="55" on="0"/>
        <pt x="241" y="55" on="1"/>
        <pt x="284" y="55" on="0"/>
        <pt x="335" y="67" on="1"/>
        <pt x="342" y="4" on="1"/>
        <pt x="291" y="-9" on="0"/>
        <pt x="232" y="-9" on="1"/>
      </contour>
    </TTGlyph>
    <TTGlyph name="C.short" xMin="58" yMin="-9" xMax="445" yMax="583">
      <component glyphName="C.hex" x="0" y="0" flags="0x400"/>
    </TTGlyph>
    <TTGlyph name="C.sups" xMin="171" yMin="316" xMax="405" yMax="644">
      <contour>
        <pt x="224" y="316" on="0"/>
        <pt x="171" y="374" on="0"/>
        <pt x="171" y="429" on="1"/>
        <pt x="171" y="455" on="0"/>
        <pt x="177" y="486" on="1"/>
        <pt x="193" y="563" on="0"/>
        <pt x="272" y="644" on="0"/>
        <pt x="330" y="644" on="1"/>
        <pt x="367" y="644" on="0"/>
        <pt x="405" y="633" on="1"/>
        <pt x="389" y="582" on="1"/>
        <pt x="361" y="588" on="0"/>
        <pt x="333" y="588" on="1"/>
        <pt x="299" y="588" on="0"/>
        <pt x="256" y="541" on="0"/>
        <pt x="243" y="474" on="1"/>
        <pt x="237" y="446" on="0"/>
        <pt x="237" y="425" on="1"/>
        <pt x="237" y="396" on="0"/>
        <pt x="261" y="372" on="0"/>
        <pt x="283" y="372" on="1"/>
        <pt x="303" y="372" on="0"/>
        <pt x="343" y="380" on="1"/>
        <pt x="347" y="325" on="1"/>
        <pt x="314" y="316" on="0"/>
        <pt x="274" y="316" on="1"/>
      </contour>
    </TTGlyph>
    <TTGlyph name="Cacute" xMin="61" yMin="-9" xMax="489" yMax="832">
      <component glyphName="C" x="0" y="0" flags="0x400"/>
      <component glyphName="acutecomb.case" x="32" y="0" flags="0x400"/>
    </TTGlyph>
    <TTGlyph name="Ccaron" xMin="61" yMin="-9" xMax="518" yMax="838">
      <component glyphName="C" x="0" y="0" flags="0x400"/>
      <component glyphName="uni030C.case" x="32" y="0" flags="0x400"/>
    </TTGlyph>
    <TTGlyph name="Ccedilla" xMin="27" yMin="-192" xMax="458" yMax="647">
      <component glyphName="C" x="0" y="0" flags="0x400"/>
      <component glyphName="uni0327" x="-20" y="0" flags="0x400"/>
    </TTGlyph>
    <TTGlyph name="Ccircumflex" xMin="61" yMin="-9" xMax="489" yMax="842">
      <component glyphName="C" x="0" y="0" flags="0x400"/>
      <component glyphName="uni0302.case" x="32" y="0" flags="0x400"/>
    </TTGlyph>
    <TTGlyph name="Cdotaccent" xMin="61" yMin="-9" xMax="458" yMax="818">
      <component glyphName="C" x="0" y="0" flags="0x400"/>
      <component glyphName="uni0307.case" x="32" y="0" flags="0x400"/>
    </TTGlyph>
    <TTGlyph name="Chi" xMin="1" yMin="0" xMax="476" yMax="640">
      <component glyphName="X" x="0" y="0" flags="0x400"/>
    </TTGlyph>
    <TTGlyph name="D" xMin="15" yMin="0" xMax="428" yMax="640">
      <contour>
        <pt x="348" y="640" on="0"/>
        <pt x="428" y="554" on="0"/>
        <pt x="428" y="461" on="1"/>
        <pt x="428" y="393" on="0"/>
        <pt x="411" y="311" on="1"/>
        <pt x="388" y="196" on="0"/>
        <pt x="320" y="61" on="0"/>
        <pt x="216" y="0" on="0"/>
        <pt x="139" y="0" on="1"/>
        <pt x="15" y="0" on="1"/>
        <pt x="143" y="640" on="1"/>
        <pt x="261" y="640" on="1"/>
      </contour>
      <contour>
        <pt x="139" y="64" on="1"/>
        <pt x="202" y="64" on="0"/>
        <pt x="275" y="117" on="0"/>
        <pt x="316" y="224" on="0"/>
        <pt x="336" y="323" on="1"/>
        <pt x="357" y="426" on="0"/>
        <pt x="357" y="475" on="1"/>
        <pt x="357" y="529" on="0"/>
        <pt x="308" y="576" on="0"/>
        <pt x="247" y="576" on="1"/>
        <pt x="202" y="576" on="1"/>
        <pt x="100" y="64" on="1"/>
      </contour>
    </TTGlyph>
    <TTGlyph name="D.hex" xMin="15" yMin="0" xMax="420" yMax="576">
      <contour>
        <pt x="336" y="576" on="0"/>
        <pt x="420" y="495" on="0"/>
        <pt x="420" y="406" on="1"/>
        <pt x="420" y="353" on="0"/>
        <pt x="405" y="279" on="1"/>
        <pt x="384" y="176" on="0"/>
        <pt x="318" y="54" on="0"/>
        <pt x="216" y="0" on="0"/>
        <pt x="139" y="0" on="1"/>
        <pt x="15" y="0" on="1"/>
        <pt x="130" y="576" on="1"/>
        <pt x="248" y="576" on="1"/>
      </contour>
      <contour>
        <pt x="139" y="64" on="1"/>
        <pt x="202" y="64" on="0"/>
        <pt x="273" y="110" on="0"/>
        <pt x="312" y="204" on="0"/>
        <pt x="329" y="291" on="1"/>
        <pt x="347" y="376" on="0"/>
        <pt x="347" y="418" on="1"/>
        <pt x="347" y="468" on="0"/>
        <pt x="297" y="512" on="0"/>
        <pt x="234" y="512" on="1"/>
        <pt x="189" y="512" on="1"/>
        <pt x="100" y="64" on="1"/>
      </contour>
    </TTGlyph>
    <TTGlyph name="D.short" xMin="15" yMin="0" xMax="420" yMax="576">
      <component glyphName="D.hex" x="0" y="0" flags="0x400"/>
    </TTGlyph>
    <TTGlyph name="D.sups" xMin="134" yMin="320" xMax="394" yMax="640">
      <contour>
        <pt x="198" y="640" on="1"/>
        <pt x="289" y="640" on="1"/>
        <pt x="342" y="640" on="0"/>
        <pt x="394" y="590" on="0"/>
        <pt x="394" y="537" on="1"/>
        <pt x="394" y="507" on="0"/>
        <pt x="387" y="472" on="1"/>
        <pt x="371" y="390" on="0"/>
        <pt x="296" y="320" on="0"/>
        <pt x="232" y="320" on="1"/>
        <pt x="134" y="320" on="1"/>
      </contour>
      <contour>
        <pt x="233" y="374" on="1"/>
        <pt x="271" y="374" on="0"/>
        <pt x="309" y="422" on="0"/>
        <pt x="322" y="484" on="1"/>
        <pt x="330" y="526" on="0"/>
        <pt x="330" y="544" on="1"/>
        <pt x="330" y="567" on="0"/>
        <pt x="308" y="586" on="0"/>
        <pt x="281" y="586" on="1"/>
        <pt x="251" y="586" on="1"/>
        <pt x="209" y="374" on="1"/>
      </contour>
    </TTGlyph>
    <TTGlyph name="Dcaron" xMin="15" yMin="0" xMax="474" yMax="838">
      <component glyphName="D" x="0" y="0" flags="0x400"/>
      <component glyphName="uni030C.case" x="-12" y="0" flags="0x400"/>
    </TTGlyph>
    <TTGlyph name="Dcroat" xMin="11" yMin="0" xMax="428" yMax="640">
      <component glyphName="Eth" x="0" y="0" flags="0x400"/>
    </TTGlyph>
    <TTGlyph name="E" xMin="15" yMin="0" xMax="457" yMax="640">
      <contour>
        <pt x="143" y="640" on="1"/>
        <pt x="457" y="640" on="1"/>
        <pt x="444" y="576" on="1"/>
        <pt x="202" y="576" on="1"/>
        <pt x="151" y="320" on="1"/>
        <pt x="339" y="320" on="1"/>
        <pt x="326" y="256" on="1"/>
        <pt x="138" y="256" on="1"/>
        <pt x="100" y="64" on="1"/>
        <pt x="352" y="64" on="1"/>
        <pt x="339" y="0" on="1"/>
        <pt x="15" y="0" on="1"/>
      </contour>
    </TTGlyph>
    <TTGlyph name="E.hex" xMin="15" yMin="0" xMax="444" yMax="576">
      <contour>
        <pt x="130" y="576" on="1"/>
        <pt x="444" y="576" on="1"/>
        <pt x="431" y="512" on="1"/>
        <pt x="189" y="512" on="1"/>
        <pt x="148" y="304" on="1"/>
        <pt x="336" y="304" on="1"/>
        <pt x="323" y="240" on="1"/>
        <pt x="135" y="240" on="1"/>
        <pt x="100" y="64" on="1"/>
        <pt x="352" y="64" on="1"/>
        <pt x="339" y="0" on="1"/>
        <pt x="15" y="0" on="1"/>
      </contour>
    </TTGlyph>
    <TTGlyph name="E.short" xMin="15" yMin="0" xMax="444" yMax="576">
      <component glyphName="E.hex" x="0" y="0" flags="0x400"/>
    </TTGlyph>
    <TTGlyph name="E.sups" xMin="147" yMin="320" xMax="395" yMax="640">
      <contour>
        <pt x="211" y="640" on="1"/>
        <pt x="395" y="640" on="1"/>
        <pt x="384" y="586" on="1"/>
        <pt x="264" y="586" on="1"/>
        <pt x="249" y="509" on="1"/>
        <pt x="357" y="509" on="1"/>
        <pt x="346" y="455" on="1"/>
        <pt x="238" y="455" on="1"/>
        <pt x="222" y="374" on="1"/>
        <pt x="346" y="374" on="1"/>
        <pt x="335" y="320" on="1"/>
        <pt x="147" y="320" on="1"/>
      </contour>
    </TTGlyph>
    <TTGlyph name="Eacute" xMin="15" yMin="0" xMax="457" yMax="832">
      <component glyphName="E" x="0" y="0" flags="0x400"/>
      <component glyphName="acutecomb.case" x="-4" y="0" flags="0x400"/>
    </TTGlyph>
    <TTGlyph name="Ebreve" xMin="15" yMin="0" xMax="472" yMax="836">
      <component glyphName="E" x="0" y="0" flags="0x400"/>
      <component glyphName="uni0306.case" x="-4" y="0" flags="0x400"/>
    </TTGlyph>
    <TTGlyph name="Ecaron" xMin="15" yMin="0" xMax="482" yMax="838">
      <component glyphName="E" x="0" y="0" flags="0x400"/>
      <component glyphName="uni030C.case" x="-4" y="0" flags="0x400"/>
    </TTGlyph>
    <TTGlyph name="Ecircumflex" xMin="15" yMin="0" xMax="457" yMax="842">
      <component glyphName="E" x="0" y="0" flags="0x400"/>
      <component glyphName="uni0302.case" x="-4" y="0" flags="0x400"/>
    </TTGlyph>
    <TTGlyph name="Edieresis" xMin="15" yMin="0" xMax="470" yMax="816">
      <component glyphName="E" x="0" y="0" flags="0x400"/>
      <component glyphName="uni0308.case" x="-4" y="0" flags="0x400"/>
    </TTGlyph>
    <TTGlyph name="Edotaccent" xMin="15" yMin="0" xMax="457" yMax="818">
      <component glyphName="E" x="0" y="0" flags="0x400"/>
      <component glyphName="uni0307.case" x="-4" y="0" flags="0x400"/>
    </TTGlyph>
    <TTGlyph name="Egrave" xMin="15" yMin="0" xMax="457" yMax="832">
      <component glyphName="E" x="0" y="0" flags="0x400"/>
      <component glyphName="gravecomb.case" x="-4" y="0" flags="0x400"/>
    </TTGlyph>
    <TTGlyph name="Emacron" xMin="15" yMin="0" xMax="457" yMax="766">
      <component glyphName="E" x="0" y="0" flags="0x400"/>
      <component glyphName="uni0304.case" x="-4" y="0" flags="0x400"/>
    </TTGlyph>
    <TTGlyph name="Eng" xMin="15" yMin="-13" xMax="447" yMax="644">
      <contour>
        <pt x="130" y="576" on="1"/>
        <pt x="141" y="640" on="1"/>
        <pt x="207" y="640" on="1"/>
        <pt x="200" y="587" on="1"/>
        <pt x="272" y="644" on="0"/>
        <pt x="338" y="644" on="1"/>
        <pt x="388" y="644" on="0"/>
        <pt x="447" y="590" on="0"/>
        <pt x="447" y="537" on="1"/>
        <pt x="447" y="520" on="0"/>
        <pt x="442" y="492" on="1"/>
        <pt x="378" y="176" on="1"/>
        <pt x="363" y="103" on="0"/>
        <pt x="294" y="15" on="0"/>
        <pt x="224" y="-13" on="1"/>
        <pt x="202" y="49" on="1"/>
        <pt x="251" y="68" on="0"/>
        <pt x="296" y="122" on="0"/>
        <pt x="306" y="174" on="1"/>
        <pt x="370" y="496" on="1"/>
        <pt x="373" y="514" on="0"/>
        <pt x="373" y="528" on="1"/>
        <pt x="373" y="554" on="0"/>
        <pt x="348" y="580" on="0"/>
        <pt x="321" y="580" on="1"/>
        <pt x="266" y="580" on="0"/>
        <pt x="193" y="520" on="1"/>
        <pt x="87" y="0" on="1"/>
        <pt x="15" y="0" on="1"/>
      </contour>
    </TTGlyph>
    <TTGlyph name="Eng.loclNSM" xMin="15" yMin="-197" xMax="471" yMax="640">
      <contour>
        <pt x="327" y="-81" on="0"/>
        <pt x="257" y="-169" on="0"/>
        <pt x="187" y="-197" on="1"/>
        <pt x="165" y="-135" on="1"/>
        <pt x="214" y="-116" on="0"/>
        <pt x="259" y="-62" on="0"/>
        <pt x="269" y="-10" on="1"/>
        <pt x="272" y="6" on="1"/>
        <pt x="199" y="384" on="1"/>
        <pt x="190" y="513" on="1"/>
        <pt x="87" y="0" on="1"/>
        <pt x="15" y="0" on="1"/>
        <pt x="143" y="640" on="1"/>
        <pt x="224" y="640" on="1"/>
        <pt x="298" y="259" on="1"/>
        <pt x="304" y="163" on="1"/>
        <pt x="399" y="640" on="1"/>
        <pt x="471" y="640" on="1"/>
        <pt x="342" y="-8" on="1"/>
      </contour>
    </TTGlyph>
    <TTGlyph name="Eogonek" xMin="15" yMin="-197" xMax="457" yMax="640">
      <component glyphName="E" x="0" y="0" flags="0x400"/>
      <component glyphName="uni0328" x="-3" y="0" flags="0x400"/>
    </TTGlyph>
    <TTGlyph name="Epsilon" xMin="15" yMin="0" xMax="457" yMax="640">
      <component glyphName="E" x="0" y="0" flags="0x400"/>
    </TTGlyph>
    <TTGlyph name="Epsilontonos" xMin="-6" yMin="0" xMax="457" yMax="704">
      <component glyphName="E" x="0" y="0" flags="0x400"/>
      <component glyphName="tonos" x="-256" y="0" flags="0x400"/>
    </TTGlyph>
    <TTGlyph name="Eta" xMin="15" yMin="0" xMax="471" yMax="640">
      <component glyphName="H" x="0" y="0" flags="0x400"/>
    </TTGlyph>
    <TTGlyph name="Etatonos" xMin="-6" yMin="0" xMax="471" yMax="704">
      <component glyphName="H" x="0" y="0" flags="0x400"/>
      <component glyphName="tonos" x="-256" y="0" flags="0x400"/>
    </TTGlyph>
    <TTGlyph name="Eth" xMin="11" yMin="0" xMax="428" yMax="640">
      <contour>
        <pt x="79" y="320" on="1"/>
        <pt x="143" y="640" on="1"/>
        <pt x="261" y="640" on="1"/>
        <pt x="348" y="640" on="0"/>
        <pt x="428" y="554" on="0"/>
        <pt x="428" y="461" on="1"/>
        <pt x="428" y="393" on="0"/>
        <pt x="411" y="311" on="1"/>
        <pt x="388" y="196" on="0"/>
        <pt x="320" y="61" on="0"/>
        <pt x="216" y="0" on="0"/>
        <pt x="139" y="0" on="1"/>
        <pt x="15" y="0" on="1"/>
        <pt x="66" y="256" on="1"/>
        <pt x="11" y="256" on="1"/>
        <pt x="24" y="320" on="1"/>
      </contour>
      <contour>
        <pt x="139" y="64" on="1"/>
        <pt x="202" y="64" on="0"/>
        <pt x="275" y="117" on="0"/>
        <pt x="316" y="224" on="0"/>
        <pt x="336" y="323" on="1"/>
        <pt x="357" y="426" on="0"/>
        <pt x="357" y="475" on="1"/>
        <pt x="357" y="529" on="0"/>
        <pt x="308" y="576" on="0"/>
        <pt x="247" y="576" on="1"/>
        <pt x="202" y="576" on="1"/>
        <pt x="151" y="320" on="1"/>
        <pt x="255" y="320" on="1"/>
        <pt x="242" y="256" on="1"/>
        <pt x="138" y="256" on="1"/>
        <pt x="100" y="64" on="1"/>
      </contour>
    </TTGlyph>
    <TTGlyph name="Euro" xMin="58" yMin="-7" xMax="475" yMax="583">
      <contour>
        <pt x="310" y="57" on="0"/>
        <pt x="360" y="73" on="1"/>
        <pt x="369" y="12" on="1"/>
        <pt x="344" y="3" on="0"/>
        <pt x="289" y="-7" on="0"/>
        <pt x="267" y="-7" on="1"/>
        <pt x="182" y="-7" on="0"/>
        <pt x="107" y="93" on="0"/>
        <pt x="112" y="192" on="1"/>
        <pt x="58" y="192" on="1"/>
        <pt x="70" y="254" on="1"/>
        <pt x="119" y="254" on="1"/>
        <pt x="123" y="280" on="0"/>
        <pt x="126" y="294" on="1"/>
        <pt x="132" y="322" on="1"/>
        <pt x="84" y="322" on="1"/>
        <pt x="96" y="384" on="1"/>
        <pt x="149" y="384" on="1"/>
        <pt x="181" y="482" on="0"/>
        <pt x="292" y="583" on="0"/>
        <pt x="375" y="583" on="1"/>
        <pt x="399" y="583" on="0"/>
        <pt x="452" y="572" on="0"/>
        <pt x="475" y="562" on="1"/>
        <pt x="452" y="505" on="1"/>
        <pt x="412" y="519" on="0"/>
        <pt x="372" y="519" on="1"/>
        <pt x="322" y="519" on="0"/>
        <pt x="249" y="455" on="0"/>
        <pt x="223" y="384" on="1"/>
        <pt x="400" y="384" on="1"/>
        <pt x="372" y="322" on="1"/>
        <pt x="205" y="322" on="1"/>
        <pt x="196" y="282" on="1"/>
        <pt x="192" y="261" on="0"/>
        <pt x="191" y="254" on="1"/>
        <pt x="345" y="254" on="1"/>
        <pt x="319" y="192" on="1"/>
        <pt x="183" y="192" on="1"/>
        <pt x="182" y="182" on="0"/>
        <pt x="182" y="163" on="1"/>
        <pt x="182" y="106" on="0"/>
        <pt x="226" y="57" on="0"/>
        <pt x="270" y="57" on="1"/>
      </contour>
    </TTGlyph>
    <TTGlyph name="F" xMin="15" yMin="0" xMax="467" yMax="640">
      <contour>
        <pt x="143" y="640" on="1"/>
        <pt x="467" y="640" on="1"/>
        <pt x="454" y="576" on="1"/>
        <pt x="202" y="576" on="1"/>
        <pt x="151" y="320" on="1"/>
        <pt x="339" y="320" on="1"/>
        <pt x="326" y="256" on="1"/>
        <pt x="138" y="256" on="1"/>
        <pt x="87" y="0" on="1"/>
        <pt x="15" y="0" on="1"/>
      </contour>
    </TTGlyph>
    <TTGlyph name="F.hex" xMin="15" yMin="0" xMax="454" yMax="576">
      <contour>
        <pt x="130" y="576" on="1"/>
        <pt x="454" y="576" on="1"/>
        <pt x="441" y="512" on="1"/>
        <pt x="189" y="512" on="1"/>
        <pt x="148" y="304" on="1"/>
        <pt x="336" y="304" on="1"/>
        <pt x="323" y="240" on="1"/>
        <pt x="135" y="240" on="1"/>
        <pt x="87" y="0" on="1"/>
        <pt x="15" y="0" on="1"/>
      </contour>
    </TTGlyph>
    <TTGlyph name="F.short" xMin="15" yMin="0" xMax="454" yMax="576">
      <component glyphName="F.hex" x="0" y="0" flags="0x400"/>
    </TTGlyph>
    <TTGlyph name="F.sups" xMin="147" yMin="320" xMax="403" yMax="640">
      <contour>
        <pt x="211" y="640" on="1"/>
        <pt x="403" y="640" on="1"/>
        <pt x="392" y="586" on="1"/>
        <pt x="264" y="586" on="1"/>
        <pt x="247" y="502" on="1"/>
        <pt x="355" y="502" on="1"/>
        <pt x="345" y="448" on="1"/>
        <pt x="237" y="448" on="1"/>
        <pt x="211" y="320" on="1"/>
        <pt x="147" y="320" on="1"/>
      </contour>
    </TTGlyph>
    <TTGlyph name="G" xMin="55" yMin="-9" xMax="464" yMax="647">
      <contour>
        <pt x="137" y="-9" on="0"/>
        <pt x="55" y="73" on="0"/>
        <pt x="55" y="166" on="1"/>
        <pt x="55" y="233" on="0"/>
        <pt x="74" y="325" on="1"/>
        <pt x="98" y="446" on="0"/>
        <pt x="167" y="585" on="0"/>
        <pt x="270" y="647" on="0"/>
        <pt x="348" y="647" on="1"/>
        <pt x="406" y="647" on="0"/>
        <pt x="464" y="631" on="1"/>
        <pt x="443" y="572" on="1"/>
        <pt x="399" y="583" on="0"/>
        <pt x="351" y="583" on="1"/>
        <pt x="285" y="583" on="0"/>
        <pt x="212" y="529" on="0"/>
        <pt x="171" y="419" on="0"/>
        <pt x="150" y="313" on="1"/>
        <pt x="127" y="201" on="0"/>
        <pt x="127" y="152" on="1"/>
        <pt x="127" y="100" on="0"/>
        <pt x="175" y="55" on="0"/>
        <pt x="235" y="55" on="1"/>
        <pt x="256" y="55" on="0"/>
        <pt x="283" y="58" on="1"/>
        <pt x="322" y="256" on="1"/>
        <pt x="232" y="256" on="1"/>
        <pt x="245" y="320" on="1"/>
        <pt x="407" y="320" on="1"/>
        <pt x="345" y="7" on="1"/>
        <pt x="318" y="-1" on="0"/>
        <pt x="253" y="-9" on="0"/>
        <pt x="226" y="-9" on="1"/>
      </contour>
    </TTGlyph>
    <TTGlyph name="G.short" xMin="52" yMin="-9" xMax="452" yMax="583">
      <contour>
        <pt x="135" y="-9" on="0"/>
        <pt x="52" y="69" on="0"/>
        <pt x="52" y="157" on="1"/>
        <pt x="52" y="216" on="0"/>
        <pt x="68" y="293" on="1"/>
        <pt x="90" y="401" on="0"/>
        <pt x="155" y="527" on="0"/>
        <pt x="257" y="583" on="0"/>
        <pt x="335" y="583" on="1"/>
        <pt x="393" y="583" on="0"/>
        <pt x="452" y="567" on="1"/>
        <pt x="430" y="508" on="1"/>
        <pt x="386" y="519" on="0"/>
        <pt x="338" y="519" on="1"/>
        <pt x="273" y="519" on="0"/>
        <pt x="201" y="471" on="0"/>
        <pt x="162" y="374" on="0"/>
        <pt x="143" y="281" on="1"/>
        <pt x="124" y="184" on="0"/>
        <pt x="124" y="146" on="1"/>
        <pt x="124" y="97" on="0"/>
        <pt x="173" y="55" on="0"/>
        <pt x="235" y="55" on="1"/>
        <pt x="256" y="55" on="0"/>
        <pt x="283" y="58" on="1"/>
        <pt x="316" y="224" on="1"/>
        <pt x="226" y="224" on="1"/>
        <pt x="239" y="288" on="1"/>
        <pt x="401" y="288" on="1"/>
        <pt x="345" y="7" on="1"/>
        <pt x="318" y="-1" on="0"/>
        <pt x="253" y="-9" on="0"/>
        <pt x="226" y="-9" on="1"/>
      </contour>
    </TTGlyph>
    <TTGlyph name="G.sups" xMin="146" yMin="315" xMax="401" yMax="647">
      <contour>
        <pt x="197" y="315" on="0"/>
        <pt x="146" y="364" on="0"/>
        <pt x="146" y="418" on="1"/>
        <pt x="146" y="445" on="0"/>
        <pt x="154" y="487" on="1"/>
        <pt x="171" y="571" on="0"/>
        <pt x="247" y="647" on="0"/>
        <pt x="314" y="647" on="1"/>
        <pt x="353" y="647" on="0"/>
        <pt x="401" y="637" on="1"/>
        <pt x="386" y="583" on="1"/>
        <pt x="342" y="591" on="0"/>
        <pt x="316" y="591" on="1"/>
        <pt x="283" y="591" on="0"/>
        <pt x="247" y="567" on="0"/>
        <pt x="227" y="519" on="0"/>
        <pt x="218" y="475" on="1"/>
        <pt x="209" y="425" on="0"/>
        <pt x="209" y="411" on="1"/>
        <pt x="209" y="389" on="0"/>
        <pt x="228" y="371" on="0"/>
        <pt x="251" y="371" on="1"/>
        <pt x="260" y="371" on="0"/>
        <pt x="286" y="373" on="1"/>
        <pt x="313" y="512" on="1"/>
        <pt x="377" y="512" on="1"/>
        <pt x="340" y="325" on="1"/>
        <pt x="292" y="315" on="0"/>
        <pt x="248" y="315" on="1"/>
      </contour>
    </TTGlyph>
    <TTGlyph name="Gamma" xMin="15" yMin="0" xMax="467" yMax="640">
      <component glyphName="uni0413" x="0" y="0" flags="0x400"/>
    </TTGlyph>
    <TTGlyph name="Gbreve" xMin="55" yMin="-9" xMax="496" yMax="836">
      <component glyphName="G" x="0" y="0" flags="0x400"/>
      <component glyphName="uni0306.case" x="20" y="0" flags="0x400"/>
    </TTGlyph>
    <TTGlyph name="Gcaron" xMin="55" yMin="-9" xMax="506" yMax="838">
      <component glyphName="G" x="0" y="0" flags="0x400"/>
      <component glyphName="uni030C.case" x="20" y="0" flags="0x400"/>
    </TTGlyph>
    <TTGlyph name="Gcircumflex" xMin="55" yMin="-9" xMax="477" yMax="842">
      <component glyphName="G" x="0" y="0" flags="0x400"/>
      <component glyphName="uni0302.case" x="20" y="0" flags="0x400"/>
    </TTGlyph>
    <TTGlyph name="Gdotaccent" xMin="55" yMin="-9" xMax="464" yMax="818">
      <component glyphName="G" x="0" y="0" flags="0x400"/>
      <component glyphName="uni0307.case" x="20" y="0" flags="0x400"/>
    </TTGlyph>
    <TTGlyph name="H" xMin="15" yMin="0" xMax="471" yMax="640">
      <contour>
        <pt x="143" y="640" on="1"/>
        <pt x="215" y="640" on="1"/>
        <pt x="151" y="320" on="1"/>
        <pt x="335" y="320" on="1"/>
        <pt x="399" y="640" on="1"/>
        <pt x="471" y="640" on="1"/>
        <pt x="343" y="0" on="1"/>
        <pt x="271" y="0" on="1"/>
        <pt x="322" y="256" on="1"/>
        <pt x="138" y="256" on="1"/>
        <pt x="87" y="0" on="1"/>
        <pt x="15" y="0" on="1"/>
      </contour>
    </TTGlyph>
    <TTGlyph name="H.sups" xMin="137" yMin="320" xMax="413" yMax="640">
      <contour>
        <pt x="201" y="640" on="1"/>
        <pt x="265" y="640" on="1"/>
        <pt x="239" y="508" on="1"/>
        <pt x="323" y="508" on="1"/>
        <pt x="349" y="640" on="1"/>
        <pt x="413" y="640" on="1"/>
        <pt x="349" y="320" on="1"/>
        <pt x="285" y="320" on="1"/>
        <pt x="311" y="452" on="1"/>
        <pt x="227" y="452" on="1"/>
        <pt x="201" y="320" on="1"/>
        <pt x="137" y="320" on="1"/>
      </contour>
    </TTGlyph>
    <TTGlyph name="Hbar" xMin="15" yMin="0" xMax="493" yMax="640">
      <contour>
        <pt x="115" y="500" on="1"/>
        <pt x="143" y="640" on="1"/>
        <pt x="215" y="640" on="1"/>
        <pt x="187" y="500" on="1"/>
        <pt x="371" y="500" on="1"/>
        <pt x="399" y="640" on="1"/>
        <pt x="471" y="640" on="1"/>
        <pt x="443" y="500" on="1"/>
        <pt x="493" y="500" on="1"/>
        <pt x="480" y="440" on="1"/>
        <pt x="431" y="440" on="1"/>
        <pt x="343" y="0" on="1"/>
        <pt x="271" y="0" on="1"/>
        <pt x="322" y="256" on="1"/>
        <pt x="138" y="256" on="1"/>
        <pt x="87" y="0" on="1"/>
        <pt x="15" y="0" on="1"/>
        <pt x="103" y="440" on="1"/>
        <pt x="53" y="440" on="1"/>
        <pt x="66" y="500" on="1"/>
      </contour>
      <contour>
        <pt x="335" y="320" on="1"/>
        <pt x="359" y="440" on="1"/>
        <pt x="175" y="440" on="1"/>
        <pt x="151" y="320" on="1"/>
      </contour>
    </TTGlyph>
    <TTGlyph name="Hcircumflex" xMin="15" yMin="0" xMax="471" yMax="842">
      <component glyphName="H" x="0" y="0" flags="0x400"/>
      <component glyphName="uni0302.case" x="0" y="0" flags="0x400"/>
    </TTGlyph>
    <TTGlyph name="I" xMin="27" yMin="0" xMax="455" yMax="640">
      <contour>
        <pt x="38" y="54" on="1"/>
        <pt x="156" y="64" on="1"/>
        <pt x="258" y="576" on="1"/>
        <pt x="148" y="586" on="1"/>
        <pt x="159" y="640" on="1"/>
        <pt x="455" y="640" on="1"/>
        <pt x="444" y="586" on="1"/>
        <pt x="330" y="576" on="1"/>
        <pt x="228" y="64" on="1"/>
        <pt x="342" y="54" on="1"/>
        <pt x="331" y="0" on="1"/>
        <pt x="27" y="0" on="1"/>
      </contour>
    </TTGlyph>
    <TTGlyph name="I.cv02" xMin="143" yMin="0" xMax="343" yMax="640">
      <contour>
        <pt x="271" y="640" on="1"/>
        <pt x="343" y="640" on="1"/>
        <pt x="215" y="0" on="1"/>
        <pt x="143" y="0" on="1"/>
      </contour>
    </TTGlyph>
    <TTGlyph name="I.short" xMin="27" yMin="0" xMax="442" yMax="576">
      <contour>
        <pt x="38" y="54" on="1"/>
        <pt x="156" y="64" on="1"/>
        <pt x="245" y="512" on="1"/>
        <pt x="135" y="522" on="1"/>
        <pt x="146" y="576" on="1"/>
        <pt x="442" y="576" on="1"/>
        <pt x="431" y="522" on="1"/>
        <pt x="317" y="512" on="1"/>
        <pt x="228" y="64" on="1"/>
        <pt x="342" y="54" on="1"/>
        <pt x="331" y="0" on="1"/>
        <pt x="27" y="0" on="1"/>
      </contour>
    </TTGlyph>
    <TTGlyph name="I.short.cv02" xMin="143" yMin="0" xMax="330" yMax="576">
      <contour>
        <pt x="258" y="576" on="1"/>
        <pt x="330" y="576" on="1"/>
        <pt x="215" y="0" on="1"/>
        <pt x="143" y="0" on="1"/>
      </contour>
    </TTGlyph>
    <TTGlyph name="I.sups" xMin="147" yMin="320" xMax="403" yMax="640">
      <contour>
        <pt x="339" y="320" on="1"/>
        <pt x="147" y="320" on="1"/>
        <pt x="157" y="368" on="1"/>
        <pt x="222" y="376" on="1"/>
        <pt x="264" y="584" on="1"/>
        <pt x="202" y="592" on="1"/>
        <pt x="211" y="640" on="1"/>
        <pt x="403" y="640" on="1"/>
        <pt x="394" y="592" on="1"/>
        <pt x="328" y="584" on="1"/>
        <pt x="286" y="376" on="1"/>
        <pt x="349" y="368" on="1"/>
      </contour>
    </TTGlyph>
    <TTGlyph name="IJ" xMin="-39" yMin="0" xMax="477" yMax="640">
      <contour>
        <pt x="-28" y="54" on="1"/>
        <pt x="34" y="64" on="1"/>
        <pt x="136" y="576" on="1"/>
        <pt x="82" y="586" on="1"/>
        <pt x="93" y="640" on="1"/>
        <pt x="277" y="640" on="1"/>
        <pt x="266" y="586" on="1"/>
        <pt x="208" y="576" on="1"/>
        <pt x="106" y="64" on="1"/>
        <pt x="195" y="64" on="1"/>
        <pt x="247" y="64" on="0"/>
        <pt x="302" y="124" on="0"/>
        <pt x="313" y="180" on="1"/>
        <pt x="392" y="576" on="1"/>
        <pt x="308" y="576" on="1"/>
        <pt x="321" y="640" on="1"/>
        <pt x="477" y="640" on="1"/>
        <pt x="385" y="178" on="1"/>
        <pt x="349" y="0" on="0"/>
        <pt x="188" y="0" on="1"/>
        <pt x="-39" y="0" on="1"/>
      </contour>
    </TTGlyph>
    <TTGlyph name="Iacute" xMin="27" yMin="0" xMax="457" yMax="832">
      <component glyphName="I" x="0" y="0" flags="0x400"/>
      <component glyphName="acutecomb.case" x="0" y="0" flags="0x400"/>
    </TTGlyph>
    <TTGlyph name="Iacute.cv02" xMin="143" yMin="0" xMax="457" yMax="832">
      <component glyphName="I.cv02" x="0" y="0" flags="0x400"/>
      <component glyphName="acutecomb.case" x="0" y="0" flags="0x400"/>
    </TTGlyph>
    <TTGlyph name="Ibreve" xMin="27" yMin="0" xMax="476" yMax="836">
      <component glyphName="I" x="0" y="0" flags="0x400"/>
      <component glyphName="uni0306.case" x="0" y="0" flags="0x400"/>
    </TTGlyph>
    <TTGlyph name="Ibreve.cv02" xMin="143" yMin="0" xMax="476" yMax="836">
      <component glyphName="I.cv02" x="0" y="0" flags="0x400"/>
      <component glyphName="uni0306.case" x="0" y="0" flags="0x400"/>
    </TTGlyph>
    <TTGlyph name="Icapitalsmall.cv02" xMin="73" yMin="0" xMax="408" yMax="640">
      <contour>
        <pt x="85" y="60" on="1"/>
        <pt x="156" y="64" on="1"/>
        <pt x="258" y="576" on="1"/>
        <pt x="193" y="580" on="1"/>
        <pt x="205" y="640" on="1"/>
        <pt x="408" y="640" on="1"/>
        <pt x="396" y="580" on="1"/>
        <pt x="330" y="576" on="1"/>
        <pt x="228" y="64" on="1"/>
        <pt x="297" y="60" on="1"/>
        <pt x="285" y="0" on="1"/>
        <pt x="73" y="0" on="1"/>
      </contour>
    </TTGlyph>
    <TTGlyph name="Icircumflex" xMin="27" yMin="0" xMax="457" yMax="842">
      <component glyphName="I" x="0" y="0" flags="0x400"/>
      <component glyphName="uni0302.case" x="0" y="0" flags="0x400"/>
    </TTGlyph>
    <TTGlyph name="Icircumflex.cv02" xMin="143" yMin="0" xMax="457" yMax="842">
      <component glyphName="I.cv02" x="0" y="0" flags="0x400"/>
      <component glyphName="uni0302.case" x="0" y="0" flags="0x400"/>
    </TTGlyph>
    <TTGlyph name="Idieresis" xMin="27" yMin="0" xMax="474" yMax="816">
      <component glyphName="I" x="0" y="0" flags="0x400"/>
      <component glyphName="uni0308.case" x="0" y="0" flags="0x400"/>
    </TTGlyph>
    <TTGlyph name="Idieresis.cv02" xMin="143" yMin="0" xMax="474" yMax="816">
      <component glyphName="I.cv02" x="0" y="0" flags="0x400"/>
      <component glyphName="uni0308.case" x="0" y="0" flags="0x400"/>
    </TTGlyph>
    <TTGlyph name="Idotaccent" xMin="27" yMin="0" xMax="455" yMax="818">
      <component glyphName="I" x="0" y="0" flags="0x400"/>
      <component glyphName="uni0307.case" x="0" y="0" flags="0x400"/>
    </TTGlyph>
    <TTGlyph name="Idotaccent.cv02" xMin="143" yMin="0" xMax="391" yMax="818">
      <component glyphName="I.cv02" x="0" y="0" flags="0x400"/>
      <component glyphName="uni0307.case" x="0" y="0" flags="0x400"/>
    </TTGlyph>
    <TTGlyph name="Igrave" xMin="27" yMin="0" xMax="455" yMax="832">
      <component glyphName="I" x="0" y="0" flags="0x400"/>
      <component glyphName="gravecomb.case" x="0" y="0" flags="0x400"/>
    </TTGlyph>
    <TTGlyph name="Igrave.cv02" xMin="143" yMin="0" xMax="350" yMax="832">
      <component glyphName="I.cv02" x="0" y="0" flags="0x400"/>
      <component glyphName="gravecomb.case" x="0" y="0" flags="0x400"/>
    </TTGlyph>
    <TTGlyph name="Imacron" xMin="27" yMin="0" xMax="455" yMax="766">
      <component glyphName="I" x="0" y="0" flags="0x400"/>
      <component glyphName="uni0304.case" x="0" y="0" flags="0x400"/>
    </TTGlyph>
    <TTGlyph name="Imacron.cv02" xMin="143" yMin="0" xMax="452" yMax="766">
      <component glyphName="I.cv02" x="0" y="0" flags="0x400"/>
      <component glyphName="uni0304.case" x="0" y="0" flags="0x400"/>
    </TTGlyph>
    <TTGlyph name="Iogonek" xMin="27" yMin="-197" xMax="455" yMax="640">
      <component glyphName="I" x="0" y="0" flags="0x400"/>
      <component glyphName="uni0328" x="-11" y="0" flags="0x400"/>
    </TTGlyph>
    <TTGlyph name="Iogonek.cv02" xMin="56" yMin="-197" xMax="343" yMax="640">
      <component glyphName="I.cv02" x="0" y="0" flags="0x400"/>
      <component glyphName="uni0328" x="-127" y="0" flags="0x400"/>
    </TTGlyph>
    <TTGlyph name="Iota" xMin="27" yMin="0" xMax="455" yMax="640">
      <component glyphName="I" x="0" y="0" flags="0x400"/>
    </TTGlyph>
    <TTGlyph name="Iota.cv02" xMin="143" yMin="0" xMax="343" yMax="640">
      <component glyphName="I.cv02" x="0" y="0" flags="0x400"/>
    </TTGlyph>
    <TTGlyph name="Iotadieresis" xMin="27" yMin="0" xMax="474" yMax="816">
      <component glyphName="I" x="0" y="0" flags="0x400"/>
      <component glyphName="uni0308.case" x="0" y="0" flags="0x400"/>
    </TTGlyph>
    <TTGlyph name="Iotadieresis.cv02" xMin="143" yMin="0" xMax="474" yMax="816">
      <component glyphName="Iota.cv02" x="0" y="0" flags="0x400"/>
      <component glyphName="uni0308.case" x="0" y="0" flags="0x400"/>
    </TTGlyph>
    <TTGlyph name="Iotatonos" xMin="-6" yMin="0" xMax="455" yMax="704">
      <component glyphName="I" x="0" y="0" flags="0x400"/>
      <component glyphName="tonos" x="-256" y="0" flags="0x400"/>
    </TTGlyph>
    <TTGlyph name="Iotatonos.cv02" xMin="122" yMin="0" xMax="343" yMax="704">
      <component glyphName="tonos" x="-128" y="0" flags="0x400"/>
      <component glyphName="Iota.cv02" x="0" y="0" flags="0x400"/>
    </TTGlyph>
    <TTGlyph name="Itilde" xMin="27" yMin="0" xMax="498" yMax="837">
      <component glyphName="I" x="0" y="0" flags="0x400"/>
      <component glyphName="tildecomb.case" x="0" y="0" flags="0x400"/>
    </TTGlyph>
    <TTGlyph name="Itilde.cv02" xMin="143" yMin="0" xMax="498" yMax="837">
      <component glyphName="I.cv02" x="0" y="0" flags="0x400"/>
      <component glyphName="tildecomb.case" x="0" y="0" flags="0x400"/>
    </TTGlyph>
    <TTGlyph name="J" xMin="42" yMin="-8" xMax="471" yMax="640">
      <contour>
        <pt x="113" y="94" on="0"/>
        <pt x="146" y="56" on="0"/>
        <pt x="185" y="56" on="1"/>
        <pt x="239" y="56" on="0"/>
        <pt x="295" y="116" on="0"/>
        <pt x="306" y="172" on="1"/>
        <pt x="386" y="576" on="1"/>
        <pt x="232" y="576" on="1"/>
        <pt x="245" y="640" on="1"/>
        <pt x="471" y="640" on="1"/>
        <pt x="377" y="170" on="1"/>
        <pt x="358" y="77" on="0"/>
        <pt x="257" y="-8" on="0"/>
        <pt x="183" y="-8" on="1"/>
        <pt x="112" y="-8" on="0"/>
        <pt x="44" y="62" on="0"/>
        <pt x="42" y="123" on="1"/>
        <pt x="111" y="134" on="1"/>
      </contour>
    </TTGlyph>
    <TTGlyph name="J.cv03" xMin="42" yMin="-8" xMax="471" yMax="640">
      <contour>
        <pt x="112" y="-8" on="0"/>
        <pt x="44" y="62" on="0"/>
        <pt x="42" y="123" on="1"/>
        <pt x="111" y="134" on="1"/>
        <pt x="113" y="94" on="0"/>
        <pt x="146" y="56" on="0"/>
        <pt x="185" y="56" on="1"/>
        <pt x="239" y="56" on="0"/>
        <pt x="295" y="116" on="0"/>
        <pt x="306" y="172" on="1"/>
        <pt x="399" y="640" on="1"/>
        <pt x="471" y="640" on="1"/>
        <pt x="377" y="170" on="1"/>
        <pt x="358" y="77" on="0"/>
        <pt x="257" y="-8" on="0"/>
        <pt x="183" y="-8" on="1"/>
      </contour>
    </TTGlyph>
    <TTGlyph name="J.sups" xMin="145" yMin="316" xMax="403" yMax="640">
      <contour>
        <pt x="184" y="316" on="0"/>
        <pt x="145" y="323" on="1"/>
        <pt x="158" y="376" on="1"/>
        <pt x="187" y="372" on="0"/>
        <pt x="215" y="372" on="1"/>
        <pt x="251" y="372" on="0"/>
        <pt x="291" y="401" on="0"/>
        <pt x="298" y="434" on="1"/>
        <pt x="328" y="584" on="1"/>
        <pt x="210" y="584" on="1"/>
        <pt x="221" y="640" on="1"/>
        <pt x="403" y="640" on="1"/>
        <pt x="360" y="425" on="1"/>
        <pt x="339" y="316" on="0"/>
        <pt x="220" y="316" on="1"/>
      </contour>
    </TTGlyph>
    <TTGlyph name="Jcircumflex" xMin="42" yMin="-8" xMax="503" yMax="842">
      <component glyphName="J" x="0" y="0" flags="0x400"/>
      <component glyphName="uni0302.case" x="46" y="0" flags="0x400"/>
    </TTGlyph>
    <TTGlyph name="Jcircumflex.cv03" xMin="42" yMin="-8" xMax="585" yMax="842">
      <component glyphName="J.cv03" x="0" y="0" flags="0x400"/>
      <component glyphName="uni0302.case" x="128" y="0" flags="0x400"/>
    </TTGlyph>
    <TTGlyph name="K" xMin="15" yMin="0" xMax="484" yMax="640">
      <contour>
        <pt x="143" y="640" on="1"/>
        <pt x="215" y="640" on="1"/>
        <pt x="152" y="325" on="1"/>
        <pt x="197" y="325" on="1"/>
        <pt x="274" y="401" on="0"/>
        <pt x="370" y="537" on="0"/>
        <pt x="407" y="640" on="1"/>
        <pt x="484" y="640" on="1"/>
        <pt x="445" y="534" on="0"/>
        <pt x="351" y="390" on="0"/>
        <pt x="276" y="319" on="1"/>
        <pt x="375" y="297" on="0"/>
        <pt x="375" y="187" on="1"/>
        <pt x="375" y="169" on="0"/>
        <pt x="372" y="148" on="1"/>
        <pt x="354" y="0" on="1"/>
        <pt x="279" y="0" on="1"/>
        <pt x="301" y="149" on="1"/>
        <pt x="305" y="179" on="0"/>
        <pt x="305" y="189" on="1"/>
        <pt x="305" y="229" on="0"/>
        <pt x="261" y="261" on="0"/>
        <pt x="209" y="261" on="1"/>
        <pt x="139" y="261" on="1"/>
        <pt x="87" y="0" on="1"/>
        <pt x="15" y="0" on="1"/>
      </contour>
    </TTGlyph>
    <TTGlyph name="K.short" xMin="15" yMin="0" xMax="472" yMax="576">
      <contour>
        <pt x="130" y="575" on="1"/>
        <pt x="202" y="575" on="1"/>
        <pt x="148" y="303" on="1"/>
        <pt x="193" y="303" on="1"/>
        <pt x="268" y="368" on="0"/>
        <pt x="360" y="487" on="0"/>
        <pt x="394" y="576" on="1"/>
        <pt x="472" y="576" on="1"/>
        <pt x="436" y="483" on="0"/>
        <pt x="347" y="358" on="0"/>
        <pt x="275" y="297" on="1"/>
        <pt x="375" y="276" on="0"/>
        <pt x="375" y="178" on="1"/>
        <pt x="375" y="168" on="0"/>
        <pt x="373" y="148" on="1"/>
        <pt x="354" y="0" on="1"/>
        <pt x="279" y="0" on="1"/>
        <pt x="301" y="149" on="1"/>
        <pt x="303" y="169" on="0"/>
        <pt x="303" y="176" on="1"/>
        <pt x="303" y="212" on="0"/>
        <pt x="260" y="239" on="0"/>
        <pt x="205" y="239" on="1"/>
        <pt x="135" y="239" on="1"/>
        <pt x="87" y="0" on="1"/>
        <pt x="15" y="0" on="1"/>
      </contour>
    </TTGlyph>
    <TTGlyph name="K.sups" xMin="141" yMin="320" xMax="422" yMax="640">
      <contour>
        <pt x="205" y="640" on="1"/>
        <pt x="269" y="640" on="1"/>
        <pt x="242" y="502" on="1"/>
        <pt x="273" y="502" on="1"/>
        <pt x="301" y="532" on="0"/>
        <pt x="339" y="595" on="0"/>
        <pt x="355" y="640" on="1"/>
        <pt x="422" y="640" on="1"/>
        <pt x="404" y="592" on="0"/>
        <pt x="363" y="525" on="0"/>
        <pt x="333" y="493" on="1"/>
        <pt x="371" y="472" on="0"/>
        <pt x="365" y="407" on="1"/>
        <pt x="357" y="320" on="1"/>
        <pt x="291" y="320" on="1"/>
        <pt x="303" y="414" on="1"/>
        <pt x="304" y="419" on="0"/>
        <pt x="304" y="426" on="1"/>
        <pt x="304" y="439" on="0"/>
        <pt x="290" y="448" on="0"/>
        <pt x="272" y="448" on="1"/>
        <pt x="231" y="448" on="1"/>
        <pt x="205" y="320" on="1"/>
        <pt x="141" y="320" on="1"/>
      </contour>
    </TTGlyph>
    <TTGlyph name="Kappa" xMin="15" yMin="0" xMax="484" yMax="640">
      <component glyphName="K" x="0" y="0" flags="0x400"/>
    </TTGlyph>
    <TTGlyph name="L" xMin="15" yMin="0" xMax="352" yMax="640">
      <contour>
        <pt x="143" y="640" on="1"/>
        <pt x="215" y="640" on="1"/>
        <pt x="100" y="64" on="1"/>
        <pt x="352" y="64" on="1"/>
        <pt x="339" y="0" on="1"/>
        <pt x="15" y="0" on="1"/>
      </contour>
    </TTGlyph>
    <TTGlyph name="L.sups" xMin="147" yMin="320" xMax="350" yMax="640">
      <contour>
        <pt x="339" y="320" on="1"/>
        <pt x="147" y="320" on="1"/>
        <pt x="211" y="640" on="1"/>
        <pt x="275" y="640" on="1"/>
        <pt x="222" y="376" on="1"/>
        <pt x="350" y="376" on="1"/>
      </contour>
    </TTGlyph>
    <TTGlyph name="Lacute" xMin="15" yMin="0" xMax="352" yMax="832">
      <component glyphName="L" x="0" y="0" flags="0x400"/>
      <component glyphName="acutecomb.case" x="-128" y="0" flags="0x400"/>
    </TTGlyph>
    <TTGlyph name="Lambda" xMin="-10" yMin="0" xMax="384" yMax="646">
      <contour>
        <pt x="42" y="188" on="0"/>
        <pt x="189" y="523" on="0"/>
        <pt x="275" y="646" on="1"/>
        <pt x="338" y="640" on="1"/>
        <pt x="384" y="489" on="0"/>
        <pt x="384" y="273" on="1"/>
        <pt x="384" y="144" on="0"/>
        <pt x="367" y="0" on="1"/>
        <pt x="294" y="0" on="1"/>
        <pt x="312" y="161" on="0"/>
        <pt x="312" y="297" on="1"/>
        <pt x="312" y="444" on="0"/>
        <pt x="291" y="550" on="1"/>
        <pt x="229" y="446" on="0"/>
        <pt x="113" y="165" on="0"/>
        <pt x="66" y="0" on="1"/>
        <pt x="-10" y="0" on="1"/>
      </contour>
    </TTGlyph>
    <TTGlyph name="Lcaron" xMin="15" yMin="0" xMax="456" yMax="640">
      <component glyphName="L" x="0" y="0" flags="0x400"/>
      <component glyphName="uni030C.alt" x="-64" y="0" flags="0x400"/>
    </TTGlyph>
    <TTGlyph name="Ldot" xMin="15" yMin="0" xMax="403" yMax="640">
      <component glyphName="L" x="0" y="0" flags="0x400"/>
      <component glyphName="period" x="180" y="256" flags="0x404"/>
    </TTGlyph>
    <TTGlyph name="Lslash" xMin="-44" yMin="0" xMax="352" yMax="640">
      <component glyphName="L" x="0" y="0" flags="0x400"/>
      <component glyphName="_part.slash.comp" x="-112" y="0" flags="0x400"/>
    </TTGlyph>
    <TTGlyph name="M" xMin="-31" yMin="0" xMax="491" yMax="640">
      <contour>
        <pt x="51" y="378" on="0"/>
        <pt x="122" y="640" on="1"/>
        <pt x="209" y="640" on="1"/>
        <pt x="232" y="271" on="1"/>
        <pt x="234" y="271" on="1"/>
        <pt x="405" y="640" on="1"/>
        <pt x="491" y="640" on="1"/>
        <pt x="457" y="371" on="0"/>
        <pt x="389" y="0" on="1"/>
        <pt x="317" y="0" on="1"/>
        <pt x="364" y="227" on="0"/>
        <pt x="407" y="510" on="1"/>
        <pt x="406" y="510" on="1"/>
        <pt x="238" y="150" on="1"/>
        <pt x="182" y="150" on="1"/>
        <pt x="157" y="507" on="1"/>
        <pt x="155" y="507" on="1"/>
        <pt x="83" y="211" on="0"/>
        <pt x="42" y="0" on="1"/>
        <pt x="-31" y="0" on="1"/>
      </contour>
    </TTGlyph>
    <TTGlyph name="M.sups" xMin="124" yMin="320" xMax="412" yMax="640">
      <contour>
        <pt x="167" y="519" on="0"/>
        <pt x="201" y="640" on="1"/>
        <pt x="267" y="640" on="1"/>
        <pt x="276" y="489" on="1"/>
        <pt x="347" y="640" on="1"/>
        <pt x="412" y="640" on="1"/>
        <pt x="396" y="503" on="0"/>
        <pt x="364" y="320" on="1"/>
        <pt x="302" y="320" on="1"/>
        <pt x="311" y="363" on="0"/>
        <pt x="331" y="480" on="1"/>
        <pt x="335" y="507" on="1"/>
        <pt x="279" y="391" on="1"/>
        <pt x="237" y="391" on="1"/>
        <pt x="227" y="510" on="1"/>
        <pt x="204" y="412" on="0"/>
        <pt x="186" y="320" on="1"/>
        <pt x="124" y="320" on="1"/>
      </contour>
    </TTGlyph>
    <TTGlyph name="Mu" xMin="-31" yMin="0" xMax="491" yMax="640">
      <component glyphName="M" x="0" y="0" flags="0x400"/>
    </TTGlyph>
    <TTGlyph name="N" xMin="15" yMin="0" xMax="471" yMax="640">
      <contour>
        <pt x="224" y="640" on="1"/>
        <pt x="291" y="256" on="1"/>
        <pt x="297" y="131" on="1"/>
        <pt x="399" y="640" on="1"/>
        <pt x="471" y="640" on="1"/>
        <pt x="343" y="0" on="1"/>
        <pt x="263" y="0" on="1"/>
        <pt x="195" y="384" on="1"/>
        <pt x="189" y="507" on="1"/>
        <pt x="87" y="0" on="1"/>
        <pt x="15" y="0" on="1"/>
        <pt x="143" y="640" on="1"/>
      </contour>
    </TTGlyph>
    <TTGlyph name="N.short" xMin="15" yMin="0" xMax="458" yMax="576">
      <contour>
        <pt x="212" y="576" on="1"/>
        <pt x="287" y="228" on="1"/>
        <pt x="296" y="128" on="1"/>
        <pt x="386" y="576" on="1"/>
        <pt x="458" y="576" on="1"/>
        <pt x="343" y="0" on="1"/>
        <pt x="261" y="0" on="1"/>
        <pt x="187" y="348" on="1"/>
        <pt x="177" y="448" on="1"/>
        <pt x="87" y="0" on="1"/>
        <pt x="15" y="0" on="1"/>
        <pt x="130" y="576" on="1"/>
      </contour>
    </TTGlyph>
    <TTGlyph name="N.sups" xMin="129" yMin="320" xMax="421" yMax="640">
      <contour>
        <pt x="193" y="640" on="1"/>
        <pt x="282" y="640" on="1"/>
        <pt x="315" y="418" on="1"/>
        <pt x="359" y="640" on="1"/>
        <pt x="421" y="640" on="1"/>
        <pt x="357" y="320" on="1"/>
        <pt x="268" y="320" on="1"/>
        <pt x="235" y="542" on="1"/>
        <pt x="191" y="320" on="1"/>
        <pt x="129" y="320" on="1"/>
      </contour>
    </TTGlyph>
    <TTGlyph name="Nacute" xMin="15" yMin="0" xMax="471" yMax="832">
      <component glyphName="N" x="0" y="0" flags="0x400"/>
      <component glyphName="acutecomb.case" x="0" y="0" flags="0x400"/>
    </TTGlyph>
    <TTGlyph name="Ncaron" xMin="15" yMin="0" xMax="486" yMax="838">
      <component glyphName="N" x="0" y="0" flags="0x400"/>
      <component glyphName="uni030C.case" x="0" y="0" flags="0x400"/>
    </TTGlyph>
    <TTGlyph name="Ntilde" xMin="15" yMin="0" xMax="498" yMax="837">
      <component glyphName="N" x="0" y="0" flags="0x400"/>
      <component glyphName="tildecomb.case" x="0" y="0" flags="0x400"/>
    </TTGlyph>
    <TTGlyph name="Nu" xMin="15" yMin="0" xMax="471" yMax="640">
      <component glyphName="N" x="0" y="0" flags="0x400"/>
    </TTGlyph>
    <TTGlyph name="O" xMin="40" yMin="-10" xMax="447" yMax="650">
      <contour>
        <pt x="40" y="-10" on="0"/>
        <pt x="40" y="176" on="1"/>
        <pt x="40" y="237" on="0"/>
        <pt x="57" y="325" on="1"/>
        <pt x="90" y="489" on="0"/>
        <pt x="212" y="650" on="0"/>
        <pt x="304" y="650" on="1"/>
        <pt x="376" y="650" on="0"/>
        <pt x="447" y="560" on="0"/>
        <pt x="447" y="469" on="1"/>
        <pt x="447" y="403" on="0"/>
        <pt x="429" y="313" on="1"/>
        <pt x="396" y="150" on="0"/>
        <pt x="276" y="-10" on="0"/>
        <pt x="182" y="-10" on="1"/>
      </contour>
      <contour>
        <pt x="111" y="211" on="0"/>
        <pt x="111" y="157" on="1"/>
        <pt x="111" y="103" on="0"/>
        <pt x="146" y="56" on="0"/>
        <pt x="185" y="56" on="1"/>
        <pt x="227" y="56" on="0"/>
        <pt x="289" y="110" on="0"/>
        <pt x="335" y="227" on="0"/>
        <pt x="355" y="325" on="1"/>
        <pt x="376" y="433" on="0"/>
        <pt x="376" y="484" on="1"/>
        <pt x="376" y="537" on="0"/>
        <pt x="340" y="584" on="0"/>
        <pt x="301" y="584" on="1"/>
        <pt x="239" y="584" on="0"/>
        <pt x="160" y="460" on="0"/>
        <pt x="131" y="313" on="1"/>
      </contour>
    </TTGlyph>
    <TTGlyph name="O.short" xMin="37" yMin="-10" xMax="437" yMax="586">
      <contour>
        <pt x="109" y="-10" on="0"/>
        <pt x="37" y="83" on="0"/>
        <pt x="37" y="170" on="1"/>
        <pt x="37" y="225" on="0"/>
        <pt x="50" y="290" on="1"/>
        <pt x="79" y="434" on="0"/>
        <pt x="201" y="586" on="0"/>
        <pt x="294" y="586" on="1"/>
        <pt x="366" y="586" on="0"/>
        <pt x="437" y="494" on="0"/>
        <pt x="437" y="408" on="1"/>
        <pt x="437" y="356" on="0"/>
        <pt x="423" y="284" on="1"/>
        <pt x="394" y="139" on="0"/>
        <pt x="275" y="-10" on="0"/>
        <pt x="180" y="-10" on="1"/>
      </contour>
      <contour>
        <pt x="109" y="202" on="0"/>
        <pt x="109" y="158" on="1"/>
        <pt x="109" y="105" on="0"/>
        <pt x="147" y="56" on="0"/>
        <pt x="188" y="56" on="1"/>
        <pt x="248" y="56" on="0"/>
        <pt x="324" y="169" on="0"/>
        <pt x="348" y="290" on="1"/>
        <pt x="364" y="373" on="0"/>
        <pt x="364" y="418" on="1"/>
        <pt x="364" y="470" on="0"/>
        <pt x="326" y="520" on="0"/>
        <pt x="286" y="520" on="1"/>
        <pt x="226" y="520" on="0"/>
        <pt x="149" y="404" on="0"/>
        <pt x="125" y="284" on="1"/>
      </contour>
    </TTGlyph>
    <TTGlyph name="O.sups" xMin="149" yMin="316" xMax="401" yMax="644">
      <contour>
        <pt x="196" y="316" on="0"/>
        <pt x="149" y="374" on="0"/>
        <pt x="149" y="424" on="1"/>
        <pt x="149" y="447" on="0"/>
        <pt x="156" y="485" on="1"/>
        <pt x="170" y="556" on="0"/>
        <pt x="244" y="644" on="0"/>
        <pt x="305" y="644" on="1"/>
        <pt x="354" y="644" on="0"/>
        <pt x="401" y="586" on="0"/>
        <pt x="401" y="536" on="1"/>
        <pt x="401" y="514" on="0"/>
        <pt x="394" y="475" on="1"/>
        <pt x="379" y="403" on="0"/>
        <pt x="304" y="316" on="0"/>
        <pt x="244" y="316" on="1"/>
      </contour>
      <contour>
        <pt x="212" y="442" on="0"/>
        <pt x="212" y="422" on="1"/>
        <pt x="212" y="395" on="0"/>
        <pt x="231" y="372" on="0"/>
        <pt x="251" y="372" on="1"/>
        <pt x="282" y="372" on="0"/>
        <pt x="320" y="422" on="0"/>
        <pt x="332" y="485" on="1"/>
        <pt x="338" y="515" on="0"/>
        <pt x="338" y="536" on="1"/>
        <pt x="338" y="588" on="0"/>
        <pt x="299" y="588" on="1"/>
        <pt x="267" y="588" on="0"/>
        <pt x="231" y="537" on="0"/>
        <pt x="218" y="475" on="1"/>
      </contour>
    </TTGlyph>
    <TTGlyph name="OE" xMin="1" yMin="0" xMax="521" yMax="640">
      <contour>
        <pt x="1" y="0" on="0"/>
        <pt x="1" y="176" on="1"/>
        <pt x="1" y="237" on="0"/>
        <pt x="18" y="325" on="1"/>
        <pt x="50" y="484" on="0"/>
        <pt x="164" y="640" on="0"/>
        <pt x="251" y="640" on="1"/>
        <pt x="521" y="640" on="1"/>
        <pt x="508" y="576" on="1"/>
        <pt x="340" y="576" on="1"/>
        <pt x="289" y="320" on="1"/>
        <pt x="419" y="320" on="1"/>
        <pt x="406" y="256" on="1"/>
        <pt x="276" y="256" on="1"/>
        <pt x="238" y="64" on="1"/>
        <pt x="416" y="64" on="1"/>
        <pt x="403" y="0" on="1"/>
        <pt x="128" y="0" on="1"/>
      </contour>
      <contour>
        <pt x="71" y="211" on="0"/>
        <pt x="71" y="154" on="1"/>
        <pt x="71" y="106" on="0"/>
        <pt x="102" y="64" on="0"/>
        <pt x="135" y="64" on="1"/>
        <pt x="166" y="64" on="1"/>
        <pt x="268" y="576" on="1"/>
        <pt x="243" y="576" on="1"/>
        <pt x="190" y="576" on="0"/>
        <pt x="121" y="455" on="0"/>
        <pt x="92" y="313" on="1"/>
      </contour>
    </TTGlyph>
    <TTGlyph name="Oacute" xMin="40" yMin="-10" xMax="457" yMax="832">
      <component glyphName="O" x="0" y="0" flags="0x400"/>
      <component glyphName="acutecomb.case" x="0" y="0" flags="0x400"/>
    </TTGlyph>
    <TTGlyph name="Obreve" xMin="40" yMin="-10" xMax="476" yMax="836">
      <component glyphName="O" x="0" y="0" flags="0x400"/>
      <component glyphName="uni0306.case" x="0" y="0" flags="0x400"/>
    </TTGlyph>
    <TTGlyph name="Ocircumflex" xMin="40" yMin="-10" xMax="457" yMax="842">
      <component glyphName="O" x="0" y="0" flags="0x400"/>
      <component glyphName="uni0302.case" x="0" y="0" flags="0x400"/>
    </TTGlyph>
    <TTGlyph name="Odieresis" xMin="40" yMin="-10" xMax="474" yMax="816">
      <component glyphName="O" x="0" y="0" flags="0x400"/>
      <component glyphName="uni0308.case" x="0" y="0" flags="0x400"/>
    </TTGlyph>
    <TTGlyph name="Ograve" xMin="40" yMin="-10" xMax="447" yMax="832">
      <component glyphName="O" x="0" y="0" flags="0x400"/>
      <component glyphName="gravecomb.case" x="0" y="0" flags="0x400"/>
    </TTGlyph>
    <TTGlyph name="Ohorn" xMin="40" yMin="-10" xMax="512" yMax="768">
      <contour>
        <pt x="40" y="-10" on="0"/>
        <pt x="40" y="176" on="1"/>
        <pt x="40" y="237" on="0"/>
        <pt x="57" y="325" on="1"/>
        <pt x="90" y="490" on="0"/>
        <pt x="211" y="650" on="0"/>
        <pt x="304" y="650" on="1"/>
        <pt x="327" y="650" on="0"/>
        <pt x="351" y="644" on="1"/>
        <pt x="371" y="640" on="0"/>
        <pt x="381" y="640" on="1"/>
        <pt x="429" y="640" on="0"/>
        <pt x="440" y="693" on="1"/>
        <pt x="445" y="720" on="0"/>
        <pt x="445" y="768" on="1"/>
        <pt x="509" y="768" on="1"/>
        <pt x="512" y="746" on="0"/>
        <pt x="512" y="719" on="1"/>
        <pt x="512" y="694" on="0"/>
        <pt x="508" y="673" on="1"/>
        <pt x="500" y="635" on="0"/>
        <pt x="462" y="594" on="0"/>
        <pt x="426" y="583" on="1"/>
        <pt x="447" y="541" on="0"/>
        <pt x="447" y="469" on="1"/>
        <pt x="447" y="403" on="0"/>
        <pt x="429" y="313" on="1"/>
        <pt x="396" y="150" on="0"/>
        <pt x="276" y="-10" on="0"/>
        <pt x="182" y="-10" on="1"/>
      </contour>
      <contour>
        <pt x="111" y="211" on="0"/>
        <pt x="111" y="157" on="1"/>
        <pt x="111" y="103" on="0"/>
        <pt x="146" y="56" on="0"/>
        <pt x="185" y="56" on="1"/>
        <pt x="227" y="56" on="0"/>
        <pt x="289" y="110" on="0"/>
        <pt x="335" y="227" on="0"/>
        <pt x="355" y="325" on="1"/>
        <pt x="375" y="428" on="0"/>
        <pt x="375" y="483" on="1"/>
        <pt x="375" y="537" on="0"/>
        <pt x="340" y="584" on="0"/>
        <pt x="301" y="584" on="1"/>
        <pt x="259" y="584" on="0"/>
        <pt x="197" y="530" on="0"/>
        <pt x="151" y="412" on="0"/>
        <pt x="131" y="313" on="1"/>
      </contour>
    </TTGlyph>
    <TTGlyph name="Ohorn.short" xMin="37" yMin="-10" xMax="499" yMax="704">
      <contour>
        <pt x="110" y="-10" on="0"/>
        <pt x="37" y="82" on="0"/>
        <pt x="37" y="170" on="1"/>
        <pt x="37" y="221" on="0"/>
        <pt x="51" y="293" on="1"/>
        <pt x="80" y="435" on="0"/>
        <pt x="200" y="586" on="0"/>
        <pt x="291" y="586" on="1"/>
        <pt x="314" y="586" on="0"/>
        <pt x="338" y="580" on="1"/>
        <pt x="358" y="576" on="0"/>
        <pt x="368" y="576" on="1"/>
        <pt x="416" y="576" on="0"/>
        <pt x="427" y="629" on="1"/>
        <pt x="432" y="656" on="0"/>
        <pt x="432" y="704" on="1"/>
        <pt x="496" y="704" on="1"/>
        <pt x="499" y="682" on="0"/>
        <pt x="499" y="655" on="1"/>
        <pt x="499" y="630" on="0"/>
        <pt x="495" y="609" on="1"/>
        <pt x="488" y="571" on="0"/>
        <pt x="449" y="530" on="0"/>
        <pt x="413" y="519" on="1"/>
        <pt x="437" y="479" on="0"/>
        <pt x="437" y="406" on="1"/>
        <pt x="437" y="356" on="0"/>
        <pt x="423" y="281" on="1"/>
        <pt x="393" y="134" on="0"/>
        <pt x="276" y="-10" on="0"/>
        <pt x="182" y="-10" on="1"/>
      </contour>
      <contour>
        <pt x="109" y="206" on="0"/>
        <pt x="109" y="157" on="1"/>
        <pt x="109" y="105" on="0"/>
        <pt x="145" y="56" on="0"/>
        <pt x="185" y="56" on="1"/>
        <pt x="247" y="56" on="0"/>
        <pt x="324" y="170" on="0"/>
        <pt x="349" y="293" on="1"/>
        <pt x="365" y="373" on="0"/>
        <pt x="365" y="417" on="1"/>
        <pt x="365" y="470" on="0"/>
        <pt x="328" y="520" on="0"/>
        <pt x="288" y="520" on="1"/>
        <pt x="227" y="520" on="0"/>
        <pt x="148" y="404" on="0"/>
        <pt x="124" y="281" on="1"/>
      </contour>
    </TTGlyph>
    <TTGlyph name="Ohungarumlaut" xMin="40" yMin="-10" xMax="488" yMax="832">
      <component glyphName="O" x="0" y="0" flags="0x400"/>
      <component glyphName="uni030B.case" x="0" y="0" flags="0x400"/>
    </TTGlyph>
    <TTGlyph name="Omacron" xMin="40" yMin="-10" xMax="452" yMax="766">
      <component glyphName="O" x="0" y="0" flags="0x400"/>
      <component glyphName="uni0304.case" x="0" y="0" flags="0x400"/>
    </TTGlyph>
    <TTGlyph name="Omegatonos" xMin="-6" yMin="0" xMax="454" yMax="704">
      <component glyphName="uni03A9" x="0" y="0" flags="0x400"/>
      <component glyphName="tonos" x="-256" y="0" flags="0x400"/>
    </TTGlyph>
    <TTGlyph name="Omicron" xMin="40" yMin="-10" xMax="447" yMax="650">
      <component glyphName="O" x="0" y="0" flags="0x400"/>
    </TTGlyph>
    <TTGlyph name="Omicrontonos" xMin="-6" yMin="-10" xMax="447" yMax="704">
      <component glyphName="O" x="0" y="0" flags="0x400"/>
      <component glyphName="tonos" x="-256" y="0" flags="0x400"/>
    </TTGlyph>
    <TTGlyph name="Oslash" xMin="-8" yMin="-16" xMax="495" yMax="656">
      <component glyphName="O" x="0" y="0" flags="0x400"/>
      <component glyphName="_part.slash.O" x="0" y="0" flags="0x400"/>
    </TTGlyph>
    <TTGlyph name="Oslashacute" xMin="-8" yMin="-16" xMax="495" yMax="832">
      <component glyphName="Oslash" x="0" y="0" flags="0x400"/>
      <component glyphName="acutecomb.case" x="0" y="0" flags="0x400"/>
    </TTGlyph>
    <TTGlyph name="Otilde" xMin="40" yMin="-10" xMax="498" yMax="837">
      <component glyphName="O" x="0" y="0" flags="0x400"/>
      <component glyphName="tildecomb.case" x="0" y="0" flags="0x400"/>
    </TTGlyph>
    <TTGlyph name="P" xMin="15" yMin="0" xMax="445" yMax="640">
      <contour>
        <pt x="143" y="640" on="1"/>
        <pt x="295" y="640" on="1"/>
        <pt x="366" y="640" on="0"/>
        <pt x="445" y="556" on="0"/>
        <pt x="445" y="478" on="1"/>
        <pt x="445" y="443" on="0"/>
        <pt x="438" y="408" on="1"/>
        <pt x="417" y="302" on="0"/>
        <pt x="297" y="192" on="0"/>
        <pt x="211" y="192" on="1"/>
        <pt x="125" y="192" on="1"/>
        <pt x="87" y="0" on="1"/>
        <pt x="15" y="0" on="1"/>
      </contour>
      <contour>
        <pt x="212" y="256" on="1"/>
        <pt x="279" y="256" on="0"/>
        <pt x="348" y="340" on="0"/>
        <pt x="364" y="420" on="1"/>
        <pt x="372" y="460" on="0"/>
        <pt x="372" y="488" on="1"/>
        <pt x="372" y="531" on="0"/>
        <pt x="330" y="576" on="0"/>
        <pt x="281" y="576" on="1"/>
        <pt x="202" y="576" on="1"/>
        <pt x="138" y="256" on="1"/>
      </contour>
    </TTGlyph>
    <TTGlyph name="P.short" xMin="15" yMin="0" xMax="438" yMax="575">
      <contour>
        <pt x="130" y="575" on="1"/>
        <pt x="283" y="575" on="1"/>
        <pt x="355" y="575" on="0"/>
        <pt x="438" y="500" on="0"/>
        <pt x="438" y="431" on="1"/>
        <pt x="438" y="408" on="0"/>
        <pt x="432" y="379" on="1"/>
        <pt x="414" y="287" on="0"/>
        <pt x="297" y="192" on="0"/>
        <pt x="211" y="192" on="1"/>
        <pt x="126" y="192" on="1"/>
        <pt x="87" y="0" on="1"/>
        <pt x="15" y="0" on="1"/>
      </contour>
      <contour>
        <pt x="212" y="256" on="1"/>
        <pt x="279" y="256" on="0"/>
        <pt x="345" y="323" on="0"/>
        <pt x="357" y="385" on="1"/>
        <pt x="363" y="412" on="0"/>
        <pt x="363" y="435" on="1"/>
        <pt x="363" y="473" on="0"/>
        <pt x="319" y="511" on="0"/>
        <pt x="268" y="511" on="1"/>
        <pt x="189" y="511" on="1"/>
        <pt x="138" y="256" on="1"/>
      </contour>
    </TTGlyph>
    <TTGlyph name="P.sups" xMin="142" yMin="320" xMax="406" yMax="640">
      <contour>
        <pt x="206" y="640" on="1"/>
        <pt x="301" y="640" on="1"/>
        <pt x="354" y="640" on="0"/>
        <pt x="406" y="593" on="0"/>
        <pt x="406" y="549" on="1"/>
        <pt x="406" y="499" on="0"/>
        <pt x="331" y="440" on="0"/>
        <pt x="271" y="440" on="1"/>
        <pt x="230" y="440" on="1"/>
        <pt x="206" y="320" on="1"/>
        <pt x="142" y="320" on="1"/>
      </contour>
      <contour>
        <pt x="275" y="494" on="1"/>
        <pt x="306" y="494" on="0"/>
        <pt x="339" y="525" on="0"/>
        <pt x="339" y="551" on="1"/>
        <pt x="339" y="586" on="0"/>
        <pt x="297" y="586" on="1"/>
        <pt x="259" y="586" on="1"/>
        <pt x="241" y="494" on="1"/>
      </contour>
    </TTGlyph>
    <TTGlyph name="Phi" xMin="41" yMin="0" xMax="443" yMax="640">
      <component glyphName="uni0424" x="0" y="0" flags="0x400"/>
    </TTGlyph>
    <TTGlyph name="Pi" xMin="15" yMin="0" xMax="471" yMax="640">
      <component glyphName="uni041F" x="0" y="0" flags="0x400"/>
    </TTGlyph>
    <TTGlyph name="Psi" xMin="63" yMin="0" xMax="481" yMax="640">
      <contour>
        <pt x="264" y="248" on="1"/>
        <pt x="312" y="260" on="0"/>
        <pt x="369" y="356" on="0"/>
        <pt x="388" y="448" on="1"/>
        <pt x="402" y="520" on="0"/>
        <pt x="417" y="640" on="1"/>
        <pt x="481" y="640" on="1"/>
        <pt x="476" y="529" on="0"/>
        <pt x="458" y="438" on="1"/>
        <pt x="435" y="322" on="0"/>
        <pt x="339" y="194" on="0"/>
        <pt x="251" y="184" on="1"/>
        <pt x="214" y="0" on="1"/>
        <pt x="142" y="0" on="1"/>
        <pt x="179" y="185" on="1"/>
        <pt x="63" y="203" on="0"/>
        <pt x="63" y="340" on="1"/>
        <pt x="63" y="387" on="0"/>
        <pt x="75" y="444" on="1"/>
        <pt x="95" y="544" on="0"/>
        <pt x="129" y="640" on="1"/>
        <pt x="196" y="640" on="1"/>
        <pt x="155" y="492" on="0"/>
        <pt x="146" y="442" on="1"/>
        <pt x="133" y="374" on="0"/>
        <pt x="133" y="338" on="1"/>
        <pt x="133" y="298" on="0"/>
        <pt x="161" y="253" on="0"/>
        <pt x="191" y="246" on="1"/>
        <pt x="270" y="640" on="1"/>
        <pt x="342" y="640" on="1"/>
      </contour>
    </TTGlyph>
    <TTGlyph name="Q" xMin="40" yMin="-145" xMax="447" yMax="650">
      <contour>
        <pt x="165" y="-131" on="0"/>
        <pt x="162" y="-9" on="1"/>
        <pt x="40" y="5" on="0"/>
        <pt x="40" y="176" on="1"/>
        <pt x="40" y="237" on="0"/>
        <pt x="57" y="325" on="1"/>
        <pt x="90" y="489" on="0"/>
        <pt x="212" y="650" on="0"/>
        <pt x="304" y="650" on="1"/>
        <pt x="376" y="650" on="0"/>
        <pt x="447" y="560" on="0"/>
        <pt x="447" y="469" on="1"/>
        <pt x="447" y="403" on="0"/>
        <pt x="429" y="313" on="1"/>
        <pt x="401" y="174" on="0"/>
        <pt x="306" y="17" on="0"/>
        <pt x="235" y="-3" on="1"/>
        <pt x="234" y="-33" on="0"/>
        <pt x="257" y="-62" on="0"/>
        <pt x="305" y="-75" on="0"/>
        <pt x="352" y="-78" on="1"/>
        <pt x="334" y="-145" on="1"/>
      </contour>
      <contour>
        <pt x="111" y="211" on="0"/>
        <pt x="111" y="157" on="1"/>
        <pt x="111" y="103" on="0"/>
        <pt x="146" y="56" on="0"/>
        <pt x="185" y="56" on="1"/>
        <pt x="227" y="56" on="0"/>
        <pt x="289" y="110" on="0"/>
        <pt x="335" y="227" on="0"/>
        <pt x="355" y="325" on="1"/>
        <pt x="376" y="433" on="0"/>
        <pt x="376" y="484" on="1"/>
        <pt x="376" y="537" on="0"/>
        <pt x="340" y="584" on="0"/>
        <pt x="301" y="584" on="1"/>
        <pt x="239" y="584" on="0"/>
        <pt x="160" y="460" on="0"/>
        <pt x="131" y="313" on="1"/>
      </contour>
    </TTGlyph>
    <TTGlyph name="Q.sups" xMin="149" yMin="256" xMax="401" yMax="644">
      <contour>
        <pt x="149" y="342" on="0"/>
        <pt x="149" y="424" on="1"/>
        <pt x="149" y="447" on="0"/>
        <pt x="156" y="485" on="1"/>
        <pt x="170" y="556" on="0"/>
        <pt x="244" y="644" on="0"/>
        <pt x="305" y="644" on="1"/>
        <pt x="354" y="644" on="0"/>
        <pt x="401" y="586" on="0"/>
        <pt x="401" y="536" on="1"/>
        <pt x="401" y="514" on="0"/>
        <pt x="394" y="475" on="1"/>
        <pt x="381" y="411" on="0"/>
        <pt x="318" y="327" on="0"/>
        <pt x="269" y="318" on="1"/>
        <pt x="257" y="256" on="1"/>
        <pt x="193" y="256" on="1"/>
        <pt x="206" y="322" on="1"/>
      </contour>
      <contour>
        <pt x="212" y="442" on="0"/>
        <pt x="212" y="422" on="1"/>
        <pt x="212" y="395" on="0"/>
        <pt x="231" y="372" on="0"/>
        <pt x="251" y="372" on="1"/>
        <pt x="282" y="372" on="0"/>
        <pt x="320" y="422" on="0"/>
        <pt x="332" y="485" on="1"/>
        <pt x="338" y="515" on="0"/>
        <pt x="338" y="536" on="1"/>
        <pt x="338" y="588" on="0"/>
        <pt x="299" y="588" on="1"/>
        <pt x="267" y="588" on="0"/>
        <pt x="231" y="537" on="0"/>
        <pt x="218" y="475" on="1"/>
      </contour>
    </TTGlyph>
    <TTGlyph name="R" xMin="15" yMin="0" xMax="449" yMax="640">
      <contour>
        <pt x="368" y="640" on="0"/>
        <pt x="449" y="562" on="0"/>
        <pt x="449" y="491" on="1"/>
        <pt x="449" y="464" on="0"/>
        <pt x="443" y="434" on="1"/>
        <pt x="427" y="355" on="0"/>
        <pt x="335" y="265" on="0"/>
        <pt x="266" y="254" on="1"/>
        <pt x="316" y="231" on="0"/>
        <pt x="368" y="127" on="0"/>
        <pt x="368" y="52" on="1"/>
        <pt x="368" y="27" on="0"/>
        <pt x="365" y="0" on="1"/>
        <pt x="293" y="0" on="1"/>
        <pt x="296" y="27" on="0"/>
        <pt x="296" y="50" on="1"/>
        <pt x="296" y="123" on="0"/>
        <pt x="245" y="212" on="0"/>
        <pt x="191" y="241" on="1"/>
        <pt x="135" y="241" on="1"/>
        <pt x="87" y="0" on="1"/>
        <pt x="15" y="0" on="1"/>
        <pt x="143" y="640" on="1"/>
        <pt x="296" y="640" on="1"/>
      </contour>
      <contour>
        <pt x="222" y="305" on="1"/>
        <pt x="289" y="305" on="0"/>
        <pt x="356" y="377" on="0"/>
        <pt x="369" y="446" on="1"/>
        <pt x="375" y="475" on="0"/>
        <pt x="375" y="497" on="1"/>
        <pt x="375" y="536" on="0"/>
        <pt x="332" y="576" on="0"/>
        <pt x="281" y="576" on="1"/>
        <pt x="202" y="576" on="1"/>
        <pt x="148" y="305" on="1"/>
      </contour>
    </TTGlyph>
    <TTGlyph name="R.short" xMin="15" yMin="0" xMax="439" yMax="576">
      <contour>
        <pt x="356" y="576" on="0"/>
        <pt x="439" y="502" on="0"/>
        <pt x="439" y="436" on="1"/>
        <pt x="439" y="417" on="0"/>
        <pt x="434" y="389" on="1"/>
        <pt x="419" y="315" on="0"/>
        <pt x="331" y="232" on="0"/>
        <pt x="263" y="222" on="1"/>
        <pt x="314" y="200" on="0"/>
        <pt x="367" y="104" on="0"/>
        <pt x="367" y="37" on="1"/>
        <pt x="367" y="26" on="0"/>
        <pt x="365" y="0" on="1"/>
        <pt x="293" y="0" on="1"/>
        <pt x="294" y="12" on="0"/>
        <pt x="294" y="33" on="1"/>
        <pt x="294" y="101" on="0"/>
        <pt x="242" y="183" on="0"/>
        <pt x="185" y="209" on="1"/>
        <pt x="129" y="209" on="1"/>
        <pt x="87" y="0" on="1"/>
        <pt x="15" y="0" on="1"/>
        <pt x="130" y="576" on="1"/>
        <pt x="283" y="576" on="1"/>
      </contour>
      <contour>
        <pt x="215" y="273" on="1"/>
        <pt x="282" y="273" on="0"/>
        <pt x="348" y="336" on="0"/>
        <pt x="359" y="395" on="1"/>
        <pt x="364" y="422" on="0"/>
        <pt x="364" y="439" on="1"/>
        <pt x="364" y="475" on="0"/>
        <pt x="320" y="512" on="0"/>
        <pt x="268" y="512" on="1"/>
        <pt x="189" y="512" on="1"/>
        <pt x="142" y="273" on="1"/>
      </contour>
    </TTGlyph>
    <TTGlyph name="R.sups" xMin="142" yMin="320" xMax="395" yMax="640">
      <contour>
        <pt x="344" y="640" on="0"/>
        <pt x="395" y="595" on="0"/>
        <pt x="395" y="555" on="1"/>
        <pt x="395" y="513" on="0"/>
        <pt x="355" y="458" on="0"/>
        <pt x="321" y="447" on="1"/>
        <pt x="354" y="417" on="0"/>
        <pt x="354" y="352" on="1"/>
        <pt x="354" y="342" on="0"/>
        <pt x="352" y="320" on="1"/>
        <pt x="287" y="320" on="1"/>
        <pt x="289" y="333" on="0"/>
        <pt x="289" y="355" on="1"/>
        <pt x="289" y="404" on="0"/>
        <pt x="262" y="428" on="1"/>
        <pt x="228" y="428" on="1"/>
        <pt x="206" y="320" on="1"/>
        <pt x="142" y="320" on="1"/>
        <pt x="206" y="640" on="1"/>
        <pt x="301" y="640" on="1"/>
      </contour>
      <contour>
        <pt x="266" y="484" on="1"/>
        <pt x="318" y="484" on="0"/>
        <pt x="328" y="540" on="1"/>
        <pt x="330" y="552" on="0"/>
        <pt x="330" y="557" on="1"/>
        <pt x="330" y="570" on="0"/>
        <pt x="313" y="584" on="0"/>
        <pt x="292" y="584" on="1"/>
        <pt x="259" y="584" on="1"/>
        <pt x="239" y="484" on="1"/>
      </contour>
    </TTGlyph>
    <TTGlyph name="Racute" xMin="15" yMin="0" xMax="449" yMax="832">
      <component glyphName="R" x="0" y="0" flags="0x400"/>
      <component glyphName="acutecomb.case" x="-16" y="0" flags="0x400"/>
    </TTGlyph>
    <TTGlyph name="Rcaron" xMin="15" yMin="0" xMax="470" yMax="838">
      <component glyphName="R" x="0" y="0" flags="0x400"/>
      <component glyphName="uni030C.case" x="-16" y="0" flags="0x400"/>
    </TTGlyph>
    <TTGlyph name="Rho" xMin="15" yMin="0" xMax="445" yMax="640">
      <component glyphName="P" x="0" y="0" flags="0x400"/>
    </TTGlyph>
    <TTGlyph name="S" xMin="14" yMin="-8" xMax="451" yMax="648">
      <contour>
        <pt x="76" y="-8" on="0"/>
        <pt x="14" y="23" on="1"/>
        <pt x="37" y="79" on="1"/>
        <pt x="95" y="56" on="0"/>
        <pt x="161" y="56" on="1"/>
        <pt x="233" y="56" on="0"/>
        <pt x="303" y="108" on="0"/>
        <pt x="303" y="155" on="1"/>
        <pt x="303" y="193" on="0"/>
        <pt x="261" y="240" on="0"/>
        <pt x="217" y="269" on="1"/>
        <pt x="181" y="292" on="0"/>
        <pt x="136" y="332" on="0"/>
        <pt x="104" y="395" on="0"/>
        <pt x="104" y="441" on="1"/>
        <pt x="104" y="536" on="0"/>
        <pt x="222" y="648" on="0"/>
        <pt x="334" y="648" on="1"/>
        <pt x="396" y="648" on="0"/>
        <pt x="451" y="629" on="1"/>
        <pt x="434" y="571" on="1"/>
        <pt x="387" y="584" on="0"/>
        <pt x="334" y="584" on="1"/>
        <pt x="178" y="584" on="0"/>
        <pt x="178" y="448" on="1"/>
        <pt x="178" y="418" on="0"/>
        <pt x="202" y="374" on="0"/>
        <pt x="238" y="344" on="0"/>
        <pt x="269" y="324" on="1"/>
        <pt x="304" y="300" on="0"/>
        <pt x="347" y="263" on="0"/>
        <pt x="377" y="204" on="0"/>
        <pt x="377" y="162" on="1"/>
        <pt x="377" y="85" on="0"/>
        <pt x="265" y="-8" on="0"/>
        <pt x="161" y="-8" on="1"/>
      </contour>
    </TTGlyph>
    <TTGlyph name="S.short" xMin="14" yMin="-8" xMax="440" yMax="584">
      <contour>
        <pt x="76" y="-8" on="0"/>
        <pt x="14" y="23" on="1"/>
        <pt x="37" y="79" on="1"/>
        <pt x="95" y="56" on="0"/>
        <pt x="161" y="56" on="1"/>
        <pt x="233" y="56" on="0"/>
        <pt x="303" y="104" on="0"/>
        <pt x="303" y="147" on="1"/>
        <pt x="303" y="176" on="0"/>
        <pt x="262" y="213" on="0"/>
        <pt x="217" y="238" on="1"/>
        <pt x="178" y="259" on="0"/>
        <pt x="130" y="294" on="0"/>
        <pt x="95" y="352" on="0"/>
        <pt x="95" y="393" on="1"/>
        <pt x="95" y="480" on="0"/>
        <pt x="212" y="584" on="0"/>
        <pt x="323" y="584" on="1"/>
        <pt x="385" y="584" on="0"/>
        <pt x="440" y="565" on="1"/>
        <pt x="423" y="507" on="1"/>
        <pt x="376" y="520" on="0"/>
        <pt x="323" y="520" on="1"/>
        <pt x="169" y="520" on="0"/>
        <pt x="169" y="400" on="1"/>
        <pt x="169" y="366" on="0"/>
        <pt x="214" y="324" on="0"/>
        <pt x="260" y="300" on="1"/>
        <pt x="298" y="279" on="0"/>
        <pt x="344" y="246" on="0"/>
        <pt x="377" y="192" on="0"/>
        <pt x="377" y="154" on="1"/>
        <pt x="377" y="80" on="0"/>
        <pt x="265" y="-8" on="0"/>
        <pt x="161" y="-8" on="1"/>
      </contour>
    </TTGlyph>
    <TTGlyph name="S.sups" xMin="150" yMin="316" xMax="393" yMax="644">
      <contour>
        <pt x="196" y="316" on="0"/>
        <pt x="150" y="327" on="1"/>
        <pt x="160" y="377" on="1"/>
        <pt x="200" y="370" on="0"/>
        <pt x="228" y="370" on="1"/>
        <pt x="260" y="370" on="0"/>
        <pt x="295" y="395" on="0"/>
        <pt x="295" y="416" on="1"/>
        <pt x="295" y="433" on="0"/>
        <pt x="274" y="450" on="0"/>
        <pt x="252" y="460" on="1"/>
        <pt x="222" y="473" on="0"/>
        <pt x="190" y="506" on="0"/>
        <pt x="190" y="540" on="1"/>
        <pt x="190" y="563" on="0"/>
        <pt x="214" y="611" on="0"/>
        <pt x="269" y="644" on="0"/>
        <pt x="313" y="644" on="1"/>
        <pt x="353" y="644" on="0"/>
        <pt x="393" y="633" on="1"/>
        <pt x="381" y="583" on="1"/>
        <pt x="341" y="590" on="0"/>
        <pt x="316" y="590" on="1"/>
        <pt x="290" y="590" on="0"/>
        <pt x="255" y="569" on="0"/>
        <pt x="255" y="548" on="1"/>
        <pt x="255" y="535" on="0"/>
        <pt x="273" y="519" on="0"/>
        <pt x="295" y="507" on="1"/>
        <pt x="326" y="492" on="0"/>
        <pt x="360" y="456" on="0"/>
        <pt x="360" y="421" on="1"/>
        <pt x="360" y="380" on="0"/>
        <pt x="296" y="316" on="0"/>
        <pt x="232" y="316" on="1"/>
      </contour>
    </TTGlyph>
    <TTGlyph name="Sacute" xMin="14" yMin="-8" xMax="457" yMax="832">
      <component glyphName="S" x="0" y="0" flags="0x400"/>
      <component glyphName="acutecomb.case" x="0" y="0" flags="0x400"/>
    </TTGlyph>
    <TTGlyph name="Scaron" xMin="14" yMin="-8" xMax="486" yMax="838">
      <component glyphName="S" x="0" y="0" flags="0x400"/>
      <component glyphName="uni030C.case" x="0" y="0" flags="0x400"/>
    </TTGlyph>
    <TTGlyph name="Scedilla" xMin="7" yMin="-192" xMax="451" yMax="648">
      <component glyphName="S" x="0" y="0" flags="0x400"/>
      <component glyphName="uni0327" x="-40" y="0" flags="0x400"/>
    </TTGlyph>
    <TTGlyph name="Scircumflex" xMin="14" yMin="-8" xMax="457" yMax="842">
      <component glyphName="S" x="0" y="0" flags="0x400"/>
      <component glyphName="uni0302.case" x="0" y="0" flags="0x400"/>
    </TTGlyph>
    <TTGlyph name="Sigma" xMin="10" yMin="0" xMax="471" yMax="640">
      <contour>
        <pt x="205" y="320" on="1"/>
        <pt x="207" y="320" on="1"/>
        <pt x="141" y="588" on="1"/>
        <pt x="140" y="588" on="1"/>
        <pt x="150" y="640" on="1"/>
        <pt x="471" y="640" on="1"/>
        <pt x="458" y="576" on="1"/>
        <pt x="220" y="576" on="1"/>
        <pt x="283" y="320" on="1"/>
        <pt x="285" y="320" on="1"/>
        <pt x="107" y="64" on="1"/>
        <pt x="356" y="64" on="1"/>
        <pt x="343" y="0" on="1"/>
        <pt x="10" y="0" on="1"/>
        <pt x="20" y="52" on="1"/>
      </contour>
    </TTGlyph>
    <TTGlyph name="T" xMin="114" yMin="0" xMax="487" yMax="640">
      <contour>
        <pt x="330" y="576" on="1"/>
        <pt x="215" y="0" on="1"/>
        <pt x="143" y="0" on="1"/>
        <pt x="258" y="576" on="1"/>
        <pt x="114" y="576" on="1"/>
        <pt x="127" y="640" on="1"/>
        <pt x="487" y="640" on="1"/>
        <pt x="474" y="576" on="1"/>
      </contour>
    </TTGlyph>
    <TTGlyph name="T.short" xMin="102" yMin="0" xMax="474" yMax="576">
      <contour>
        <pt x="318" y="512" on="1"/>
        <pt x="215" y="0" on="1"/>
        <pt x="143" y="0" on="1"/>
        <pt x="246" y="512" on="1"/>
        <pt x="102" y="512" on="1"/>
        <pt x="114" y="576" on="1"/>
        <pt x="474" y="576" on="1"/>
        <pt x="462" y="512" on="1"/>
      </contour>
    </TTGlyph>
    <TTGlyph name="T.sups" xMin="192" yMin="320" xMax="411" yMax="640">
      <contour>
        <pt x="264" y="584" on="1"/>
        <pt x="192" y="584" on="1"/>
        <pt x="203" y="640" on="1"/>
        <pt x="411" y="640" on="1"/>
        <pt x="400" y="584" on="1"/>
        <pt x="328" y="584" on="1"/>
        <pt x="275" y="320" on="1"/>
        <pt x="211" y="320" on="1"/>
      </contour>
    </TTGlyph>
    <TTGlyph name="Tau" xMin="114" yMin="0" xMax="487" yMax="640">
      <component glyphName="T" x="0" y="0" flags="0x400"/>
    </TTGlyph>
    <TTGlyph name="Tbar" xMin="103" yMin="0" xMax="487" yMax="640">
      <component glyphName="T" x="0" y="0" flags="0x400"/>
      <component glyphName="uni0335" x="13" y="64" flags="0x404"/>
    </TTGlyph>
    <TTGlyph name="Tcaron" xMin="114" yMin="0" xMax="487" yMax="838">
      <component glyphName="T" x="0" y="0" flags="0x400"/>
      <component glyphName="uni030C.case" x="0" y="0" flags="0x400"/>
    </TTGlyph>
    <TTGlyph name="Theta" xMin="40" yMin="-10" xMax="447" yMax="650">
      <contour>
        <pt x="40" y="-10" on="0"/>
        <pt x="40" y="176" on="1"/>
        <pt x="40" y="237" on="0"/>
        <pt x="57" y="325" on="1"/>
        <pt x="90" y="489" on="0"/>
        <pt x="212" y="650" on="0"/>
        <pt x="304" y="650" on="1"/>
        <pt x="376" y="650" on="0"/>
        <pt x="447" y="560" on="0"/>
        <pt x="447" y="469" on="1"/>
        <pt x="447" y="403" on="0"/>
        <pt x="429" y="313" on="1"/>
        <pt x="396" y="150" on="0"/>
        <pt x="276" y="-10" on="0"/>
        <pt x="182" y="-10" on="1"/>
      </contour>
      <contour>
        <pt x="111" y="198" on="0"/>
        <pt x="111" y="157" on="1"/>
        <pt x="111" y="103" on="0"/>
        <pt x="146" y="56" on="0"/>
        <pt x="185" y="56" on="1"/>
        <pt x="240" y="56" on="0"/>
        <pt x="312" y="149" on="0"/>
        <pt x="340" y="256" on="1"/>
        <pt x="120" y="256" on="1"/>
      </contour>
      <contour>
        <pt x="354" y="320" on="1"/>
        <pt x="355" y="325" on="1"/>
        <pt x="376" y="433" on="0"/>
        <pt x="376" y="484" on="1"/>
        <pt x="376" y="537" on="0"/>
        <pt x="340" y="584" on="0"/>
        <pt x="301" y="584" on="1"/>
        <pt x="239" y="584" on="0"/>
        <pt x="161" y="463" on="0"/>
        <pt x="132" y="320" on="1"/>
      </contour>
    </TTGlyph>
    <TTGlyph name="Thorn" xMin="15" yMin="0" xMax="425" yMax="640">
      <contour>
        <pt x="342" y="512" on="0"/>
        <pt x="425" y="435" on="0"/>
        <pt x="425" y="365" on="1"/>
        <pt x="425" y="341" on="0"/>
        <pt x="419" y="312" on="1"/>
        <pt x="401" y="222" on="0"/>
        <pt x="284" y="128" on="0"/>
        <pt x="198" y="128" on="1"/>
        <pt x="113" y="128" on="1"/>
        <pt x="87" y="0" on="1"/>
        <pt x="15" y="0" on="1"/>
        <pt x="143" y="640" on="1"/>
        <pt x="215" y="640" on="1"/>
        <pt x="190" y="512" on="1"/>
        <pt x="270" y="512" on="1"/>
      </contour>
      <contour>
        <pt x="199" y="192" on="1"/>
        <pt x="266" y="192" on="0"/>
        <pt x="334" y="259" on="0"/>
        <pt x="347" y="324" on="1"/>
        <pt x="353" y="350" on="0"/>
        <pt x="353" y="371" on="1"/>
        <pt x="353" y="409" on="0"/>
        <pt x="307" y="448" on="0"/>
        <pt x="255" y="448" on="1"/>
        <pt x="177" y="448" on="1"/>
        <pt x="126" y="192" on="1"/>
      </contour>
    </TTGlyph>
    <TTGlyph name="U" xMin="44" yMin="-8" xMax="471" yMax="640">
      <contour>
        <pt x="215" y="640" on="1"/>
        <pt x="120" y="166" on="1"/>
        <pt x="114" y="138" on="0"/>
        <pt x="114" y="116" on="1"/>
        <pt x="114" y="86" on="0"/>
        <pt x="146" y="56" on="0"/>
        <pt x="185" y="56" on="1"/>
        <pt x="239" y="56" on="0"/>
        <pt x="295" y="116" on="0"/>
        <pt x="306" y="172" on="1"/>
        <pt x="399" y="640" on="1"/>
        <pt x="471" y="640" on="1"/>
        <pt x="377" y="170" on="1"/>
        <pt x="358" y="77" on="0"/>
        <pt x="257" y="-8" on="0"/>
        <pt x="183" y="-8" on="1"/>
        <pt x="118" y="-8" on="0"/>
        <pt x="44" y="55" on="0"/>
        <pt x="44" y="119" on="1"/>
        <pt x="44" y="145" on="0"/>
        <pt x="50" y="175" on="1"/>
        <pt x="143" y="640" on="1"/>
      </contour>
    </TTGlyph>
    <TTGlyph name="U.short" xMin="44" yMin="-8" xMax="458" yMax="576">
      <contour>
        <pt x="202" y="576" on="1"/>
        <pt x="120" y="166" on="1"/>
        <pt x="114" y="138" on="0"/>
        <pt x="114" y="116" on="1"/>
        <pt x="114" y="86" on="0"/>
        <pt x="146" y="56" on="0"/>
        <pt x="185" y="56" on="1"/>
        <pt x="239" y="56" on="0"/>
        <pt x="295" y="116" on="0"/>
        <pt x="306" y="172" on="1"/>
        <pt x="386" y="576" on="1"/>
        <pt x="458" y="576" on="1"/>
        <pt x="377" y="170" on="1"/>
        <pt x="358" y="77" on="0"/>
        <pt x="257" y="-8" on="0"/>
        <pt x="183" y="-8" on="1"/>
        <pt x="118" y="-8" on="0"/>
        <pt x="44" y="55" on="0"/>
        <pt x="44" y="119" on="1"/>
        <pt x="44" y="145" on="0"/>
        <pt x="50" y="175" on="1"/>
        <pt x="130" y="576" on="1"/>
      </contour>
    </TTGlyph>
    <TTGlyph name="U.sups" xMin="153" yMin="316" xMax="415" yMax="640">
      <contour>
        <pt x="204" y="316" on="0"/>
        <pt x="153" y="356" on="0"/>
        <pt x="153" y="396" on="1"/>
        <pt x="153" y="409" on="0"/>
        <pt x="156" y="424" on="1"/>
        <pt x="199" y="640" on="1"/>
        <pt x="263" y="640" on="1"/>
        <pt x="219" y="417" on="1"/>
        <pt x="217" y="405" on="0"/>
        <pt x="217" y="400" on="1"/>
        <pt x="217" y="372" on="0"/>
        <pt x="249" y="372" on="1"/>
        <pt x="272" y="372" on="0"/>
        <pt x="303" y="400" on="0"/>
        <pt x="308" y="423" on="1"/>
        <pt x="351" y="640" on="1"/>
        <pt x="415" y="640" on="1"/>
        <pt x="371" y="419" on="1"/>
        <pt x="360" y="366" on="0"/>
        <pt x="294" y="316" on="0"/>
        <pt x="247" y="316" on="1"/>
      </contour>
    </TTGlyph>
    <TTGlyph name="Uacute" xMin="44" yMin="-8" xMax="471" yMax="832">
      <component glyphName="U" x="0" y="0" flags="0x400"/>
      <component glyphName="acutecomb.case" x="0" y="0" flags="0x400"/>
    </TTGlyph>
    <TTGlyph name="Ubreve" xMin="44" yMin="-8" xMax="476" yMax="836">
      <component glyphName="U" x="0" y="0" flags="0x400"/>
      <component glyphName="uni0306.case" x="0" y="0" flags="0x400"/>
    </TTGlyph>
    <TTGlyph name="Ucircumflex" xMin="44" yMin="-8" xMax="471" yMax="842">
      <component glyphName="U" x="0" y="0" flags="0x400"/>
      <component glyphName="uni0302.case" x="0" y="0" flags="0x400"/>
    </TTGlyph>
    <TTGlyph name="Udieresis" xMin="44" yMin="-8" xMax="474" yMax="816">
      <component glyphName="U" x="0" y="0" flags="0x400"/>
      <component glyphName="uni0308.case" x="0" y="0" flags="0x400"/>
    </TTGlyph>
    <TTGlyph name="Ugrave" xMin="44" yMin="-8" xMax="471" yMax="832">
      <component glyphName="U" x="0" y="0" flags="0x400"/>
      <component glyphName="gravecomb.case" x="0" y="0" flags="0x400"/>
    </TTGlyph>
    <TTGlyph name="Uhorn" xMin="44" yMin="-8" xMax="549" yMax="768">
      <component glyphName="U" x="0" y="0" flags="0x400"/>
      <component glyphName="uni031B.case" x="0" y="0" flags="0x400"/>
    </TTGlyph>
    <TTGlyph name="Uhorn.short" xMin="44" yMin="-8" xMax="536" yMax="704">
      <component glyphName="U.short" x="0" y="0" flags="0x400"/>
      <component glyphName="uni031B.case" x="-13" y="-64" flags="0x404"/>
    </TTGlyph>
    <TTGlyph name="Uhungarumlaut" xMin="44" yMin="-8" xMax="488" yMax="832">
      <component glyphName="U" x="0" y="0" flags="0x400"/>
      <component glyphName="uni030B.case" x="0" y="0" flags="0x400"/>
    </TTGlyph>
    <TTGlyph name="Umacron" xMin="44" yMin="-8" xMax="471" yMax="766">
      <component glyphName="U" x="0" y="0" flags="0x400"/>
      <component glyphName="uni0304.case" x="0" y="0" flags="0x400"/>
    </TTGlyph>
    <TTGlyph name="Uogonek" xMin="44" yMin="-197" xMax="471" yMax="640">
      <component glyphName="U" x="0" y="0" flags="0x400"/>
      <component glyphName="uni0328" x="-104" y="0" flags="0x400"/>
    </TTGlyph>
    <TTGlyph name="Upsilon" xMin="105" yMin="0" xMax="513" yMax="640">
      <contour>
        <pt x="194" y="258" on="0"/>
        <pt x="194" y="329" on="1"/>
        <pt x="194" y="500" on="0"/>
        <pt x="105" y="640" on="1"/>
        <pt x="193" y="640" on="1"/>
        <pt x="251" y="523" on="0"/>
        <pt x="250" y="368" on="1"/>
        <pt x="310" y="525" on="0"/>
        <pt x="413" y="640" on="1"/>
        <pt x="513" y="640" on="1"/>
        <pt x="299" y="433" on="0"/>
        <pt x="247" y="167" on="1"/>
        <pt x="214" y="0" on="1"/>
        <pt x="142" y="0" on="1"/>
        <pt x="177" y="173" on="1"/>
      </contour>
    </TTGlyph>
    <TTGlyph name="Upsilondieresis" xMin="105" yMin="0" xMax="513" yMax="816">
      <component glyphName="Upsilon" x="0" y="0" flags="0x400"/>
      <component glyphName="uni0308.case" x="0" y="0" flags="0x400"/>
    </TTGlyph>
    <TTGlyph name="Upsilontonos" xMin="-6" yMin="0" xMax="513" yMax="704">
      <component glyphName="Upsilon" x="0" y="0" flags="0x400"/>
      <component glyphName="tonos" x="-256" y="0" flags="0x400"/>
    </TTGlyph>
    <TTGlyph name="Uring" xMin="44" yMin="-8" xMax="458" yMax="825">
      <component glyphName="U.short" x="0" y="0" flags="0x400"/>
      <component glyphName="uni030A.case" x="0" y="0" flags="0x400"/>
    </TTGlyph>
    <TTGlyph name="Utilde" xMin="44" yMin="-8" xMax="498" yMax="837">
      <component glyphName="U" x="0" y="0" flags="0x400"/>
      <component glyphName="tildecomb.case" x="0" y="0" flags="0x400"/>
    </TTGlyph>
    <TTGlyph name="V" xMin="102" yMin="-3" xMax="497" yMax="640">
      <contour>
        <pt x="102" y="148" on="0"/>
        <pt x="102" y="368" on="1"/>
        <pt x="102" y="496" on="0"/>
        <pt x="119" y="640" on="1"/>
        <pt x="193" y="640" on="1"/>
        <pt x="177" y="484" on="0"/>
        <pt x="177" y="343" on="1"/>
        <pt x="177" y="197" on="0"/>
        <pt x="195" y="90" on="1"/>
        <pt x="321" y="296" on="0"/>
        <pt x="421" y="640" on="1"/>
        <pt x="497" y="640" on="1"/>
        <pt x="445" y="453" on="0"/>
        <pt x="299" y="120" on="0"/>
        <pt x="213" y="-3" on="1"/>
        <pt x="149" y="-3" on="1"/>
      </contour>
    </TTGlyph>
    <TTGlyph name="V.sups" xMin="186" yMin="320" xMax="427" yMax="640">
      <contour>
        <pt x="186" y="451" on="0"/>
        <pt x="186" y="581" on="1"/>
        <pt x="186" y="600" on="0"/>
        <pt x="188" y="640" on="1"/>
        <pt x="255" y="640" on="1"/>
        <pt x="251" y="564" on="0"/>
        <pt x="251" y="528" on="1"/>
        <pt x="251" y="461" on="0"/>
        <pt x="257" y="396" on="1"/>
        <pt x="320" y="526" on="0"/>
        <pt x="357" y="640" on="1"/>
        <pt x="427" y="640" on="1"/>
        <pt x="373" y="476" on="0"/>
        <pt x="274" y="320" on="1"/>
        <pt x="218" y="320" on="1"/>
      </contour>
    </TTGlyph>
    <TTGlyph name="W" xMin="65" yMin="0" xMax="490" yMax="640">
      <contour>
        <pt x="65" y="54" on="0"/>
        <pt x="65" y="105" on="1"/>
        <pt x="65" y="225" on="0"/>
        <pt x="94" y="475" on="0"/>
        <pt x="125" y="640" on="1"/>
        <pt x="198" y="640" on="1"/>
        <pt x="160" y="449" on="0"/>
        <pt x="124" y="205" on="0"/>
        <pt x="120" y="81" on="1"/>
        <pt x="161" y="180" on="0"/>
        <pt x="218" y="357" on="0"/>
        <pt x="236" y="448" on="1"/>
        <pt x="301" y="448" on="1"/>
        <pt x="269" y="289" on="0"/>
        <pt x="269" y="117" on="1"/>
        <pt x="269" y="81" on="1"/>
        <pt x="315" y="206" on="0"/>
        <pt x="378" y="451" on="0"/>
        <pt x="417" y="640" on="1"/>
        <pt x="490" y="640" on="1"/>
        <pt x="447" y="438" on="0"/>
        <pt x="360" y="149" on="0"/>
        <pt x="292" y="0" on="1"/>
        <pt x="230" y="0" on="1"/>
        <pt x="221" y="57" on="0"/>
        <pt x="221" y="114" on="1"/>
        <pt x="221" y="181" on="0"/>
        <pt x="233" y="262" on="1"/>
        <pt x="213" y="185" on="0"/>
        <pt x="167" y="59" on="0"/>
        <pt x="134" y="0" on="1"/>
        <pt x="68" y="0" on="1"/>
      </contour>
    </TTGlyph>
    <TTGlyph name="W.short" xMin="65" yMin="0" xMax="477" yMax="576">
      <contour>
        <pt x="65" y="56" on="0"/>
        <pt x="65" y="110" on="1"/>
        <pt x="65" y="214" on="0"/>
        <pt x="88" y="432" on="0"/>
        <pt x="112" y="576" on="1"/>
        <pt x="185" y="576" on="1"/>
        <pt x="154" y="410" on="0"/>
        <pt x="123" y="191" on="0"/>
        <pt x="120" y="81" on="1"/>
        <pt x="161" y="180" on="0"/>
        <pt x="218" y="357" on="0"/>
        <pt x="236" y="448" on="1"/>
        <pt x="301" y="448" on="1"/>
        <pt x="269" y="289" on="0"/>
        <pt x="269" y="115" on="1"/>
        <pt x="269" y="79" on="1"/>
        <pt x="311" y="189" on="0"/>
        <pt x="368" y="407" on="0"/>
        <pt x="404" y="576" on="1"/>
        <pt x="477" y="576" on="1"/>
        <pt x="436" y="392" on="0"/>
        <pt x="355" y="133" on="0"/>
        <pt x="292" y="0" on="1"/>
        <pt x="230" y="0" on="1"/>
        <pt x="221" y="57" on="0"/>
        <pt x="221" y="114" on="1"/>
        <pt x="221" y="181" on="0"/>
        <pt x="233" y="262" on="1"/>
        <pt x="213" y="185" on="0"/>
        <pt x="167" y="59" on="0"/>
        <pt x="134" y="0" on="1"/>
        <pt x="68" y="0" on="1"/>
      </contour>
    </TTGlyph>
    <TTGlyph name="W.sups" xMin="163" yMin="320" xMax="428" yMax="640">
      <contour>
        <pt x="163" y="342" on="0"/>
        <pt x="163" y="386" on="1"/>
        <pt x="163" y="505" on="0"/>
        <pt x="187" y="640" on="1"/>
        <pt x="250" y="640" on="1"/>
        <pt x="235" y="562" on="0"/>
        <pt x="220" y="456" on="0"/>
        <pt x="217" y="405" on="1"/>
        <pt x="247" y="484" on="0"/>
        <pt x="263" y="557" on="1"/>
        <pt x="318" y="557" on="1"/>
        <pt x="304" y="471" on="0"/>
        <pt x="301" y="401" on="1"/>
        <pt x="319" y="453" on="0"/>
        <pt x="348" y="561" on="0"/>
        <pt x="365" y="640" on="1"/>
        <pt x="428" y="640" on="1"/>
        <pt x="408" y="546" on="0"/>
        <pt x="360" y="399" on="0"/>
        <pt x="324" y="320" on="1"/>
        <pt x="263" y="320" on="1"/>
        <pt x="260" y="365" on="0"/>
        <pt x="261" y="403" on="1"/>
        <pt x="242" y="352" on="0"/>
        <pt x="225" y="320" on="1"/>
        <pt x="164" y="320" on="1"/>
      </contour>
    </TTGlyph>
    <TTGlyph name="Wacute" xMin="65" yMin="0" xMax="490" yMax="832">
      <component glyphName="W" x="0" y="0" flags="0x400"/>
      <component glyphName="acutecomb.case" x="0" y="0" flags="0x400"/>
    </TTGlyph>
    <TTGlyph name="Wcircumflex" xMin="65" yMin="0" xMax="490" yMax="842">
      <component glyphName="W" x="0" y="0" flags="0x400"/>
      <component glyphName="uni0302.case" x="0" y="0" flags="0x400"/>
    </TTGlyph>
    <TTGlyph name="Wdieresis" xMin="65" yMin="0" xMax="490" yMax="816">
      <component glyphName="W" x="0" y="0" flags="0x400"/>
      <component glyphName="uni0308.case" x="0" y="0" flags="0x400"/>
    </TTGlyph>
    <TTGlyph name="Wgrave" xMin="65" yMin="0" xMax="490" yMax="832">
      <component glyphName="W" x="0" y="0" flags="0x400"/>
      <component glyphName="gravecomb.case" x="0" y="0" flags="0x400"/>
    </TTGlyph>
    <TTGlyph name="X" xMin="1" yMin="0" xMax="476" yMax="640">
      <contour>
        <pt x="39" y="98" on="0"/>
        <pt x="121" y="232" on="0"/>
        <pt x="190" y="305" on="1"/>
        <pt x="160" y="352" on="0"/>
        <pt x="133" y="456" on="0"/>
        <pt x="133" y="524" on="1"/>
        <pt x="133" y="580" on="0"/>
        <pt x="140" y="640" on="1"/>
        <pt x="211" y="640" on="1"/>
        <pt x="203" y="560" on="0"/>
        <pt x="203" y="513" on="1"/>
        <pt x="203" y="459" on="0"/>
        <pt x="222" y="380" on="0"/>
        <pt x="242" y="344" on="1"/>
        <pt x="300" y="394" on="0"/>
        <pt x="368" y="523" on="0"/>
        <pt x="403" y="640" on="1"/>
        <pt x="476" y="640" on="1"/>
        <pt x="440" y="516" on="0"/>
        <pt x="358" y="362" on="0"/>
        <pt x="289" y="296" on="1"/>
        <pt x="327" y="225" on="0"/>
        <pt x="356" y="93" on="0"/>
        <pt x="354" y="0" on="1"/>
        <pt x="282" y="0" on="1"/>
        <pt x="283" y="91" on="0"/>
        <pt x="263" y="200" on="0"/>
        <pt x="234" y="256" on="1"/>
        <pt x="180" y="201" on="0"/>
        <pt x="114" y="92" on="0"/>
        <pt x="77" y="0" on="1"/>
        <pt x="1" y="0" on="1"/>
      </contour>
    </TTGlyph>
    <TTGlyph name="X.sups" xMin="128" yMin="320" xMax="415" yMax="640">
      <contour>
        <pt x="148" y="370" on="0"/>
        <pt x="192" y="439" on="0"/>
        <pt x="228" y="473" on="1"/>
        <pt x="197" y="519" on="0"/>
        <pt x="197" y="584" on="1"/>
        <pt x="197" y="598" on="0"/>
        <pt x="201" y="640" on="1"/>
        <pt x="263" y="640" on="1"/>
        <pt x="260" y="607" on="0"/>
        <pt x="260" y="582" on="1"/>
        <pt x="260" y="535" on="0"/>
        <pt x="278" y="509" on="1"/>
        <pt x="303" y="531" on="0"/>
        <pt x="335" y="588" on="0"/>
        <pt x="350" y="640" on="1"/>
        <pt x="415" y="640" on="1"/>
        <pt x="396" y="577" on="0"/>
        <pt x="353" y="499" on="0"/>
        <pt x="317" y="466" on="1"/>
        <pt x="338" y="434" on="0"/>
        <pt x="355" y="368" on="0"/>
        <pt x="355" y="320" on="1"/>
        <pt x="291" y="320" on="1"/>
        <pt x="289" y="362" on="0"/>
        <pt x="279" y="409" on="0"/>
        <pt x="266" y="429" on="1"/>
        <pt x="242" y="407" on="0"/>
        <pt x="213" y="360" on="0"/>
        <pt x="196" y="320" on="1"/>
        <pt x="128" y="320" on="1"/>
      </contour>
    </TTGlyph>
    <TTGlyph name="Xi" xMin="5" yMin="0" xMax="476" yMax="640">
      <contour>
        <pt x="476" y="640" on="1"/>
        <pt x="463" y="576" on="1"/>
        <pt x="125" y="576" on="1"/>
        <pt x="138" y="640" on="1"/>
      </contour>
      <contour>
        <pt x="18" y="64" on="1"/>
        <pt x="366" y="64" on="1"/>
        <pt x="353" y="0" on="1"/>
        <pt x="5" y="0" on="1"/>
      </contour>
      <contour>
        <pt x="123" y="320" on="1"/>
        <pt x="363" y="320" on="1"/>
        <pt x="350" y="256" on="1"/>
        <pt x="110" y="256" on="1"/>
      </contour>
    </TTGlyph>
    <TTGlyph name="Y" xMin="115" yMin="0" xMax="496" yMax="640">
      <contour>
        <pt x="184" y="202" on="1"/>
        <pt x="149" y="268" on="0"/>
        <pt x="115" y="426" on="0"/>
        <pt x="115" y="526" on="1"/>
        <pt x="115" y="573" on="0"/>
        <pt x="120" y="640" on="1"/>
        <pt x="190" y="640" on="1"/>
        <pt x="185" y="567" on="0"/>
        <pt x="185" y="519" on="1"/>
        <pt x="185" y="445" on="0"/>
        <pt x="205" y="321" on="0"/>
        <pt x="228" y="256" on="1"/>
        <pt x="297" y="347" on="0"/>
        <pt x="384" y="520" on="0"/>
        <pt x="422" y="640" on="1"/>
        <pt x="496" y="640" on="1"/>
        <pt x="452" y="497" on="0"/>
        <pt x="335" y="285" on="0"/>
        <pt x="256" y="202" on="1"/>
        <pt x="215" y="0" on="1"/>
        <pt x="143" y="0" on="1"/>
      </contour>
    </TTGlyph>
    <TTGlyph name="Y.short" xMin="103" yMin="0" xMax="483" yMax="576">
      <contour>
        <pt x="178" y="170" on="1"/>
        <pt x="103" y="302" on="0"/>
        <pt x="103" y="483" on="1"/>
        <pt x="103" y="532" on="0"/>
        <pt x="107" y="576" on="1"/>
        <pt x="177" y="576" on="1"/>
        <pt x="173" y="529" on="0"/>
        <pt x="173" y="480" on="1"/>
        <pt x="173" y="407" on="0"/>
        <pt x="196" y="285" on="0"/>
        <pt x="222" y="220" on="1"/>
        <pt x="287" y="301" on="0"/>
        <pt x="369" y="460" on="0"/>
        <pt x="409" y="576" on="1"/>
        <pt x="483" y="576" on="1"/>
        <pt x="438" y="440" on="0"/>
        <pt x="327" y="245" on="0"/>
        <pt x="250" y="170" on="1"/>
        <pt x="215" y="0" on="1"/>
        <pt x="143" y="0" on="1"/>
      </contour>
    </TTGlyph>
    <TTGlyph name="Y.sups" xMin="176" yMin="313" xMax="416" yMax="640">
      <contour>
        <pt x="225" y="376" on="0"/>
        <pt x="276" y="408" on="0"/>
        <pt x="292" y="438" on="1"/>
        <pt x="235" y="447" on="0"/>
        <pt x="193" y="505" on="0"/>
        <pt x="193" y="562" on="1"/>
        <pt x="193" y="592" on="0"/>
        <pt x="198" y="640" on="1"/>
        <pt x="262" y="640" on="1"/>
        <pt x="256" y="592" on="0"/>
        <pt x="256" y="564" on="1"/>
        <pt x="256" y="527" on="0"/>
        <pt x="282" y="498" on="0"/>
        <pt x="316" y="493" on="1"/>
        <pt x="330" y="534" on="0"/>
        <pt x="351" y="640" on="1"/>
        <pt x="416" y="640" on="1"/>
        <pt x="397" y="544" on="0"/>
        <pt x="374" y="459" on="0"/>
        <pt x="358" y="424" on="1"/>
        <pt x="309" y="327" on="0"/>
        <pt x="180" y="313" on="1"/>
        <pt x="176" y="368" on="1"/>
      </contour>
    </TTGlyph>
    <TTGlyph name="Yacute" xMin="115" yMin="0" xMax="496" yMax="832">
      <component glyphName="Y" x="0" y="0" flags="0x400"/>
      <component glyphName="acutecomb.case" x="0" y="0" flags="0x400"/>
    </TTGlyph>
    <TTGlyph name="Ycircumflex" xMin="115" yMin="0" xMax="496" yMax="842">
      <component glyphName="Y" x="0" y="0" flags="0x400"/>
      <component glyphName="uni0302.case" x="0" y="0" flags="0x400"/>
    </TTGlyph>
    <TTGlyph name="Ydieresis" xMin="115" yMin="0" xMax="496" yMax="816">
      <component glyphName="Y" x="0" y="0" flags="0x400"/>
      <component glyphName="uni0308.case" x="0" y="0" flags="0x400"/>
    </TTGlyph>
    <TTGlyph name="Ygrave" xMin="115" yMin="0" xMax="496" yMax="832">
      <component glyphName="Y" x="0" y="0" flags="0x400"/>
      <component glyphName="gravecomb.case" x="0" y="0" flags="0x400"/>
    </TTGlyph>
    <TTGlyph name="Z" xMin="10" yMin="0" xMax="471" yMax="640">
      <contour>
        <pt x="20" y="52" on="1"/>
        <pt x="371" y="576" on="1"/>
        <pt x="137" y="576" on="1"/>
        <pt x="150" y="640" on="1"/>
        <pt x="471" y="640" on="1"/>
        <pt x="461" y="588" on="1"/>
        <pt x="462" y="588" on="1"/>
        <pt x="111" y="64" on="1"/>
        <pt x="356" y="64" on="1"/>
        <pt x="343" y="0" on="1"/>
        <pt x="10" y="0" on="1"/>
      </contour>
    </TTGlyph>
    <TTGlyph name="Z.sups" xMin="140" yMin="320" xMax="399" yMax="640">
      <contour>
        <pt x="150" y="368" on="1"/>
        <pt x="149" y="368" on="1"/>
        <pt x="313" y="586" on="1"/>
        <pt x="197" y="586" on="1"/>
        <pt x="208" y="640" on="1"/>
        <pt x="399" y="640" on="1"/>
        <pt x="389" y="592" on="1"/>
        <pt x="390" y="592" on="1"/>
        <pt x="227" y="374" on="1"/>
        <pt x="346" y="374" on="1"/>
        <pt x="335" y="320" on="1"/>
        <pt x="140" y="320" on="1"/>
      </contour>
    </TTGlyph>
    <TTGlyph name="Zacute" xMin="10" yMin="0" xMax="471" yMax="832">
      <component glyphName="Z" x="0" y="0" flags="0x400"/>
      <component glyphName="acutecomb.case" x="0" y="0" flags="0x400"/>
    </TTGlyph>
    <TTGlyph name="Zcaron" xMin="10" yMin="0" xMax="486" yMax="838">
      <component glyphName="Z" x="0" y="0" flags="0x400"/>
      <component glyphName="uni030C.case" x="0" y="0" flags="0x400"/>
    </TTGlyph>
    <TTGlyph name="Zdotaccent" xMin="10" yMin="0" xMax="471" yMax="842">
      <component glyphName="Z" x="0" y="0" flags="0x400"/>
      <component glyphName="uni0307" x="38" y="192" flags="0x404"/>
    </TTGlyph>
    <TTGlyph name="Zeta" xMin="10" yMin="0" xMax="471" yMax="640">
      <component glyphName="Z" x="0" y="0" flags="0x400"/>
    </TTGlyph>
    <TTGlyph name="_part.slash.O" xMin="-8" yMin="-16" xMax="495" yMax="656">
      <contour>
        <pt x="495" y="626" on="1"/>
        <pt x="46" y="-16" on="1"/>
        <pt x="-8" y="15" on="1"/>
        <pt x="440" y="656" on="1"/>
      </contour>
    </TTGlyph>
    <TTGlyph name="_part.slash.comp" xMin="68" yMin="148" xMax="398" yMax="390">
      <contour>
        <pt x="371" y="390" on="1"/>
        <pt x="398" y="338" on="1"/>
        <pt x="95" y="148" on="1"/>
        <pt x="68" y="200" on="1"/>
      </contour>
    </TTGlyph>
    <TTGlyph name="_part.slash.o" xMin="9" yMin="-26" xMax="440" yMax="474">
      <contour>
        <pt x="440" y="441" on="1"/>
        <pt x="60" y="-26" on="1"/>
        <pt x="9" y="9" on="1"/>
        <pt x="387" y="474" on="1"/>
      </contour>
    </TTGlyph>
    <TTGlyph name="a" xMin="27" yMin="-4" xMax="399" yMax="453">
      <contour>
        <pt x="326" y="316" on="0"/>
        <pt x="326" y="331" on="1"/>
        <pt x="326" y="363" on="0"/>
        <pt x="292" y="388" on="0"/>
        <pt x="254" y="388" on="1"/>
        <pt x="202" y="388" on="0"/>
        <pt x="124" y="360" on="1"/>
        <pt x="110" y="420" on="1"/>
        <pt x="191" y="453" on="0"/>
        <pt x="262" y="453" on="1"/>
        <pt x="399" y="453" on="0"/>
        <pt x="399" y="342" on="1"/>
        <pt x="399" y="324" on="0"/>
        <pt x="394" y="296" on="1"/>
        <pt x="348" y="64" on="1"/>
        <pt x="339" y="0" on="1"/>
        <pt x="273" y="0" on="1"/>
        <pt x="276" y="54" on="1"/>
        <pt x="244" y="25" on="0"/>
        <pt x="178" y="-4" on="0"/>
        <pt x="138" y="-4" on="1"/>
        <pt x="82" y="-4" on="0"/>
        <pt x="27" y="55" on="0"/>
        <pt x="27" y="100" on="1"/>
        <pt x="27" y="180" on="0"/>
        <pt x="180" y="264" on="0"/>
        <pt x="317" y="266" on="1"/>
        <pt x="321" y="288" on="1"/>
      </contour>
      <contour>
        <pt x="103" y="84" on="0"/>
        <pt x="128" y="60" on="0"/>
        <pt x="156" y="60" on="1"/>
        <pt x="194" y="60" on="0"/>
        <pt x="251" y="98" on="0"/>
        <pt x="293" y="145" on="1"/>
        <pt x="305" y="207" on="1"/>
        <pt x="103" y="201" on="0"/>
        <pt x="103" y="108" on="1"/>
      </contour>
    </TTGlyph>
    <TTGlyph name="aacute" xMin="27" yMin="-4" xMax="436" yMax="704">
      <component glyphName="a" x="0" y="0" flags="0x400"/>
      <component glyphName="acutecomb" x="0" y="0" flags="0x400"/>
    </TTGlyph>
    <TTGlyph name="abreve" xMin="27" yMin="-4" xMax="438" yMax="644">
      <component glyphName="a" x="0" y="0" flags="0x400"/>
      <component glyphName="uni0306" x="0" y="0" flags="0x400"/>
    </TTGlyph>
    <TTGlyph name="acircumflex" xMin="27" yMin="-4" xMax="419" yMax="650">
      <component glyphName="a" x="0" y="0" flags="0x400"/>
      <component glyphName="uni0302" x="0" y="0" flags="0x400"/>
    </TTGlyph>
    <TTGlyph name="acute" xMin="180" yMin="384" xMax="397" yMax="640">
      <contour>
        <pt x="180" y="384" on="1"/>
        <pt x="297" y="640" on="1"/>
        <pt x="397" y="640" on="1"/>
        <pt x="254" y="384" on="1"/>
      </contour>
    </TTGlyph>
    <TTGlyph name="acutecomb" xMin="250" yMin="512" xMax="436" yMax="704">
      <contour>
        <pt x="334" y="704" on="1"/>
        <pt x="436" y="704" on="1"/>
        <pt x="314" y="512" on="1"/>
        <pt x="250" y="512" on="1"/>
      </contour>
    </TTGlyph>
    <TTGlyph name="acutecomb.alt" xMin="250" yMin="512" xMax="426" yMax="650">
      <contour>
        <pt x="324" y="650" on="1"/>
        <pt x="426" y="650" on="1"/>
        <pt x="314" y="512" on="1"/>
        <pt x="250" y="512" on="1"/>
      </contour>
    </TTGlyph>
    <TTGlyph name="acutecomb.case" xMin="288" yMin="704" xMax="457" yMax="832">
      <contour>
        <pt x="355" y="832" on="1"/>
        <pt x="457" y="832" on="1"/>
        <pt x="352" y="704" on="1"/>
        <pt x="288" y="704" on="1"/>
      </contour>
    </TTGlyph>
    <TTGlyph name="adieresis" xMin="27" yMin="-4" xMax="440" yMax="648">
      <component glyphName="a" x="0" y="0" flags="0x400"/>
      <component glyphName="uni0308" x="0" y="0" flags="0x400"/>
    </TTGlyph>
    <TTGlyph name="ae" xMin="-37" yMin="-9" xMax="479" yMax="457">
      <contour>
        <pt x="220" y="-9" on="0"/>
        <pt x="191" y="46" on="1"/>
        <pt x="122" y="-8" on="0"/>
        <pt x="62" y="-8" on="1"/>
        <pt x="17" y="-8" on="0"/>
        <pt x="-37" y="44" on="0"/>
        <pt x="-37" y="97" on="1"/>
        <pt x="-37" y="176" on="0"/>
        <pt x="86" y="260" on="0"/>
        <pt x="192" y="264" on="1"/>
        <pt x="197" y="288" on="1"/>
        <pt x="203" y="317" on="0"/>
        <pt x="203" y="336" on="1"/>
        <pt x="203" y="364" on="0"/>
        <pt x="177" y="388" on="0"/>
        <pt x="148" y="388" on="1"/>
        <pt x="106" y="388" on="0"/>
        <pt x="50" y="367" on="1"/>
        <pt x="37" y="427" on="1"/>
        <pt x="104" y="453" on="0"/>
        <pt x="154" y="453" on="1"/>
        <pt x="195" y="453" on="0"/>
        <pt x="248" y="423" on="0"/>
        <pt x="256" y="394" on="1"/>
        <pt x="304" y="457" on="0"/>
        <pt x="371" y="457" on="1"/>
        <pt x="479" y="457" on="0"/>
        <pt x="479" y="337" on="1"/>
        <pt x="479" y="282" on="0"/>
        <pt x="457" y="202" on="1"/>
        <pt x="252" y="202" on="1"/>
        <pt x="244" y="152" on="0"/>
        <pt x="244" y="126" on="1"/>
        <pt x="244" y="87" on="0"/>
        <pt x="273" y="55" on="0"/>
        <pt x="305" y="55" on="1"/>
        <pt x="342" y="55" on="0"/>
        <pt x="396" y="73" on="1"/>
        <pt x="406" y="13" on="1"/>
        <pt x="352" y="-9" on="0"/>
        <pt x="298" y="-9" on="1"/>
      </contour>
      <contour>
        <pt x="37" y="80" on="0"/>
        <pt x="59" y="56" on="0"/>
        <pt x="79" y="56" on="1"/>
        <pt x="116" y="56" on="0"/>
        <pt x="172" y="102" on="1"/>
        <pt x="171" y="125" on="1"/>
        <pt x="171" y="163" on="0"/>
        <pt x="180" y="205" on="1"/>
        <pt x="115" y="199" on="0"/>
        <pt x="37" y="150" on="0"/>
        <pt x="37" y="103" on="1"/>
      </contour>
      <contour>
        <pt x="394" y="262" on="1"/>
        <pt x="403" y="312" on="0"/>
        <pt x="403" y="340" on="1"/>
        <pt x="403" y="368" on="0"/>
        <pt x="385" y="393" on="0"/>
        <pt x="365" y="393" on="1"/>
        <pt x="330" y="393" on="0"/>
        <pt x="282" y="331" on="0"/>
        <pt x="265" y="262" on="1"/>
      </contour>
    </TTGlyph>
    <TTGlyph name="aeacute" xMin="-37" yMin="-9" xMax="479" yMax="704">
      <component glyphName="ae" x="0" y="0" flags="0x400"/>
      <component glyphName="acutecomb" x="0" y="0" flags="0x400"/>
    </TTGlyph>
    <TTGlyph name="agrave" xMin="27" yMin="-4" xMax="399" yMax="704">
      <component glyphName="a" x="0" y="0" flags="0x400"/>
      <component glyphName="gravecomb" x="0" y="0" flags="0x400"/>
    </TTGlyph>
    <TTGlyph name="alpha" xMin="33" yMin="-8" xMax="424" yMax="456">
      <contour>
        <pt x="288" y="-6" on="0"/>
        <pt x="278" y="31" on="1"/>
        <pt x="235" y="-8" on="0"/>
        <pt x="172" y="-8" on="1"/>
        <pt x="110" y="-8" on="0"/>
        <pt x="75" y="27" on="1"/>
        <pt x="33" y="69" on="0"/>
        <pt x="33" y="157" on="1"/>
        <pt x="33" y="227" on="0"/>
        <pt x="78" y="359" on="0"/>
        <pt x="121" y="402" on="1"/>
        <pt x="175" y="456" on="0"/>
        <pt x="248" y="456" on="1"/>
        <pt x="319" y="456" on="0"/>
        <pt x="350" y="414" on="1"/>
        <pt x="362" y="448" on="1"/>
        <pt x="424" y="448" on="1"/>
        <pt x="409" y="384" on="1"/>
        <pt x="348" y="81" on="1"/>
        <pt x="347" y="78" on="0"/>
        <pt x="347" y="73" on="1"/>
        <pt x="347" y="58" on="0"/>
        <pt x="366" y="58" on="1"/>
        <pt x="377" y="58" on="0"/>
        <pt x="391" y="60" on="1"/>
        <pt x="387" y="-1" on="1"/>
        <pt x="366" y="-6" on="0"/>
        <pt x="338" y="-6" on="1"/>
      </contour>
      <contour>
        <pt x="108" y="97" on="0"/>
        <pt x="131" y="74" on="1"/>
        <pt x="149" y="56" on="0"/>
        <pt x="185" y="56" on="1"/>
        <pt x="242" y="56" on="0"/>
        <pt x="280" y="97" on="1"/>
        <pt x="332" y="360" on="1"/>
        <pt x="310" y="394" on="0"/>
        <pt x="258" y="394" on="1"/>
        <pt x="208" y="394" on="0"/>
        <pt x="172" y="358" on="1"/>
        <pt x="140" y="326" on="0"/>
        <pt x="108" y="216" on="0"/>
        <pt x="108" y="157" on="1"/>
      </contour>
    </TTGlyph>
    <TTGlyph name="alphatonos" xMin="33" yMin="-8" xMax="424" yMax="704">
      <component glyphName="alpha" x="0" y="0" flags="0x400"/>
      <component glyphName="tonos" x="0" y="0" flags="0x400"/>
    </TTGlyph>
    <TTGlyph name="amacron" xMin="27" yMin="-4" xMax="427" yMax="640">
      <component glyphName="a" x="0" y="0" flags="0x400"/>
      <component glyphName="uni0304" x="0" y="0" flags="0x400"/>
    </TTGlyph>
    <TTGlyph name="ampersand" xMin="16" yMin="-10" xMax="447" yMax="542">
      <contour>
        <pt x="305" y="478" on="0"/>
        <pt x="270" y="478" on="1"/>
        <pt x="211" y="478" on="0"/>
        <pt x="154" y="414" on="0"/>
        <pt x="154" y="373" on="1"/>
        <pt x="154" y="348" on="0"/>
        <pt x="194" y="320" on="0"/>
        <pt x="243" y="320" on="1"/>
        <pt x="447" y="320" on="1"/>
        <pt x="434" y="256" on="1"/>
        <pt x="375" y="256" on="1"/>
        <pt x="329" y="17" on="1"/>
        <pt x="289" y="4" on="0"/>
        <pt x="200" y="-10" on="0"/>
        <pt x="166" y="-10" on="1"/>
        <pt x="88" y="-10" on="0"/>
        <pt x="16" y="57" on="0"/>
        <pt x="16" y="112" on="1"/>
        <pt x="16" y="134" on="0"/>
        <pt x="20" y="151" on="1"/>
        <pt x="28" y="192" on="0"/>
        <pt x="84" y="266" on="0"/>
        <pt x="138" y="290" on="1"/>
        <pt x="84" y="317" on="0"/>
        <pt x="84" y="379" on="1"/>
        <pt x="84" y="393" on="0"/>
        <pt x="87" y="408" on="1"/>
        <pt x="99" y="468" on="0"/>
        <pt x="195" y="542" on="0"/>
        <pt x="274" y="542" on="1"/>
        <pt x="323" y="542" on="0"/>
        <pt x="379" y="528" on="1"/>
        <pt x="359" y="468" on="1"/>
      </contour>
      <contour>
        <pt x="88" y="128" on="0"/>
        <pt x="88" y="114" on="1"/>
        <pt x="88" y="54" on="0"/>
        <pt x="165" y="54" on="1"/>
        <pt x="213" y="54" on="0"/>
        <pt x="265" y="65" on="1"/>
        <pt x="303" y="256" on="1"/>
        <pt x="247" y="256" on="1"/>
        <pt x="175" y="256" on="0"/>
        <pt x="101" y="190" on="0"/>
        <pt x="91" y="141" on="1"/>
      </contour>
    </TTGlyph>
    <TTGlyph name="angle" xMin="32" yMin="64" xMax="370" yMax="522">
      <contour>
        <pt x="32" y="64" on="1"/>
        <pt x="44" y="128" on="1"/>
        <pt x="316" y="522" on="1"/>
        <pt x="370" y="494" on="1"/>
        <pt x="118" y="128" on="1"/>
        <pt x="365" y="128" on="1"/>
        <pt x="352" y="64" on="1"/>
      </contour>
    </TTGlyph>
    <TTGlyph name="anoteleia" xMin="193" yMin="330" xMax="323" yMax="458">
      <component glyphName="period" x="100" y="340" flags="0x404"/>
    </TTGlyph>
    <TTGlyph name="aogonek" xMin="27" yMin="-197" xMax="399" yMax="453">
      <component glyphName="a" x="0" y="0" flags="0x400"/>
      <component glyphName="uni0328" x="-3" y="0" flags="0x400"/>
    </TTGlyph>
    <TTGlyph name="approxequal" xMin="10" yMin="144" xMax="464" yMax="432">
      <contour>
        <pt x="269" y="144" on="0"/>
        <pt x="224" y="164" on="0"/>
        <pt x="199" y="182" on="1"/>
        <pt x="180" y="195" on="0"/>
        <pt x="153" y="208" on="0"/>
        <pt x="137" y="208" on="1"/>
        <pt x="92" y="208" on="0"/>
        <pt x="69" y="144" on="1"/>
        <pt x="10" y="155" on="1"/>
        <pt x="46" y="272" on="0"/>
        <pt x="140" y="272" on="1"/>
        <pt x="172" y="272" on="0"/>
        <pt x="216" y="253" on="0"/>
        <pt x="242" y="235" on="1"/>
        <pt x="264" y="221" on="0"/>
        <pt x="289" y="208" on="0"/>
        <pt x="305" y="208" on="1"/>
        <pt x="349" y="208" on="0"/>
        <pt x="372" y="272" on="1"/>
        <pt x="432" y="261" on="1"/>
        <pt x="396" y="144" on="0"/>
        <pt x="302" y="144" on="1"/>
      </contour>
      <contour>
        <pt x="78" y="432" on="0"/>
        <pt x="172" y="432" on="1"/>
        <pt x="204" y="432" on="0"/>
        <pt x="248" y="413" on="0"/>
        <pt x="274" y="395" on="1"/>
        <pt x="296" y="381" on="0"/>
        <pt x="321" y="368" on="0"/>
        <pt x="337" y="368" on="1"/>
        <pt x="381" y="368" on="0"/>
        <pt x="404" y="432" on="1"/>
        <pt x="464" y="421" on="1"/>
        <pt x="428" y="304" on="0"/>
        <pt x="334" y="304" on="1"/>
        <pt x="301" y="304" on="0"/>
        <pt x="256" y="324" on="0"/>
        <pt x="231" y="342" on="1"/>
        <pt x="212" y="355" on="0"/>
        <pt x="185" y="368" on="0"/>
        <pt x="169" y="368" on="1"/>
        <pt x="124" y="368" on="0"/>
        <pt x="101" y="304" on="1"/>
        <pt x="42" y="315" on="1"/>
      </contour>
    </TTGlyph>
    <TTGlyph name="aring" xMin="27" yMin="-4" xMax="402" yMax="697">
      <component glyphName="a" x="0" y="0" flags="0x400"/>
      <component glyphName="uni030A" x="0" y="0" flags="0x400"/>
    </TTGlyph>
    <TTGlyph name="aringacute" xMin="27" yMin="-4" xMax="471" yMax="874">
      <component glyphName="a" x="0" y="0" flags="0x400"/>
      <component glyphName="uni030A" x="0" y="0" flags="0x400"/>
      <component glyphName="acutecomb.alt" x="45" y="224" flags="0x404"/>
    </TTGlyph>
    <TTGlyph name="arrowboth" xMin="-10" yMin="118" xMax="458" yMax="458">
      <contour>
        <pt x="207" y="162" on="1"/>
        <pt x="169" y="118" on="1"/>
        <pt x="-10" y="266" on="1"/>
        <pt x="-10" y="310" on="1"/>
        <pt x="169" y="458" on="1"/>
        <pt x="207" y="414" on="1"/>
        <pt x="98" y="320" on="1"/>
        <pt x="350" y="320" on="1"/>
        <pt x="241" y="414" on="1"/>
        <pt x="279" y="458" on="1"/>
        <pt x="458" y="310" on="1"/>
        <pt x="458" y="266" on="1"/>
        <pt x="279" y="118" on="1"/>
        <pt x="241" y="162" on="1"/>
        <pt x="350" y="256" on="1"/>
        <pt x="98" y="256" on="1"/>
      </contour>
    </TTGlyph>
    <TTGlyph name="arrowdown" xMin="54" yMin="54" xMax="394" yMax="512">
      <contour>
        <pt x="256" y="162" on="1"/>
        <pt x="350" y="271" on="1"/>
        <pt x="394" y="233" on="1"/>
        <pt x="246" y="54" on="1"/>
        <pt x="202" y="54" on="1"/>
        <pt x="54" y="233" on="1"/>
        <pt x="98" y="271" on="1"/>
        <pt x="192" y="162" on="1"/>
        <pt x="192" y="512" on="1"/>
        <pt x="256" y="512" on="1"/>
      </contour>
    </TTGlyph>
    <TTGlyph name="arrowleft" xMin="-10" yMin="118" xMax="448" yMax="458">
      <contour>
        <pt x="98" y="256" on="1"/>
        <pt x="207" y="162" on="1"/>
        <pt x="169" y="118" on="1"/>
        <pt x="-10" y="266" on="1"/>
        <pt x="-10" y="310" on="1"/>
        <pt x="169" y="458" on="1"/>
        <pt x="207" y="414" on="1"/>
        <pt x="98" y="320" on="1"/>
        <pt x="448" y="320" on="1"/>
        <pt x="448" y="256" on="1"/>
      </contour>
    </TTGlyph>
    <TTGlyph name="arrowright" xMin="0" yMin="118" xMax="458" yMax="458">
      <contour>
        <pt x="350" y="320" on="1"/>
        <pt x="241" y="414" on="1"/>
        <pt x="279" y="458" on="1"/>
        <pt x="458" y="310" on="1"/>
        <pt x="458" y="266" on="1"/>
        <pt x="279" y="118" on="1"/>
        <pt x="241" y="162" on="1"/>
        <pt x="350" y="256" on="1"/>
        <pt x="0" y="256" on="1"/>
        <pt x="0" y="320" on="1"/>
      </contour>
    </TTGlyph>
    <TTGlyph name="arrowup" xMin="54" yMin="64" xMax="394" yMax="522">
      <contour>
        <pt x="192" y="414" on="1"/>
        <pt x="98" y="305" on="1"/>
        <pt x="54" y="343" on="1"/>
        <pt x="202" y="522" on="1"/>
        <pt x="246" y="522" on="1"/>
        <pt x="394" y="343" on="1"/>
        <pt x="350" y="305" on="1"/>
        <pt x="256" y="414" on="1"/>
        <pt x="256" y="64" on="1"/>
        <pt x="192" y="64" on="1"/>
      </contour>
    </TTGlyph>
    <TTGlyph name="arrowupdn" xMin="54" yMin="54" xMax="394" yMax="522">
      <contour>
        <pt x="98" y="305" on="1"/>
        <pt x="54" y="343" on="1"/>
        <pt x="202" y="522" on="1"/>
        <pt x="246" y="522" on="1"/>
        <pt x="394" y="343" on="1"/>
        <pt x="350" y="305" on="1"/>
        <pt x="256" y="414" on="1"/>
        <pt x="256" y="162" on="1"/>
        <pt x="350" y="271" on="1"/>
        <pt x="394" y="233" on="1"/>
        <pt x="246" y="54" on="1"/>
        <pt x="202" y="54" on="1"/>
        <pt x="54" y="233" on="1"/>
        <pt x="98" y="271" on="1"/>
        <pt x="192" y="162" on="1"/>
        <pt x="192" y="414" on="1"/>
      </contour>
    </TTGlyph>
    <TTGlyph name="arrowupdnbse" xMin="54" yMin="0" xMax="394" yMax="586">
      <contour>
        <pt x="64" y="64" on="1"/>
        <pt x="384" y="64" on="1"/>
        <pt x="384" y="0" on="1"/>
        <pt x="64" y="0" on="1"/>
      </contour>
      <contour>
        <pt x="98" y="335" on="1"/>
        <pt x="192" y="226" on="1"/>
        <pt x="192" y="478" on="1"/>
        <pt x="98" y="369" on="1"/>
        <pt x="54" y="407" on="1"/>
        <pt x="202" y="586" on="1"/>
        <pt x="246" y="586" on="1"/>
        <pt x="394" y="407" on="1"/>
        <pt x="350" y="369" on="1"/>
        <pt x="256" y="478" on="1"/>
        <pt x="256" y="226" on="1"/>
        <pt x="350" y="335" on="1"/>
        <pt x="394" y="297" on="1"/>
        <pt x="246" y="118" on="1"/>
        <pt x="202" y="118" on="1"/>
        <pt x="54" y="297" on="1"/>
      </contour>
    </TTGlyph>
    <TTGlyph name="asciicircum" xMin="41" yMin="192" xMax="393" yMax="566">
      <contour>
        <pt x="335" y="566" on="1"/>
        <pt x="393" y="192" on="1"/>
        <pt x="318" y="192" on="1"/>
        <pt x="278" y="489" on="1"/>
        <pt x="118" y="192" on="1"/>
        <pt x="41" y="192" on="1"/>
        <pt x="249" y="566" on="1"/>
      </contour>
    </TTGlyph>
    <TTGlyph name="asciitilde" xMin="-9" yMin="192" xMax="483" yMax="384">
      <contour>
        <pt x="272" y="192" on="0"/>
        <pt x="225" y="233" on="0"/>
        <pt x="205" y="270" on="1"/>
        <pt x="192" y="295" on="0"/>
        <pt x="168" y="320" on="0"/>
        <pt x="148" y="320" on="1"/>
        <pt x="113" y="320" on="0"/>
        <pt x="72" y="264" on="0"/>
        <pt x="54" y="200" on="1"/>
        <pt x="-9" y="211" on="1"/>
        <pt x="14" y="300" on="0"/>
        <pt x="87" y="384" on="0"/>
        <pt x="153" y="384" on="1"/>
        <pt x="187" y="384" on="0"/>
        <pt x="231" y="362" on="0"/>
        <pt x="255" y="331" on="0"/>
        <pt x="269" y="306" on="1"/>
        <pt x="282" y="280" on="0"/>
        <pt x="305" y="256" on="0"/>
        <pt x="325" y="256" on="1"/>
        <pt x="361" y="256" on="0"/>
        <pt x="400" y="312" on="0"/>
        <pt x="419" y="376" on="1"/>
        <pt x="483" y="366" on="1"/>
        <pt x="460" y="276" on="0"/>
        <pt x="386" y="192" on="0"/>
        <pt x="321" y="192" on="1"/>
      </contour>
    </TTGlyph>
    <TTGlyph name="asterisk" xMin="32" yMin="71" xMax="442" yMax="505">
      <contour>
        <pt x="282" y="279" on="1"/>
        <pt x="399" y="143" on="1"/>
        <pt x="342" y="99" on="1"/>
        <pt x="254" y="218" on="1"/>
        <pt x="230" y="71" on="1"/>
        <pt x="160" y="85" on="1"/>
        <pt x="195" y="230" on="1"/>
        <pt x="67" y="154" on="1"/>
        <pt x="32" y="217" on="1"/>
        <pt x="192" y="297" on="1"/>
        <pt x="75" y="433" on="1"/>
        <pt x="132" y="477" on="1"/>
        <pt x="220" y="358" on="1"/>
        <pt x="244" y="505" on="1"/>
        <pt x="314" y="491" on="1"/>
        <pt x="279" y="346" on="1"/>
        <pt x="407" y="422" on="1"/>
        <pt x="442" y="359" on="1"/>
      </contour>
    </TTGlyph>
    <TTGlyph name="at" xMin="28" yMin="-128" xMax="426" yMax="586">
      <contour>
        <pt x="329" y="64" on="0"/>
        <pt x="279" y="64" on="1"/>
        <pt x="224" y="64" on="0"/>
        <pt x="164" y="123" on="0"/>
        <pt x="164" y="178" on="1"/>
        <pt x="164" y="197" on="0"/>
        <pt x="169" y="225" on="1"/>
        <pt x="183" y="294" on="0"/>
        <pt x="269" y="376" on="0"/>
        <pt x="349" y="389" on="1"/>
        <pt x="357" y="431" on="0"/>
        <pt x="357" y="456" on="1"/>
        <pt x="357" y="490" on="0"/>
        <pt x="328" y="522" on="0"/>
        <pt x="296" y="522" on="1"/>
        <pt x="253" y="522" on="0"/>
        <pt x="190" y="461" on="0"/>
        <pt x="141" y="328" on="0"/>
        <pt x="119" y="217" on="1"/>
        <pt x="99" y="118" on="0"/>
        <pt x="99" y="53" on="1"/>
        <pt x="99" y="-10" on="0"/>
        <pt x="140" y="-64" on="0"/>
        <pt x="181" y="-64" on="1"/>
        <pt x="222" y="-64" on="0"/>
        <pt x="272" y="-48" on="1"/>
        <pt x="281" y="-109" on="1"/>
        <pt x="256" y="-118" on="0"/>
        <pt x="201" y="-128" on="0"/>
        <pt x="179" y="-128" on="1"/>
        <pt x="102" y="-128" on="0"/>
        <pt x="28" y="-39" on="0"/>
        <pt x="28" y="55" on="1"/>
        <pt x="28" y="127" on="0"/>
        <pt x="49" y="229" on="1"/>
        <pt x="86" y="413" on="0"/>
        <pt x="203" y="586" on="0"/>
        <pt x="300" y="586" on="1"/>
        <pt x="364" y="586" on="0"/>
        <pt x="426" y="513" on="0"/>
        <pt x="426" y="448" on="1"/>
        <pt x="426" y="414" on="0"/>
        <pt x="419" y="379" on="1"/>
        <pt x="360" y="73" on="1"/>
      </contour>
      <contour>
        <pt x="237" y="195" on="0"/>
        <pt x="237" y="176" on="1"/>
        <pt x="237" y="150" on="0"/>
        <pt x="263" y="126" on="0"/>
        <pt x="295" y="130" on="1"/>
        <pt x="336" y="324" on="1"/>
        <pt x="292" y="314" on="0"/>
        <pt x="251" y="262" on="0"/>
        <pt x="241" y="214" on="1"/>
      </contour>
    </TTGlyph>
    <TTGlyph name="atilde" xMin="27" yMin="-4" xMax="460" yMax="645">
      <component glyphName="a" x="0" y="0" flags="0x400"/>
      <component glyphName="tildecomb" x="0" y="0" flags="0x400"/>
    </TTGlyph>
    <TTGlyph name="b" xMin="13" yMin="-8" xMax="409" yMax="640">
      <contour>
        <pt x="28" y="64" on="1"/>
        <pt x="143" y="640" on="1"/>
        <pt x="215" y="640" on="1"/>
        <pt x="172" y="424" on="1"/>
        <pt x="213" y="456" on="0"/>
        <pt x="270" y="456" on="1"/>
        <pt x="332" y="456" on="0"/>
        <pt x="367" y="421" on="1"/>
        <pt x="409" y="379" on="0"/>
        <pt x="409" y="291" on="1"/>
        <pt x="409" y="221" on="0"/>
        <pt x="364" y="89" on="0"/>
        <pt x="321" y="46" on="1"/>
        <pt x="267" y="-8" on="0"/>
        <pt x="194" y="-8" on="1"/>
        <pt x="121" y="-8" on="0"/>
        <pt x="88" y="39" on="1"/>
        <pt x="75" y="0" on="1"/>
        <pt x="13" y="0" on="1"/>
      </contour>
      <contour>
        <pt x="128" y="54" on="0"/>
        <pt x="184" y="54" on="1"/>
        <pt x="234" y="54" on="0"/>
        <pt x="270" y="90" on="1"/>
        <pt x="302" y="122" on="0"/>
        <pt x="334" y="232" on="0"/>
        <pt x="334" y="291" on="1"/>
        <pt x="334" y="351" on="0"/>
        <pt x="311" y="374" on="1"/>
        <pt x="293" y="392" on="0"/>
        <pt x="257" y="392" on="1"/>
        <pt x="196" y="392" on="0"/>
        <pt x="156" y="344" on="1"/>
        <pt x="151" y="319" on="1"/>
        <pt x="107" y="94" on="1"/>
      </contour>
    </TTGlyph>
    <TTGlyph name="backslash" xMin="138" yMin="-69" xMax="348" yMax="710">
      <contour>
        <pt x="277" y="-69" on="1"/>
        <pt x="138" y="698" on="1"/>
        <pt x="209" y="710" on="1"/>
        <pt x="348" y="-57" on="1"/>
      </contour>
    </TTGlyph>
    <TTGlyph name="bar" xMin="130" yMin="-64" xMax="356" yMax="704">
      <contour>
        <pt x="130" y="-64" on="1"/>
        <pt x="284" y="704" on="1"/>
        <pt x="356" y="704" on="1"/>
        <pt x="202" y="-64" on="1"/>
      </contour>
    </TTGlyph>
    <TTGlyph name="beta" xMin="-23" yMin="-192" xMax="435" yMax="648">
      <contour>
        <pt x="127" y="560" on="0"/>
        <pt x="231" y="648" on="0"/>
        <pt x="303" y="648" on="1"/>
        <pt x="370" y="648" on="0"/>
        <pt x="435" y="578" on="0"/>
        <pt x="435" y="524" on="1"/>
        <pt x="435" y="503" on="0"/>
        <pt x="431" y="486" on="1"/>
        <pt x="422" y="440" on="0"/>
        <pt x="365" y="373" on="0"/>
        <pt x="320" y="355" on="1"/>
        <pt x="405" y="325" on="0"/>
        <pt x="405" y="229" on="1"/>
        <pt x="405" y="202" on="0"/>
        <pt x="399" y="173" on="1"/>
        <pt x="382" y="92" on="0"/>
        <pt x="279" y="-6" on="0"/>
        <pt x="196" y="-6" on="1"/>
        <pt x="134" y="-6" on="0"/>
        <pt x="94" y="31" on="1"/>
        <pt x="49" y="-192" on="1"/>
        <pt x="-23" y="-192" on="1"/>
        <pt x="111" y="480" on="1"/>
      </contour>
      <contour>
        <pt x="123" y="75" on="0"/>
        <pt x="166" y="57" on="0"/>
        <pt x="197" y="57" on="1"/>
        <pt x="250" y="57" on="0"/>
        <pt x="313" y="120" on="0"/>
        <pt x="326" y="185" on="1"/>
        <pt x="331" y="208" on="0"/>
        <pt x="331" y="234" on="1"/>
        <pt x="331" y="277" on="0"/>
        <pt x="282" y="321" on="0"/>
        <pt x="227" y="321" on="1"/>
        <pt x="201" y="321" on="1"/>
        <pt x="214" y="383" on="1"/>
        <pt x="234" y="383" on="1"/>
        <pt x="287" y="383" on="0"/>
        <pt x="348" y="440" on="0"/>
        <pt x="357" y="487" on="1"/>
        <pt x="361" y="503" on="0"/>
        <pt x="361" y="520" on="1"/>
        <pt x="361" y="584" on="0"/>
        <pt x="293" y="584" on="1"/>
        <pt x="250" y="584" on="0"/>
        <pt x="192" y="527" on="0"/>
        <pt x="182" y="473" on="1"/>
        <pt x="106" y="93" on="1"/>
      </contour>
    </TTGlyph>
    <TTGlyph name="block" xMin="-5" yMin="-197" xMax="453" yMax="837">
      <contour>
        <pt x="-5" y="-197" on="1"/>
        <pt x="-5" y="837" on="1"/>
        <pt x="453" y="837" on="1"/>
        <pt x="453" y="-197" on="1"/>
      </contour>
    </TTGlyph>
    <TTGlyph name="braceleft" xMin="97" yMin="-64" xMax="428" yMax="704">
      <contour>
        <pt x="200" y="-54" on="0"/>
        <pt x="120" y="-5" on="0"/>
        <pt x="120" y="48" on="1"/>
        <pt x="120" y="64" on="0"/>
        <pt x="123" y="80" on="1"/>
        <pt x="126" y="94" on="0"/>
        <pt x="138" y="129" on="1"/>
        <pt x="154" y="170" on="0"/>
        <pt x="159" y="198" on="1"/>
        <pt x="161" y="212" on="0"/>
        <pt x="161" y="218" on="1"/>
        <pt x="161" y="242" on="0"/>
        <pt x="130" y="270" on="0"/>
        <pt x="97" y="276" on="1"/>
        <pt x="110" y="364" on="1"/>
        <pt x="195" y="378" on="0"/>
        <pt x="210" y="454" on="1"/>
        <pt x="214" y="475" on="0"/>
        <pt x="216" y="514" on="1"/>
        <pt x="216" y="519" on="0"/>
        <pt x="218" y="554" on="0"/>
        <pt x="222" y="572" on="1"/>
        <pt x="235" y="638" on="0"/>
        <pt x="334" y="693" on="0"/>
        <pt x="424" y="704" on="1"/>
        <pt x="428" y="646" on="1"/>
        <pt x="356" y="633" on="0"/>
        <pt x="295" y="598" on="0"/>
        <pt x="287" y="560" on="1"/>
        <pt x="285" y="549" on="0"/>
        <pt x="283" y="521" on="0"/>
        <pt x="283" y="515" on="1"/>
        <pt x="283" y="476" on="0"/>
        <pt x="276" y="442" on="1"/>
        <pt x="265" y="387" on="0"/>
        <pt x="206" y="333" on="0"/>
        <pt x="153" y="318" on="1"/>
        <pt x="191" y="306" on="0"/>
        <pt x="229" y="264" on="0"/>
        <pt x="229" y="227" on="1"/>
        <pt x="229" y="211" on="0"/>
        <pt x="224" y="186" on="1"/>
        <pt x="219" y="162" on="0"/>
        <pt x="205" y="122" on="1"/>
        <pt x="192" y="84" on="0"/>
        <pt x="189" y="68" on="1"/>
        <pt x="187" y="56" on="0"/>
        <pt x="187" y="52" on="1"/>
        <pt x="187" y="28" on="0"/>
        <pt x="234" y="3" on="0"/>
        <pt x="293" y="-8" on="1"/>
        <pt x="276" y="-64" on="1"/>
      </contour>
    </TTGlyph>
    <TTGlyph name="braceright" xMin="58" yMin="-64" xMax="389" yMax="704">
      <contour>
        <pt x="130" y="7" on="0"/>
        <pt x="191" y="42" on="0"/>
        <pt x="199" y="80" on="1"/>
        <pt x="201" y="91" on="0"/>
        <pt x="203" y="119" on="0"/>
        <pt x="203" y="125" on="1"/>
        <pt x="203" y="164" on="0"/>
        <pt x="210" y="198" on="1"/>
        <pt x="221" y="253" on="0"/>
        <pt x="280" y="307" on="0"/>
        <pt x="333" y="322" on="1"/>
        <pt x="295" y="334" on="0"/>
        <pt x="257" y="376" on="0"/>
        <pt x="257" y="413" on="1"/>
        <pt x="257" y="429" on="0"/>
        <pt x="262" y="454" on="1"/>
        <pt x="267" y="478" on="0"/>
        <pt x="281" y="518" on="1"/>
        <pt x="294" y="556" on="0"/>
        <pt x="297" y="572" on="1"/>
        <pt x="299" y="584" on="0"/>
        <pt x="299" y="588" on="1"/>
        <pt x="299" y="612" on="0"/>
        <pt x="252" y="637" on="0"/>
        <pt x="193" y="648" on="1"/>
        <pt x="210" y="704" on="1"/>
        <pt x="286" y="694" on="0"/>
        <pt x="366" y="645" on="0"/>
        <pt x="366" y="592" on="1"/>
        <pt x="366" y="577" on="0"/>
        <pt x="363" y="560" on="1"/>
        <pt x="360" y="546" on="0"/>
        <pt x="348" y="511" on="1"/>
        <pt x="332" y="470" on="0"/>
        <pt x="327" y="442" on="1"/>
        <pt x="325" y="428" on="0"/>
        <pt x="325" y="422" on="1"/>
        <pt x="325" y="398" on="0"/>
        <pt x="356" y="370" on="0"/>
        <pt x="389" y="364" on="1"/>
        <pt x="376" y="276" on="1"/>
        <pt x="291" y="262" on="0"/>
        <pt x="276" y="186" on="1"/>
        <pt x="272" y="165" on="0"/>
        <pt x="270" y="126" on="1"/>
        <pt x="270" y="121" on="0"/>
        <pt x="268" y="86" on="0"/>
        <pt x="264" y="68" on="1"/>
        <pt x="251" y="2" on="0"/>
        <pt x="152" y="-53" on="0"/>
        <pt x="62" y="-64" on="1"/>
        <pt x="58" y="-6" on="1"/>
      </contour>
    </TTGlyph>
    <TTGlyph name="bracketleft" xMin="86" yMin="-64" xMax="436" yMax="704">
      <contour>
        <pt x="299" y="640" on="1"/>
        <pt x="171" y="0" on="1"/>
        <pt x="295" y="0" on="1"/>
        <pt x="282" y="-64" on="1"/>
        <pt x="86" y="-64" on="1"/>
        <pt x="240" y="704" on="1"/>
        <pt x="436" y="704" on="1"/>
        <pt x="423" y="640" on="1"/>
      </contour>
    </TTGlyph>
    <TTGlyph name="bracketright" xMin="50" yMin="-64" xMax="400" yMax="704">
      <contour>
        <pt x="50" y="-64" on="1"/>
        <pt x="63" y="0" on="1"/>
        <pt x="187" y="0" on="1"/>
        <pt x="315" y="640" on="1"/>
        <pt x="191" y="640" on="1"/>
        <pt x="204" y="704" on="1"/>
        <pt x="400" y="704" on="1"/>
        <pt x="246" y="-64" on="1"/>
      </contour>
    </TTGlyph>
    <TTGlyph name="breve" xMin="174" yMin="502" xMax="438" yMax="644">
      <component glyphName="uni0306" x="0" y="0" flags="0x400"/>
    </TTGlyph>
    <TTGlyph name="brokenbar" xMin="130" yMin="-64" xMax="356" yMax="704">
      <contour>
        <pt x="220" y="384" on="1"/>
        <pt x="284" y="704" on="1"/>
        <pt x="356" y="704" on="1"/>
        <pt x="292" y="384" on="1"/>
      </contour>
      <contour>
        <pt x="194" y="256" on="1"/>
        <pt x="266" y="256" on="1"/>
        <pt x="202" y="-64" on="1"/>
        <pt x="130" y="-64" on="1"/>
      </contour>
    </TTGlyph>
    <TTGlyph name="bullet" xMin="121" yMin="120" xMax="327" yMax="328">
      <contour>
        <pt x="279" y="328" on="0"/>
        <pt x="327" y="279" on="0"/>
        <pt x="327" y="241" on="1"/>
        <pt x="327" y="208" on="0"/>
        <pt x="294" y="153" on="0"/>
        <pt x="239" y="120" on="0"/>
        <pt x="208" y="120" on="1"/>
        <pt x="169" y="120" on="0"/>
        <pt x="121" y="169" on="0"/>
        <pt x="121" y="207" on="1"/>
        <pt x="121" y="240" on="0"/>
        <pt x="154" y="295" on="0"/>
        <pt x="209" y="328" on="0"/>
        <pt x="240" y="328" on="1"/>
      </contour>
    </TTGlyph>
    <TTGlyph name="c" xMin="42" yMin="-7" xMax="398" yMax="455">
      <contour>
        <pt x="330" y="391" on="0"/>
        <pt x="280" y="391" on="1"/>
        <pt x="213" y="391" on="0"/>
        <pt x="144" y="314" on="0"/>
        <pt x="125" y="218" on="1"/>
        <pt x="115" y="172" on="0"/>
        <pt x="115" y="137" on="1"/>
        <pt x="115" y="93" on="0"/>
        <pt x="157" y="57" on="0"/>
        <pt x="204" y="57" on="1"/>
        <pt x="251" y="57" on="0"/>
        <pt x="312" y="73" on="1"/>
        <pt x="318" y="11" on="1"/>
        <pt x="261" y="-7" on="0"/>
        <pt x="197" y="-7" on="1"/>
        <pt x="42" y="-7" on="0"/>
        <pt x="42" y="148" on="1"/>
        <pt x="42" y="187" on="0"/>
        <pt x="51" y="230" on="1"/>
        <pt x="96" y="455" on="0"/>
        <pt x="279" y="455" on="1"/>
        <pt x="344" y="455" on="0"/>
        <pt x="398" y="435" on="1"/>
        <pt x="378" y="377" on="1"/>
      </contour>
    </TTGlyph>
    <TTGlyph name="cacute" xMin="42" yMin="-7" xMax="452" yMax="704">
      <component glyphName="c" x="0" y="0" flags="0x400"/>
      <component glyphName="acutecomb" x="16" y="0" flags="0x400"/>
    </TTGlyph>
    <TTGlyph name="caron" xMin="170" yMin="507" xMax="448" yMax="646">
      <component glyphName="uni030C" x="0" y="0" flags="0x400"/>
    </TTGlyph>
    <TTGlyph name="carriagereturn" xMin="0" yMin="54" xMax="428" yMax="448">
      <contour>
        <pt x="217" y="98" on="1"/>
        <pt x="179" y="54" on="1"/>
        <pt x="0" y="202" on="1"/>
        <pt x="0" y="246" on="1"/>
        <pt x="179" y="394" on="1"/>
        <pt x="217" y="350" on="1"/>
        <pt x="108" y="256" on="1"/>
        <pt x="360" y="256" on="1"/>
        <pt x="360" y="448" on="1"/>
        <pt x="428" y="448" on="1"/>
        <pt x="428" y="192" on="1"/>
        <pt x="108" y="192" on="1"/>
      </contour>
    </TTGlyph>
    <TTGlyph name="ccaron" xMin="42" yMin="-7" xMax="464" yMax="646">
      <component glyphName="c" x="0" y="0" flags="0x400"/>
      <component glyphName="uni030C" x="16" y="0" flags="0x400"/>
    </TTGlyph>
    <TTGlyph name="ccedilla" xMin="11" yMin="-192" xMax="398" yMax="455">
      <component glyphName="c" x="0" y="0" flags="0x400"/>
      <component glyphName="uni0327" x="-36" y="0" flags="0x400"/>
    </TTGlyph>
    <TTGlyph name="ccircumflex" xMin="42" yMin="-7" xMax="435" yMax="650">
      <component glyphName="c" x="0" y="0" flags="0x400"/>
      <component glyphName="uni0302" x="16" y="0" flags="0x400"/>
    </TTGlyph>
    <TTGlyph name="cdotaccent" xMin="42" yMin="-7" xMax="398" yMax="650">
      <component glyphName="c" x="0" y="0" flags="0x400"/>
      <component glyphName="uni0307" x="16" y="0" flags="0x400"/>
    </TTGlyph>
    <TTGlyph name="cedilla" xMin="47" yMin="-192" xMax="279" yMax="13">
      <component glyphName="uni0327" x="0" y="0" flags="0x400"/>
    </TTGlyph>
    <TTGlyph name="cent" xMin="53" yMin="-64" xMax="409" yMax="640">
      <contour>
        <pt x="341" y="455" on="0"/>
        <pt x="291" y="455" on="1"/>
        <pt x="224" y="455" on="0"/>
        <pt x="155" y="378" on="0"/>
        <pt x="136" y="282" on="1"/>
        <pt x="126" y="236" on="0"/>
        <pt x="126" y="201" on="1"/>
        <pt x="126" y="157" on="0"/>
        <pt x="168" y="121" on="0"/>
        <pt x="215" y="121" on="1"/>
        <pt x="262" y="121" on="0"/>
        <pt x="323" y="137" on="1"/>
        <pt x="329" y="75" on="1"/>
        <pt x="277" y="59" on="0"/>
        <pt x="223" y="57" on="1"/>
        <pt x="199" y="-64" on="1"/>
        <pt x="135" y="-64" on="1"/>
        <pt x="160" y="61" on="1"/>
        <pt x="53" y="83" on="0"/>
        <pt x="53" y="212" on="1"/>
        <pt x="53" y="251" on="0"/>
        <pt x="62" y="294" on="1"/>
        <pt x="103" y="494" on="0"/>
        <pt x="250" y="516" on="1"/>
        <pt x="275" y="640" on="1"/>
        <pt x="339" y="640" on="1"/>
        <pt x="314" y="518" on="1"/>
        <pt x="366" y="515" on="0"/>
        <pt x="409" y="499" on="1"/>
        <pt x="389" y="441" on="1"/>
      </contour>
    </TTGlyph>
    <TTGlyph name="chi" xMin="-59" yMin="-192" xMax="445" yMax="448">
      <contour>
        <pt x="445" y="448" on="1"/>
        <pt x="248" y="154" on="1"/>
        <pt x="284" y="104" on="0"/>
        <pt x="316" y="-4" on="0"/>
        <pt x="316" y="-77" on="1"/>
        <pt x="316" y="-132" on="0"/>
        <pt x="309" y="-192" on="1"/>
        <pt x="238" y="-192" on="1"/>
        <pt x="246" y="-115" on="0"/>
        <pt x="246" y="-70" on="1"/>
        <pt x="246" y="-18" on="0"/>
        <pt x="227" y="59" on="0"/>
        <pt x="207" y="93" on="1"/>
        <pt x="16" y="-192" on="1"/>
        <pt x="-59" y="-192" on="1"/>
        <pt x="164" y="141" on="1"/>
        <pt x="123" y="213" on="0"/>
        <pt x="92" y="347" on="0"/>
        <pt x="94" y="448" on="1"/>
        <pt x="167" y="448" on="1"/>
        <pt x="165" y="363" on="0"/>
        <pt x="182" y="256" on="0"/>
        <pt x="207" y="205" on="1"/>
        <pt x="369" y="448" on="1"/>
      </contour>
    </TTGlyph>
    <TTGlyph name="circle" xMin="54" yMin="120" xMax="394" yMax="456">
      <contour>
        <pt x="177" y="120" on="0"/>
        <pt x="99" y="164" on="0"/>
        <pt x="54" y="241" on="0"/>
        <pt x="54" y="288" on="1"/>
        <pt x="54" y="335" on="0"/>
        <pt x="99" y="412" on="0"/>
        <pt x="177" y="456" on="0"/>
        <pt x="224" y="456" on="1"/>
        <pt x="271" y="456" on="0"/>
        <pt x="349" y="412" on="0"/>
        <pt x="394" y="335" on="0"/>
        <pt x="394" y="288" on="1"/>
        <pt x="394" y="241" on="0"/>
        <pt x="349" y="164" on="0"/>
        <pt x="271" y="120" on="0"/>
        <pt x="224" y="120" on="1"/>
      </contour>
      <contour>
        <pt x="124" y="244" on="0"/>
        <pt x="181" y="184" on="0"/>
        <pt x="224" y="184" on="1"/>
        <pt x="267" y="184" on="0"/>
        <pt x="324" y="244" on="0"/>
        <pt x="324" y="288" on="1"/>
        <pt x="324" y="332" on="0"/>
        <pt x="267" y="392" on="0"/>
        <pt x="224" y="392" on="1"/>
        <pt x="181" y="392" on="0"/>
        <pt x="124" y="332" on="0"/>
        <pt x="124" y="288" on="1"/>
      </contour>
    </TTGlyph>
    <TTGlyph name="circumflex" xMin="141" yMin="511" xMax="419" yMax="650">
      <component glyphName="uni0302" x="0" y="0" flags="0x400"/>
    </TTGlyph>
    <TTGlyph name="club" xMin="32" yMin="64" xMax="416" yMax="512">
      <contour>
        <pt x="416" y="384" on="1"/>
        <pt x="378" y="192" on="1"/>
        <pt x="314" y="192" on="1"/>
        <pt x="326" y="256" on="1"/>
        <pt x="262" y="256" on="1"/>
        <pt x="237" y="128" on="1"/>
        <pt x="365" y="128" on="1"/>
        <pt x="352" y="64" on="1"/>
        <pt x="32" y="64" on="1"/>
        <pt x="45" y="128" on="1"/>
        <pt x="173" y="128" on="1"/>
        <pt x="198" y="256" on="1"/>
        <pt x="134" y="256" on="1"/>
        <pt x="122" y="192" on="1"/>
        <pt x="58" y="192" on="1"/>
        <pt x="96" y="384" on="1"/>
        <pt x="160" y="384" on="1"/>
        <pt x="147" y="320" on="1"/>
        <pt x="211" y="320" on="1"/>
        <pt x="237" y="448" on="1"/>
        <pt x="173" y="448" on="1"/>
        <pt x="186" y="512" on="1"/>
        <pt x="378" y="512" on="1"/>
        <pt x="365" y="448" on="1"/>
        <pt x="301" y="448" on="1"/>
        <pt x="275" y="320" on="1"/>
        <pt x="339" y="320" on="1"/>
        <pt x="352" y="384" on="1"/>
      </contour>
    </TTGlyph>
    <TTGlyph name="colon" xMin="93" yMin="-10" xMax="291" yMax="458">
      <contour>
        <pt x="125" y="-10" on="0"/>
        <pt x="93" y="18" on="0"/>
        <pt x="93" y="43" on="1"/>
        <pt x="93" y="78" on="0"/>
        <pt x="136" y="118" on="0"/>
        <pt x="166" y="118" on="1"/>
        <pt x="191" y="118" on="0"/>
        <pt x="223" y="89" on="0"/>
        <pt x="223" y="64" on="1"/>
        <pt x="223" y="29" on="0"/>
        <pt x="180" y="-10" on="0"/>
        <pt x="150" y="-10" on="1"/>
      </contour>
      <contour>
        <pt x="161" y="418" on="0"/>
        <pt x="204" y="458" on="0"/>
        <pt x="234" y="458" on="1"/>
        <pt x="259" y="458" on="0"/>
        <pt x="291" y="429" on="0"/>
        <pt x="291" y="404" on="1"/>
        <pt x="291" y="369" on="0"/>
        <pt x="248" y="330" on="0"/>
        <pt x="218" y="330" on="1"/>
        <pt x="193" y="330" on="0"/>
        <pt x="161" y="358" on="0"/>
        <pt x="161" y="383" on="1"/>
      </contour>
    </TTGlyph>
    <TTGlyph name="colon.alt" xMin="138" yMin="54" xMax="336" yMax="522">
      <component glyphName="colon" x="45" y="64" flags="0x404"/>
    </TTGlyph>
    <TTGlyph name="colonmonetary" xMin="58" yMin="-128" xMax="457" yMax="704">
      <contour>
        <pt x="115" y="18" on="1"/>
        <pt x="58" y="55" on="0"/>
        <pt x="58" y="157" on="1"/>
        <pt x="58" y="216" on="0"/>
        <pt x="74" y="293" on="1"/>
        <pt x="100" y="426" on="0"/>
        <pt x="189" y="557" on="0"/>
        <pt x="266" y="575" on="1"/>
        <pt x="301" y="704" on="1"/>
        <pt x="357" y="704" on="1"/>
        <pt x="324" y="583" on="1"/>
        <pt x="341" y="583" on="1"/>
        <pt x="359" y="583" on="0"/>
        <pt x="368" y="582" on="1"/>
        <pt x="401" y="704" on="1"/>
        <pt x="457" y="704" on="1"/>
        <pt x="422" y="575" on="1"/>
        <pt x="432" y="574" on="0"/>
        <pt x="445" y="570" on="1"/>
        <pt x="424" y="511" on="1"/>
        <pt x="406" y="514" on="1"/>
        <pt x="282" y="58" on="1"/>
        <pt x="309" y="61" on="0"/>
        <pt x="335" y="67" on="1"/>
        <pt x="342" y="4" on="1"/>
        <pt x="307" y="-5" on="0"/>
        <pt x="264" y="-8" on="1"/>
        <pt x="232" y="-128" on="1"/>
        <pt x="176" y="-128" on="1"/>
        <pt x="208" y="-8" on="1"/>
        <pt x="179" y="-6" on="0"/>
        <pt x="166" y="-3" on="1"/>
        <pt x="132" y="-128" on="1"/>
        <pt x="76" y="-128" on="1"/>
      </contour>
      <contour>
        <pt x="245" y="497" on="1"/>
        <pt x="208" y="475" on="0"/>
        <pt x="168" y="377" on="0"/>
        <pt x="149" y="281" on="1"/>
        <pt x="130" y="183" on="0"/>
        <pt x="130" y="144" on="1"/>
        <pt x="130" y="116" on="0"/>
        <pt x="137" y="99" on="1"/>
      </contour>
      <contour>
        <pt x="199" y="57" on="0"/>
        <pt x="226" y="55" on="1"/>
        <pt x="351" y="519" on="1"/>
        <pt x="344" y="519" on="1"/>
        <pt x="330" y="519" on="0"/>
        <pt x="306" y="517" on="1"/>
        <pt x="183" y="62" on="1"/>
      </contour>
    </TTGlyph>
    <TTGlyph name="comma" xMin="70" yMin="-135" xMax="222" yMax="118">
      <contour>
        <pt x="97" y="-68" on="0"/>
        <pt x="134" y="-30" on="0"/>
        <pt x="145" y="-7" on="1"/>
        <pt x="121" y="-8" on="0"/>
        <pt x="93" y="20" on="0"/>
        <pt x="93" y="43" on="1"/>
        <pt x="93" y="77" on="0"/>
        <pt x="135" y="118" on="0"/>
        <pt x="164" y="118" on="1"/>
        <pt x="190" y="118" on="0"/>
        <pt x="222" y="88" on="0"/>
        <pt x="222" y="57" on="1"/>
        <pt x="222" y="50" on="0"/>
        <pt x="218" y="26" on="1"/>
        <pt x="209" y="-21" on="0"/>
        <pt x="147" y="-103" on="0"/>
        <pt x="103" y="-135" on="1"/>
        <pt x="70" y="-89" on="1"/>
      </contour>
    </TTGlyph>
    <TTGlyph name="copyright" xMin="9" yMin="11" xMax="452" yMax="501">
      <contour>
        <pt x="138" y="11" on="0"/>
        <pt x="57" y="54" on="0"/>
        <pt x="9" y="137" on="0"/>
        <pt x="9" y="196" on="1"/>
        <pt x="9" y="228" on="0"/>
        <pt x="16" y="262" on="1"/>
        <pt x="31" y="339" on="0"/>
        <pt x="112" y="447" on="0"/>
        <pt x="219" y="501" on="0"/>
        <pt x="274" y="501" on="1"/>
        <pt x="323" y="501" on="0"/>
        <pt x="404" y="459" on="0"/>
        <pt x="452" y="376" on="0"/>
        <pt x="452" y="316" on="1"/>
        <pt x="452" y="284" on="0"/>
        <pt x="445" y="250" on="1"/>
        <pt x="430" y="174" on="0"/>
        <pt x="349" y="65" on="0"/>
        <pt x="241" y="11" on="0"/>
        <pt x="186" y="11" on="1"/>
      </contour>
      <contour>
        <pt x="59" y="219" on="0"/>
        <pt x="59" y="191" on="1"/>
        <pt x="59" y="127" on="0"/>
        <pt x="126" y="59" on="0"/>
        <pt x="186" y="59" on="1"/>
        <pt x="262" y="59" on="0"/>
        <pt x="376" y="165" on="0"/>
        <pt x="396" y="262" on="1"/>
        <pt x="402" y="294" on="0"/>
        <pt x="402" y="321" on="1"/>
        <pt x="402" y="385" on="0"/>
        <pt x="335" y="453" on="0"/>
        <pt x="275" y="453" on="1"/>
        <pt x="198" y="453" on="0"/>
        <pt x="85" y="347" on="0"/>
        <pt x="65" y="250" on="1"/>
      </contour>
      <contour>
        <pt x="132" y="324" on="0"/>
        <pt x="203" y="397" on="0"/>
        <pt x="264" y="397" on="1"/>
        <pt x="305" y="397" on="0"/>
        <pt x="344" y="380" on="1"/>
        <pt x="324" y="340" on="1"/>
        <pt x="299" y="351" on="0"/>
        <pt x="267" y="351" on="1"/>
        <pt x="228" y="351" on="0"/>
        <pt x="184" y="306" on="0"/>
        <pt x="174" y="253" on="1"/>
        <pt x="169" y="226" on="0"/>
        <pt x="169" y="213" on="1"/>
        <pt x="169" y="188" on="0"/>
        <pt x="193" y="166" on="0"/>
        <pt x="220" y="166" on="1"/>
        <pt x="248" y="166" on="0"/>
        <pt x="289" y="178" on="1"/>
        <pt x="299" y="135" on="1"/>
        <pt x="255" y="120" on="0"/>
        <pt x="218" y="120" on="1"/>
        <pt x="165" y="120" on="0"/>
        <pt x="115" y="174" on="0"/>
        <pt x="115" y="220" on="1"/>
        <pt x="115" y="239" on="0"/>
        <pt x="120" y="264" on="1"/>
      </contour>
    </TTGlyph>
    <TTGlyph name="currency" xMin="17" yMin="57" xMax="457" yMax="519">
      <contour>
        <pt x="311" y="464" on="0"/>
        <pt x="344" y="446" on="1"/>
        <pt x="410" y="519" on="1"/>
        <pt x="457" y="481" on="1"/>
        <pt x="389" y="408" on="1"/>
        <pt x="418" y="371" on="0"/>
        <pt x="418" y="319" on="1"/>
        <pt x="418" y="299" on="0"/>
        <pt x="414" y="282" on="1"/>
        <pt x="407" y="247" on="0"/>
        <pt x="369" y="186" on="0"/>
        <pt x="341" y="163" on="1"/>
        <pt x="379" y="95" on="1"/>
        <pt x="321" y="57" on="1"/>
        <pt x="283" y="127" on="1"/>
        <pt x="247" y="112" on="0"/>
        <pt x="207" y="112" on="1"/>
        <pt x="163" y="112" on="0"/>
        <pt x="130" y="130" on="1"/>
        <pt x="63" y="57" on="1"/>
        <pt x="17" y="95" on="1"/>
        <pt x="84" y="168" on="1"/>
        <pt x="56" y="205" on="0"/>
        <pt x="56" y="257" on="1"/>
        <pt x="56" y="277" on="0"/>
        <pt x="60" y="294" on="1"/>
        <pt x="67" y="329" on="0"/>
        <pt x="104" y="390" on="0"/>
        <pt x="132" y="413" on="1"/>
        <pt x="95" y="481" on="1"/>
        <pt x="152" y="519" on="1"/>
        <pt x="190" y="449" on="1"/>
        <pt x="226" y="464" on="0"/>
        <pt x="267" y="464" on="1"/>
      </contour>
      <contour>
        <pt x="124" y="274" on="0"/>
        <pt x="124" y="259" on="1"/>
        <pt x="124" y="223" on="0"/>
        <pt x="171" y="176" on="0"/>
        <pt x="209" y="176" on="1"/>
        <pt x="258" y="176" on="0"/>
        <pt x="338" y="245" on="0"/>
        <pt x="348" y="294" on="1"/>
        <pt x="350" y="302" on="0"/>
        <pt x="350" y="317" on="1"/>
        <pt x="350" y="354" on="0"/>
        <pt x="303" y="400" on="0"/>
        <pt x="264" y="400" on="1"/>
        <pt x="216" y="400" on="0"/>
        <pt x="136" y="331" on="0"/>
        <pt x="126" y="282" on="1"/>
      </contour>
    </TTGlyph>
    <TTGlyph name="d" xMin="36" yMin="-8" xMax="471" yMax="640">
      <contour>
        <pt x="287" y="36" on="1"/>
        <pt x="241" y="-8" on="0"/>
        <pt x="175" y="-8" on="1"/>
        <pt x="113" y="-8" on="0"/>
        <pt x="78" y="27" on="1"/>
        <pt x="36" y="69" on="0"/>
        <pt x="36" y="157" on="1"/>
        <pt x="36" y="227" on="0"/>
        <pt x="81" y="359" on="0"/>
        <pt x="124" y="402" on="1"/>
        <pt x="178" y="456" on="0"/>
        <pt x="251" y="456" on="1"/>
        <pt x="322" y="456" on="0"/>
        <pt x="354" y="413" on="1"/>
        <pt x="399" y="640" on="1"/>
        <pt x="471" y="640" on="1"/>
        <pt x="356" y="64" on="1"/>
        <pt x="345" y="0" on="1"/>
        <pt x="284" y="0" on="1"/>
      </contour>
      <contour>
        <pt x="111" y="97" on="0"/>
        <pt x="134" y="74" on="1"/>
        <pt x="152" y="56" on="0"/>
        <pt x="188" y="56" on="1"/>
        <pt x="252" y="56" on="0"/>
        <pt x="294" y="109" on="1"/>
        <pt x="341" y="348" on="1"/>
        <pt x="322" y="394" on="0"/>
        <pt x="261" y="394" on="1"/>
        <pt x="211" y="394" on="0"/>
        <pt x="175" y="358" on="1"/>
        <pt x="143" y="326" on="0"/>
        <pt x="111" y="216" on="0"/>
        <pt x="111" y="157" on="1"/>
      </contour>
    </TTGlyph>
    <TTGlyph name="dagger" xMin="98" yMin="0" xMax="431" yMax="640">
      <contour>
        <pt x="305" y="458" on="1"/>
        <pt x="431" y="458" on="1"/>
        <pt x="418" y="394" on="1"/>
        <pt x="292" y="394" on="1"/>
        <pt x="213" y="0" on="1"/>
        <pt x="145" y="0" on="1"/>
        <pt x="224" y="394" on="1"/>
        <pt x="98" y="394" on="1"/>
        <pt x="111" y="458" on="1"/>
        <pt x="237" y="458" on="1"/>
        <pt x="273" y="640" on="1"/>
        <pt x="341" y="640" on="1"/>
      </contour>
    </TTGlyph>
    <TTGlyph name="daggerdbl" xMin="56" yMin="0" xMax="431" yMax="640">
      <contour>
        <pt x="305" y="458" on="1"/>
        <pt x="431" y="458" on="1"/>
        <pt x="418" y="394" on="1"/>
        <pt x="292" y="394" on="1"/>
        <pt x="262" y="246" on="1"/>
        <pt x="388" y="246" on="1"/>
        <pt x="376" y="182" on="1"/>
        <pt x="250" y="182" on="1"/>
        <pt x="213" y="0" on="1"/>
        <pt x="145" y="0" on="1"/>
        <pt x="182" y="182" on="1"/>
        <pt x="56" y="182" on="1"/>
        <pt x="68" y="246" on="1"/>
        <pt x="194" y="246" on="1"/>
        <pt x="224" y="394" on="1"/>
        <pt x="98" y="394" on="1"/>
        <pt x="111" y="458" on="1"/>
        <pt x="237" y="458" on="1"/>
        <pt x="273" y="640" on="1"/>
        <pt x="341" y="640" on="1"/>
      </contour>
    </TTGlyph>
    <TTGlyph name="dcaron" xMin="6" yMin="-8" xMax="564" yMax="640">
      <component glyphName="d" x="-30" y="0" flags="0x400"/>
      <component glyphName="uni030C.alt" x="44" y="0" flags="0x400"/>
    </TTGlyph>
    <TTGlyph name="dcroat" xMin="36" yMin="-8" xMax="506" yMax="640">
      <component glyphName="d" x="0" y="0" flags="0x400"/>
      <component glyphName="uni0335" x="148" y="310" flags="0x404"/>
    </TTGlyph>
    <TTGlyph name="degree" xMin="175" yMin="377" xMax="452" yMax="647">
      <contour>
        <pt x="389" y="647" on="0"/>
        <pt x="452" y="584" on="0"/>
        <pt x="452" y="536" on="1"/>
        <pt x="452" y="495" on="0"/>
        <pt x="409" y="421" on="0"/>
        <pt x="335" y="377" on="0"/>
        <pt x="292" y="377" on="1"/>
        <pt x="238" y="377" on="0"/>
        <pt x="175" y="441" on="0"/>
        <pt x="175" y="490" on="1"/>
        <pt x="175" y="530" on="0"/>
        <pt x="219" y="603" on="0"/>
        <pt x="293" y="647" on="0"/>
        <pt x="336" y="647" on="1"/>
      </contour>
      <contour>
        <pt x="236" y="494" on="0"/>
        <pt x="236" y="487" on="1"/>
        <pt x="236" y="464" on="0"/>
        <pt x="263" y="433" on="0"/>
        <pt x="293" y="433" on="1"/>
        <pt x="325" y="433" on="0"/>
        <pt x="369" y="467" on="0"/>
        <pt x="391" y="515" on="0"/>
        <pt x="391" y="536" on="1"/>
        <pt x="391" y="559" on="0"/>
        <pt x="364" y="591" on="0"/>
        <pt x="334" y="591" on="1"/>
        <pt x="294" y="591" on="0"/>
        <pt x="244" y="538" on="0"/>
        <pt x="238" y="506" on="1"/>
      </contour>
    </TTGlyph>
    <TTGlyph name="delta" xMin="36" yMin="-13" xMax="464" yMax="642">
      <contour>
        <pt x="112" y="-13" on="0"/>
        <pt x="36" y="67" on="0"/>
        <pt x="36" y="133" on="1"/>
        <pt x="36" y="153" on="0"/>
        <pt x="41" y="180" on="1"/>
        <pt x="55" y="251" on="0"/>
        <pt x="148" y="363" on="0"/>
        <pt x="218" y="399" on="1"/>
        <pt x="196" y="419" on="0"/>
        <pt x="173" y="461" on="0"/>
        <pt x="173" y="489" on="1"/>
        <pt x="173" y="503" on="0"/>
        <pt x="176" y="519" on="1"/>
        <pt x="188" y="576" on="0"/>
        <pt x="281" y="642" on="0"/>
        <pt x="359" y="642" on="1"/>
        <pt x="403" y="642" on="0"/>
        <pt x="464" y="635" on="1"/>
        <pt x="450" y="573" on="1"/>
        <pt x="388" y="578" on="0"/>
        <pt x="351" y="578" on="1"/>
        <pt x="309" y="578" on="0"/>
        <pt x="256" y="542" on="0"/>
        <pt x="249" y="511" on="1"/>
        <pt x="248" y="506" on="0"/>
        <pt x="248" y="497" on="1"/>
        <pt x="248" y="477" on="0"/>
        <pt x="260" y="462" on="1"/>
        <pt x="264" y="457" on="0"/>
        <pt x="294" y="429" on="1"/>
        <pt x="334" y="391" on="0"/>
        <pt x="347" y="376" on="1"/>
        <pt x="396" y="314" on="0"/>
        <pt x="396" y="240" on="1"/>
        <pt x="396" y="212" on="0"/>
        <pt x="391" y="189" on="1"/>
        <pt x="372" y="96" on="0"/>
        <pt x="256" y="-13" on="0"/>
        <pt x="176" y="-13" on="1"/>
      </contour>
      <contour>
        <pt x="110" y="146" on="0"/>
        <pt x="110" y="130" on="1"/>
        <pt x="110" y="92" on="0"/>
        <pt x="147" y="51" on="0"/>
        <pt x="184" y="51" on="1"/>
        <pt x="235" y="51" on="0"/>
        <pt x="305" y="125" on="0"/>
        <pt x="318" y="195" on="1"/>
        <pt x="323" y="223" on="0"/>
        <pt x="323" y="240" on="1"/>
        <pt x="323" y="279" on="0"/>
        <pt x="294" y="333" on="0"/>
        <pt x="268" y="356" on="1"/>
        <pt x="195" y="319" on="0"/>
        <pt x="127" y="233" on="0"/>
        <pt x="115" y="173" on="1"/>
      </contour>
    </TTGlyph>
    <TTGlyph name="diamond" xMin="71" yMin="80" xMax="395" yMax="456">
      <contour>
        <pt x="247" y="456" on="1"/>
        <pt x="291" y="456" on="1"/>
        <pt x="395" y="284" on="1"/>
        <pt x="390" y="252" on="1"/>
        <pt x="218" y="80" on="1"/>
        <pt x="174" y="80" on="1"/>
        <pt x="71" y="252" on="1"/>
        <pt x="75" y="284" on="1"/>
      </contour>
    </TTGlyph>
    <TTGlyph name="dieresis" xMin="155" yMin="534" xMax="440" yMax="648">
      <component glyphName="uni0308" x="0" y="0" flags="0x400"/>
    </TTGlyph>
    <TTGlyph name="dieresistonos" xMin="110" yMin="512" xMax="484" yMax="704">
      <contour>
        <pt x="372" y="704" on="1"/>
        <pt x="303" y="512" on="1"/>
        <pt x="239" y="512" on="1"/>
        <pt x="288" y="704" on="1"/>
      </contour>
      <contour>
        <pt x="117" y="621" on="0"/>
        <pt x="151" y="648" on="0"/>
        <pt x="173" y="648" on="1"/>
        <pt x="192" y="648" on="0"/>
        <pt x="218" y="622" on="0"/>
        <pt x="218" y="601" on="1"/>
        <pt x="218" y="593" on="0"/>
        <pt x="217" y="588" on="1"/>
        <pt x="211" y="561" on="0"/>
        <pt x="177" y="534" on="0"/>
        <pt x="155" y="534" on="1"/>
        <pt x="136" y="534" on="0"/>
        <pt x="110" y="558" on="0"/>
        <pt x="110" y="579" on="1"/>
        <pt x="110" y="584" on="0"/>
        <pt x="112" y="594" on="1"/>
      </contour>
      <contour>
        <pt x="383" y="621" on="0"/>
        <pt x="417" y="648" on="0"/>
        <pt x="439" y="648" on="1"/>
        <pt x="458" y="648" on="0"/>
        <pt x="484" y="622" on="0"/>
        <pt x="484" y="601" on="1"/>
        <pt x="484" y="593" on="0"/>
        <pt x="483" y="588" on="1"/>
        <pt x="477" y="561" on="0"/>
        <pt x="443" y="534" on="0"/>
        <pt x="421" y="534" on="1"/>
        <pt x="402" y="534" on="0"/>
        <pt x="376" y="558" on="0"/>
        <pt x="376" y="579" on="1"/>
        <pt x="376" y="584" on="0"/>
        <pt x="378" y="594" on="1"/>
      </contour>
    </TTGlyph>
    <TTGlyph name="divide" xMin="30" yMin="62" xMax="443" yMax="514">
      <contour>
        <pt x="43" y="320" on="1"/>
        <pt x="443" y="320" on="1"/>
        <pt x="430" y="256" on="1"/>
        <pt x="30" y="256" on="1"/>
      </contour>
      <contour>
        <pt x="140" y="150" on="0"/>
        <pt x="182" y="190" on="0"/>
        <pt x="212" y="190" on="1"/>
        <pt x="237" y="190" on="0"/>
        <pt x="269" y="162" on="0"/>
        <pt x="269" y="137" on="1"/>
        <pt x="269" y="101" on="0"/>
        <pt x="226" y="62" on="0"/>
        <pt x="197" y="62" on="1"/>
        <pt x="172" y="62" on="0"/>
        <pt x="140" y="90" on="0"/>
        <pt x="140" y="115" on="1"/>
      </contour>
      <contour>
        <pt x="204" y="474" on="0"/>
        <pt x="247" y="514" on="0"/>
        <pt x="277" y="514" on="1"/>
        <pt x="302" y="514" on="0"/>
        <pt x="334" y="485" on="0"/>
        <pt x="334" y="460" on="1"/>
        <pt x="334" y="425" on="0"/>
        <pt x="291" y="386" on="0"/>
        <pt x="261" y="386" on="1"/>
        <pt x="236" y="386" on="0"/>
        <pt x="204" y="414" on="0"/>
        <pt x="204" y="439" on="1"/>
      </contour>
    </TTGlyph>
    <TTGlyph name="dkshade" xMin="0" yMin="-192" xMax="384" yMax="832">
      <contour>
        <pt x="64" y="-128" on="1"/>
        <pt x="0" y="-128" on="1"/>
        <pt x="0" y="64" on="1"/>
        <pt x="64" y="64" on="1"/>
        <pt x="64" y="128" on="1"/>
        <pt x="0" y="128" on="1"/>
        <pt x="0" y="320" on="1"/>
        <pt x="64" y="320" on="1"/>
        <pt x="64" y="384" on="1"/>
        <pt x="0" y="384" on="1"/>
        <pt x="0" y="576" on="1"/>
        <pt x="64" y="576" on="1"/>
        <pt x="64" y="640" on="1"/>
        <pt x="0" y="640" on="1"/>
        <pt x="0" y="832" on="1"/>
        <pt x="384" y="832" on="1"/>
        <pt x="384" y="768" on="1"/>
        <pt x="320" y="768" on="1"/>
        <pt x="320" y="704" on="1"/>
        <pt x="384" y="704" on="1"/>
        <pt x="384" y="512" on="1"/>
        <pt x="320" y="512" on="1"/>
        <pt x="320" y="448" on="1"/>
        <pt x="384" y="448" on="1"/>
        <pt x="384" y="256" on="1"/>
        <pt x="320" y="256" on="1"/>
        <pt x="320" y="192" on="1"/>
        <pt x="384" y="192" on="1"/>
        <pt x="384" y="0" on="1"/>
        <pt x="320" y="0" on="1"/>
        <pt x="320" y="-64" on="1"/>
        <pt x="384" y="-64" on="1"/>
        <pt x="384" y="-192" on="1"/>
        <pt x="320" y="-192" on="1"/>
        <pt x="320" y="-128" on="1"/>
        <pt x="256" y="-128" on="1"/>
        <pt x="256" y="-192" on="1"/>
        <pt x="192" y="-192" on="1"/>
        <pt x="192" y="-128" on="1"/>
        <pt x="128" y="-128" on="1"/>
        <pt x="128" y="-192" on="1"/>
        <pt x="64" y="-192" on="1"/>
      </contour>
      <contour>
        <pt x="128" y="-64" on="1"/>
        <pt x="128" y="0" on="1"/>
        <pt x="64" y="0" on="1"/>
        <pt x="64" y="-64" on="1"/>
      </contour>
      <contour>
        <pt x="128" y="192" on="1"/>
        <pt x="128" y="256" on="1"/>
        <pt x="64" y="256" on="1"/>
        <pt x="64" y="192" on="1"/>
      </contour>
      <contour>
        <pt x="128" y="448" on="1"/>
        <pt x="128" y="512" on="1"/>
        <pt x="64" y="512" on="1"/>
        <pt x="64" y="448" on="1"/>
      </contour>
      <contour>
        <pt x="128" y="704" on="1"/>
        <pt x="128" y="768" on="1"/>
        <pt x="64" y="768" on="1"/>
        <pt x="64" y="704" on="1"/>
      </contour>
      <contour>
        <pt x="192" y="64" on="1"/>
        <pt x="192" y="128" on="1"/>
        <pt x="128" y="128" on="1"/>
        <pt x="128" y="64" on="1"/>
      </contour>
      <contour>
        <pt x="192" y="320" on="1"/>
        <pt x="192" y="384" on="1"/>
        <pt x="128" y="384" on="1"/>
        <pt x="128" y="320" on="1"/>
      </contour>
      <contour>
        <pt x="192" y="576" on="1"/>
        <pt x="192" y="640" on="1"/>
        <pt x="128" y="640" on="1"/>
        <pt x="128" y="576" on="1"/>
      </contour>
      <contour>
        <pt x="256" y="-64" on="1"/>
        <pt x="256" y="0" on="1"/>
        <pt x="192" y="0" on="1"/>
        <pt x="192" y="-64" on="1"/>
      </contour>
      <contour>
        <pt x="256" y="192" on="1"/>
        <pt x="256" y="256" on="1"/>
        <pt x="192" y="256" on="1"/>
        <pt x="192" y="192" on="1"/>
      </contour>
      <contour>
        <pt x="256" y="448" on="1"/>
        <pt x="256" y="512" on="1"/>
        <pt x="192" y="512" on="1"/>
        <pt x="192" y="448" on="1"/>
      </contour>
      <contour>
        <pt x="256" y="704" on="1"/>
        <pt x="256" y="768" on="1"/>
        <pt x="192" y="768" on="1"/>
        <pt x="192" y="704" on="1"/>
      </contour>
      <contour>
        <pt x="320" y="64" on="1"/>
        <pt x="320" y="128" on="1"/>
        <pt x="256" y="128" on="1"/>
        <pt x="256" y="64" on="1"/>
      </contour>
      <contour>
        <pt x="320" y="320" on="1"/>
        <pt x="320" y="384" on="1"/>
        <pt x="256" y="384" on="1"/>
        <pt x="256" y="320" on="1"/>
      </contour>
      <contour>
        <pt x="320" y="576" on="1"/>
        <pt x="320" y="640" on="1"/>
        <pt x="256" y="640" on="1"/>
        <pt x="256" y="576" on="1"/>
      </contour>
    </TTGlyph>
    <TTGlyph name="dnblock" xMin="-5" yMin="-197" xMax="453" yMax="325">
      <contour>
        <pt x="-5" y="-197" on="1"/>
        <pt x="-5" y="325" on="1"/>
        <pt x="453" y="325" on="1"/>
        <pt x="453" y="-197" on="1"/>
      </contour>
    </TTGlyph>
    <TTGlyph name="dollar" xMin="14" yMin="-128" xMax="440" yMax="704">
      <contour>
        <pt x="146" y="-8" on="1"/>
        <pt x="68" y="-5" on="0"/>
        <pt x="14" y="23" on="1"/>
        <pt x="37" y="79" on="1"/>
        <pt x="95" y="56" on="0"/>
        <pt x="161" y="56" on="1"/>
        <pt x="233" y="56" on="0"/>
        <pt x="303" y="104" on="0"/>
        <pt x="303" y="147" on="1"/>
        <pt x="303" y="176" on="0"/>
        <pt x="262" y="213" on="0"/>
        <pt x="217" y="238" on="1"/>
        <pt x="178" y="259" on="0"/>
        <pt x="130" y="294" on="0"/>
        <pt x="95" y="352" on="0"/>
        <pt x="95" y="393" on="1"/>
        <pt x="95" y="467" on="0"/>
        <pt x="181" y="566" on="0"/>
        <pt x="263" y="579" on="1"/>
        <pt x="288" y="704" on="1"/>
        <pt x="352" y="704" on="1"/>
        <pt x="328" y="584" on="1"/>
        <pt x="391" y="583" on="0"/>
        <pt x="440" y="565" on="1"/>
        <pt x="423" y="507" on="1"/>
        <pt x="376" y="520" on="0"/>
        <pt x="323" y="520" on="1"/>
        <pt x="169" y="520" on="0"/>
        <pt x="169" y="400" on="1"/>
        <pt x="169" y="366" on="0"/>
        <pt x="214" y="324" on="0"/>
        <pt x="260" y="300" on="1"/>
        <pt x="298" y="279" on="0"/>
        <pt x="344" y="246" on="0"/>
        <pt x="377" y="192" on="0"/>
        <pt x="377" y="154" on="1"/>
        <pt x="377" y="90" on="0"/>
        <pt x="291" y="5" on="0"/>
        <pt x="210" y="-5" on="1"/>
        <pt x="186" y="-128" on="1"/>
        <pt x="122" y="-128" on="1"/>
      </contour>
    </TTGlyph>
    <TTGlyph name="dong" xMin="-20" yMin="-128" xMax="506" yMax="640">
      <component glyphName="dcroat" x="0" y="0" flags="0x400"/>
      <component glyphName="minus" x="-62" y="-384" flags="0x404"/>
    </TTGlyph>
    <TTGlyph name="dotaccent" xMin="238" yMin="532" xMax="357" yMax="650">
      <component glyphName="uni0307" x="0" y="0" flags="0x400"/>
    </TTGlyph>
    <TTGlyph name="dotbelowcomb" xMin="96" yMin="-178" xMax="215" yMax="-60">
      <component glyphName="uni0307" x="-142" y="-710" flags="0x404"/>
    </TTGlyph>
    <TTGlyph name="dotlessi" xMin="107" yMin="0" xMax="315" yMax="448">
      <contour>
        <pt x="230" y="382" on="1"/>
        <pt x="107" y="390" on="1"/>
        <pt x="119" y="448" on="1"/>
        <pt x="315" y="448" on="1"/>
        <pt x="225" y="0" on="1"/>
        <pt x="153" y="0" on="1"/>
      </contour>
    </TTGlyph>
    <TTGlyph name="dotlessi.cv02" xMin="143" yMin="0" xMax="305" yMax="448">
      <contour>
        <pt x="233" y="448" on="1"/>
        <pt x="305" y="448" on="1"/>
        <pt x="215" y="0" on="1"/>
        <pt x="143" y="0" on="1"/>
      </contour>
    </TTGlyph>
    <TTGlyph name="dotmath" xMin="125" yMin="224" xMax="255" yMax="352">
      <component glyphName="period" x="32" y="234" flags="0x404"/>
    </TTGlyph>
    <TTGlyph name="e" xMin="42" yMin="-13" xMax="407" yMax="461">
      <contour>
        <pt x="72" y="335" on="0"/>
        <pt x="177" y="461" on="0"/>
        <pt x="266" y="461" on="1"/>
        <pt x="335" y="461" on="0"/>
        <pt x="407" y="381" on="0"/>
        <pt x="407" y="308" on="1"/>
        <pt x="407" y="259" on="0"/>
        <pt x="391" y="202" on="1"/>
        <pt x="122" y="202" on="1"/>
        <pt x="115" y="166" on="0"/>
        <pt x="115" y="135" on="1"/>
        <pt x="115" y="90" on="0"/>
        <pt x="158" y="51" on="0"/>
        <pt x="206" y="51" on="1"/>
        <pt x="235" y="51" on="0"/>
        <pt x="292" y="63" on="0"/>
        <pt x="328" y="75" on="1"/>
        <pt x="335" y="15" on="1"/>
        <pt x="266" y="-13" on="0"/>
        <pt x="200" y="-13" on="1"/>
        <pt x="42" y="-13" on="0"/>
        <pt x="42" y="145" on="1"/>
        <pt x="42" y="185" on="0"/>
        <pt x="51" y="230" on="1"/>
      </contour>
      <contour>
        <pt x="328" y="262" on="1"/>
        <pt x="334" y="294" on="0"/>
        <pt x="334" y="318" on="1"/>
        <pt x="334" y="397" on="0"/>
        <pt x="264" y="397" on="1"/>
        <pt x="216" y="397" on="0"/>
        <pt x="154" y="334" on="0"/>
        <pt x="135" y="262" on="1"/>
      </contour>
    </TTGlyph>
    <TTGlyph name="eacute" xMin="42" yMin="-13" xMax="436" yMax="704">
      <component glyphName="e" x="0" y="0" flags="0x400"/>
      <component glyphName="acutecomb" x="0" y="0" flags="0x400"/>
    </TTGlyph>
    <TTGlyph name="ebreve" xMin="42" yMin="-13" xMax="438" yMax="644">
      <component glyphName="e" x="0" y="0" flags="0x400"/>
      <component glyphName="uni0306" x="0" y="0" flags="0x400"/>
    </TTGlyph>
    <TTGlyph name="ecaron" xMin="42" yMin="-13" xMax="448" yMax="646">
      <component glyphName="e" x="0" y="0" flags="0x400"/>
      <component glyphName="uni030C" x="0" y="0" flags="0x400"/>
    </TTGlyph>
    <TTGlyph name="ecircumflex" xMin="42" yMin="-13" xMax="419" yMax="650">
      <component glyphName="e" x="0" y="0" flags="0x400"/>
      <component glyphName="uni0302" x="0" y="0" flags="0x400"/>
    </TTGlyph>
    <TTGlyph name="edieresis" xMin="42" yMin="-13" xMax="440" yMax="648">
      <component glyphName="e" x="0" y="0" flags="0x400"/>
      <component glyphName="uni0308" x="0" y="0" flags="0x400"/>
    </TTGlyph>
    <TTGlyph name="edotaccent" xMin="42" yMin="-13" xMax="407" yMax="650">
      <component glyphName="e" x="0" y="0" flags="0x400"/>
      <component glyphName="uni0307" x="0" y="0" flags="0x400"/>
    </TTGlyph>
    <TTGlyph name="egrave" xMin="42" yMin="-13" xMax="407" yMax="704">
      <component glyphName="e" x="0" y="0" flags="0x400"/>
      <component glyphName="gravecomb" x="0" y="0" flags="0x400"/>
    </TTGlyph>
    <TTGlyph name="eight" xMin="13" yMin="-11" xMax="436" yMax="586">
      <contour>
        <pt x="94" y="-11" on="0"/>
        <pt x="13" y="57" on="0"/>
        <pt x="13" y="114" on="1"/>
        <pt x="13" y="130" on="0"/>
        <pt x="16" y="146" on="1"/>
        <pt x="26" y="195" on="0"/>
        <pt x="93" y="276" on="0"/>
        <pt x="140" y="304" on="1"/>
        <pt x="96" y="347" on="0"/>
        <pt x="96" y="398" on="1"/>
        <pt x="96" y="414" on="0"/>
        <pt x="99" y="429" on="1"/>
        <pt x="108" y="474" on="0"/>
        <pt x="167" y="545" on="0"/>
        <pt x="253" y="586" on="0"/>
        <pt x="301" y="586" on="1"/>
        <pt x="363" y="586" on="0"/>
        <pt x="436" y="523" on="0"/>
        <pt x="436" y="468" on="1"/>
        <pt x="436" y="457" on="0"/>
        <pt x="432" y="433" on="1"/>
        <pt x="424" y="393" on="0"/>
        <pt x="369" y="312" on="0"/>
        <pt x="323" y="280" on="1"/>
        <pt x="363" y="255" on="0"/>
        <pt x="402" y="204" on="0"/>
        <pt x="402" y="171" on="1"/>
        <pt x="402" y="125" on="0"/>
        <pt x="344" y="41" on="0"/>
        <pt x="239" y="-11" on="0"/>
        <pt x="172" y="-11" on="1"/>
      </contour>
      <contour>
        <pt x="91" y="150" on="0"/>
        <pt x="91" y="135" on="1"/>
        <pt x="91" y="98" on="0"/>
        <pt x="142" y="53" on="0"/>
        <pt x="195" y="53" on="1"/>
        <pt x="251" y="53" on="0"/>
        <pt x="317" y="102" on="0"/>
        <pt x="322" y="131" on="1"/>
        <pt x="324" y="143" on="0"/>
        <pt x="324" y="149" on="1"/>
        <pt x="324" y="174" on="0"/>
        <pt x="275" y="221" on="0"/>
        <pt x="212" y="253" on="1"/>
        <pt x="198" y="261" on="0"/>
        <pt x="181" y="272" on="1"/>
        <pt x="138" y="247" on="0"/>
        <pt x="99" y="191" on="0"/>
        <pt x="93" y="158" on="1"/>
      </contour>
      <contour>
        <pt x="172" y="388" on="0"/>
        <pt x="218" y="337" on="0"/>
        <pt x="278" y="306" on="1"/>
        <pt x="342" y="356" on="0"/>
        <pt x="356" y="423" on="1"/>
        <pt x="358" y="431" on="0"/>
        <pt x="358" y="448" on="1"/>
        <pt x="358" y="481" on="0"/>
        <pt x="319" y="522" on="0"/>
        <pt x="279" y="522" on="1"/>
        <pt x="224" y="522" on="0"/>
        <pt x="172" y="457" on="0"/>
        <pt x="172" y="417" on="1"/>
      </contour>
    </TTGlyph>
    <TTGlyph name="eight.dnom" xMin="107" yMin="-198" xMax="357" yMax="134">
      <component glyphName="uni2078" x="26" y="-512" flags="0x404"/>
    </TTGlyph>
    <TTGlyph name="eight.numr" xMin="81" yMin="314" xMax="331" yMax="646">
      <component glyphName="uni2078" x="0" y="0" flags="0x400"/>
    </TTGlyph>
    <TTGlyph name="eight.osf" xMin="13" yMin="-11" xMax="436" yMax="586">
      <component glyphName="eight" x="0" y="0" flags="0x400"/>
    </TTGlyph>
    <TTGlyph name="ellipsis" xMin="-24" yMin="-10" xMax="404" yMax="118">
      <component glyphName="period" x="-117" y="0" flags="0x400"/>
      <component glyphName="period" x="32" y="0" flags="0x400"/>
      <component glyphName="period" x="181" y="0" flags="0x400"/>
    </TTGlyph>
    <TTGlyph name="emacron" xMin="42" yMin="-13" xMax="427" yMax="640">
      <component glyphName="e" x="0" y="0" flags="0x400"/>
      <component glyphName="uni0304" x="0" y="0" flags="0x400"/>
    </TTGlyph>
    <TTGlyph name="emdash" xMin="-4" yMin="256" xMax="477" yMax="320">
      <contour>
        <pt x="-4" y="256" on="1"/>
        <pt x="9" y="320" on="1"/>
        <pt x="477" y="320" on="1"/>
        <pt x="464" y="256" on="1"/>
      </contour>
    </TTGlyph>
    <TTGlyph name="emptyset" xMin="-10" yMin="-14" xMax="458" yMax="590">
      <contour>
        <pt x="173" y="57" on="0"/>
        <pt x="127" y="76" on="1"/>
        <pt x="68" y="-14" on="1"/>
        <pt x="10" y="12" on="1"/>
        <pt x="73" y="109" on="1"/>
        <pt x="34" y="140" on="0"/>
        <pt x="-10" y="233" on="0"/>
        <pt x="-10" y="288" on="1"/>
        <pt x="-10" y="354" on="0"/>
        <pt x="51" y="460" on="0"/>
        <pt x="158" y="520" on="0"/>
        <pt x="224" y="520" on="1"/>
        <pt x="276" y="520" on="0"/>
        <pt x="326" y="499" on="1"/>
        <pt x="385" y="590" on="1"/>
        <pt x="443" y="564" on="1"/>
        <pt x="379" y="465" on="1"/>
        <pt x="416" y="433" on="0"/>
        <pt x="458" y="342" on="0"/>
        <pt x="458" y="288" on="1"/>
        <pt x="458" y="223" on="0"/>
        <pt x="397" y="117" on="0"/>
        <pt x="290" y="57" on="0"/>
        <pt x="224" y="57" on="1"/>
      </contour>
      <contour>
        <pt x="59" y="210" on="0"/>
        <pt x="107" y="162" on="1"/>
        <pt x="292" y="447" on="1"/>
        <pt x="263" y="460" on="0"/>
        <pt x="224" y="460" on="1"/>
        <pt x="150" y="460" on="0"/>
        <pt x="59" y="365" on="0"/>
        <pt x="59" y="288" on="1"/>
      </contour>
      <contour>
        <pt x="190" y="117" on="0"/>
        <pt x="224" y="117" on="1"/>
        <pt x="298" y="117" on="0"/>
        <pt x="389" y="211" on="0"/>
        <pt x="389" y="288" on="1"/>
        <pt x="389" y="365" on="0"/>
        <pt x="344" y="412" on="1"/>
        <pt x="160" y="128" on="1"/>
      </contour>
    </TTGlyph>
    <TTGlyph name="endash" xMin="90" yMin="256" xMax="383" yMax="320">
      <component glyphName="hyphen" x="0" y="0" flags="0x400"/>
    </TTGlyph>
    <TTGlyph name="eng" xMin="15" yMin="-197" xMax="408" yMax="452">
      <contour>
        <pt x="92" y="384" on="1"/>
        <pt x="103" y="448" on="1"/>
        <pt x="168" y="448" on="1"/>
        <pt x="163" y="396" on="1"/>
        <pt x="237" y="452" on="0"/>
        <pt x="299" y="452" on="1"/>
        <pt x="349" y="452" on="0"/>
        <pt x="408" y="399" on="0"/>
        <pt x="408" y="346" on="1"/>
        <pt x="408" y="328" on="0"/>
        <pt x="403" y="300" on="1"/>
        <pt x="341" y="-10" on="1"/>
        <pt x="327" y="-81" on="0"/>
        <pt x="257" y="-169" on="0"/>
        <pt x="187" y="-197" on="1"/>
        <pt x="165" y="-135" on="1"/>
        <pt x="214" y="-116" on="0"/>
        <pt x="259" y="-62" on="0"/>
        <pt x="269" y="-10" on="1"/>
        <pt x="271" y="0" on="1"/>
        <pt x="332" y="304" on="1"/>
        <pt x="335" y="322" on="0"/>
        <pt x="335" y="335" on="1"/>
        <pt x="335" y="388" on="0"/>
        <pt x="283" y="388" on="1"/>
        <pt x="225" y="388" on="0"/>
        <pt x="152" y="326" on="1"/>
        <pt x="87" y="0" on="1"/>
        <pt x="15" y="0" on="1"/>
      </contour>
    </TTGlyph>
    <TTGlyph name="eogonek" xMin="42" yMin="-197" xMax="407" yMax="461">
      <component glyphName="e" x="0" y="0" flags="0x400"/>
      <component glyphName="uni0328" x="-56" y="0" flags="0x400"/>
    </TTGlyph>
    <TTGlyph name="epsilon" xMin="28" yMin="-7" xMax="410" yMax="455">
      <contour>
        <pt x="105" y="-7" on="0"/>
        <pt x="28" y="48" on="0"/>
        <pt x="28" y="93" on="1"/>
        <pt x="28" y="106" on="0"/>
        <pt x="31" y="118" on="1"/>
        <pt x="39" y="158" on="0"/>
        <pt x="92" y="215" on="0"/>
        <pt x="138" y="230" on="1"/>
        <pt x="77" y="251" on="0"/>
        <pt x="77" y="306" on="1"/>
        <pt x="77" y="343" on="0"/>
        <pt x="120" y="411" on="0"/>
        <pt x="213" y="455" on="0"/>
        <pt x="284" y="455" on="1"/>
        <pt x="360" y="455" on="0"/>
        <pt x="410" y="436" on="1"/>
        <pt x="385" y="376" on="1"/>
        <pt x="336" y="391" on="0"/>
        <pt x="273" y="391" on="1"/>
        <pt x="218" y="391" on="0"/>
        <pt x="158" y="357" on="0"/>
        <pt x="152" y="327" on="1"/>
        <pt x="151" y="323" on="0"/>
        <pt x="151" y="315" on="1"/>
        <pt x="151" y="291" on="0"/>
        <pt x="193" y="263" on="0"/>
        <pt x="234" y="263" on="1"/>
        <pt x="332" y="263" on="1"/>
        <pt x="319" y="201" on="1"/>
        <pt x="221" y="201" on="1"/>
        <pt x="166" y="201" on="0"/>
        <pt x="105" y="149" on="0"/>
        <pt x="105" y="116" on="1"/>
        <pt x="105" y="57" on="0"/>
        <pt x="209" y="57" on="1"/>
        <pt x="271" y="57" on="0"/>
        <pt x="337" y="73" on="1"/>
        <pt x="338" y="13" on="1"/>
        <pt x="271" y="-7" on="0"/>
        <pt x="191" y="-7" on="1"/>
      </contour>
    </TTGlyph>
    <TTGlyph name="epsilontonos" xMin="28" yMin="-7" xMax="410" yMax="704">
      <component glyphName="epsilon" x="0" y="0" flags="0x400"/>
      <component glyphName="tonos" x="0" y="0" flags="0x400"/>
    </TTGlyph>
    <TTGlyph name="equal" xMin="22" yMin="176" xMax="451" yMax="400">
      <contour>
        <pt x="22" y="176" on="1"/>
        <pt x="35" y="240" on="1"/>
        <pt x="419" y="240" on="1"/>
        <pt x="406" y="176" on="1"/>
      </contour>
      <contour>
        <pt x="67" y="400" on="1"/>
        <pt x="451" y="400" on="1"/>
        <pt x="438" y="336" on="1"/>
        <pt x="54" y="336" on="1"/>
      </contour>
    </TTGlyph>
    <TTGlyph name="equivalence" xMin="11" yMin="118" xMax="463" yMax="458">
      <contour>
        <pt x="11" y="118" on="1"/>
        <pt x="23" y="182" on="1"/>
        <pt x="407" y="182" on="1"/>
        <pt x="395" y="118" on="1"/>
      </contour>
      <contour>
        <pt x="51" y="320" on="1"/>
        <pt x="435" y="320" on="1"/>
        <pt x="422" y="256" on="1"/>
        <pt x="38" y="256" on="1"/>
      </contour>
      <contour>
        <pt x="79" y="458" on="1"/>
        <pt x="463" y="458" on="1"/>
        <pt x="450" y="394" on="1"/>
        <pt x="66" y="394" on="1"/>
      </contour>
    </TTGlyph>
    <TTGlyph name="estimated" xMin="43" yMin="-13" xMax="407" yMax="461">
      <contour>
        <pt x="115" y="-13" on="0"/>
        <pt x="43" y="78" on="0"/>
        <pt x="43" y="151" on="1"/>
        <pt x="43" y="186" on="0"/>
        <pt x="51" y="228" on="1"/>
        <pt x="71" y="330" on="0"/>
        <pt x="183" y="461" on="0"/>
        <pt x="273" y="461" on="1"/>
        <pt x="342" y="461" on="0"/>
        <pt x="407" y="379" on="0"/>
        <pt x="407" y="307" on="1"/>
        <pt x="407" y="272" on="0"/>
        <pt x="397" y="220" on="1"/>
        <pt x="391" y="191" on="1"/>
        <pt x="157" y="191" on="1"/>
        <pt x="148" y="142" on="0"/>
        <pt x="148" y="110" on="1"/>
        <pt x="148" y="74" on="0"/>
        <pt x="176" y="41" on="0"/>
        <pt x="209" y="41" on="1"/>
        <pt x="255" y="41" on="0"/>
        <pt x="312" y="58" on="1"/>
        <pt x="322" y="7" on="1"/>
        <pt x="255" y="-13" on="0"/>
        <pt x="194" y="-13" on="1"/>
      </contour>
      <contour>
        <pt x="289" y="247" on="1"/>
        <pt x="302" y="313" on="0"/>
        <pt x="302" y="353" on="1"/>
        <pt x="302" y="382" on="0"/>
        <pt x="285" y="407" on="0"/>
        <pt x="265" y="407" on="1"/>
        <pt x="232" y="407" on="0"/>
        <pt x="188" y="332" on="0"/>
        <pt x="169" y="247" on="1"/>
      </contour>
    </TTGlyph>
    <TTGlyph name="eta" xMin="15" yMin="-192" xMax="408" yMax="452">
      <contour>
        <pt x="92" y="384" on="1"/>
        <pt x="103" y="448" on="1"/>
        <pt x="168" y="448" on="1"/>
        <pt x="163" y="396" on="1"/>
        <pt x="237" y="452" on="0"/>
        <pt x="299" y="452" on="1"/>
        <pt x="349" y="452" on="0"/>
        <pt x="408" y="399" on="0"/>
        <pt x="408" y="346" on="1"/>
        <pt x="408" y="328" on="0"/>
        <pt x="403" y="300" on="1"/>
        <pt x="304" y="-192" on="1"/>
        <pt x="232" y="-192" on="1"/>
        <pt x="332" y="304" on="1"/>
        <pt x="336" y="320" on="0"/>
        <pt x="336" y="336" on="1"/>
        <pt x="336" y="388" on="0"/>
        <pt x="283" y="388" on="1"/>
        <pt x="225" y="388" on="0"/>
        <pt x="152" y="326" on="1"/>
        <pt x="87" y="0" on="1"/>
        <pt x="15" y="0" on="1"/>
      </contour>
    </TTGlyph>
    <TTGlyph name="etatonos" xMin="15" yMin="-192" xMax="408" yMax="704">
      <component glyphName="eta" x="0" y="0" flags="0x400"/>
      <component glyphName="tonos" x="0" y="0" flags="0x400"/>
    </TTGlyph>
    <TTGlyph name="eth" xMin="37" yMin="-8" xMax="414" yMax="646">
      <contour>
        <pt x="281" y="623" on="0"/>
        <pt x="315" y="588" on="1"/>
        <pt x="388" y="633" on="1"/>
        <pt x="414" y="591" on="1"/>
        <pt x="347" y="550" on="1"/>
        <pt x="414" y="456" on="0"/>
        <pt x="414" y="341" on="1"/>
        <pt x="414" y="301" on="0"/>
        <pt x="404" y="246" on="1"/>
        <pt x="379" y="120" on="0"/>
        <pt x="265" y="-8" on="0"/>
        <pt x="180" y="-8" on="1"/>
        <pt x="112" y="-8" on="0"/>
        <pt x="37" y="74" on="0"/>
        <pt x="37" y="146" on="1"/>
        <pt x="37" y="171" on="0"/>
        <pt x="44" y="209" on="1"/>
        <pt x="57" y="273" on="0"/>
        <pt x="118" y="366" on="0"/>
        <pt x="202" y="414" on="0"/>
        <pt x="248" y="414" on="1"/>
        <pt x="299" y="414" on="0"/>
        <pt x="342" y="387" on="1"/>
        <pt x="334" y="456" on="0"/>
        <pt x="291" y="515" on="1"/>
        <pt x="203" y="461" on="1"/>
        <pt x="176" y="503" on="1"/>
        <pt x="258" y="553" on="1"/>
        <pt x="238" y="574" on="0"/>
        <pt x="208" y="598" on="1"/>
        <pt x="250" y="646" on="1"/>
      </contour>
      <contour>
        <pt x="109" y="160" on="0"/>
        <pt x="109" y="139" on="1"/>
        <pt x="109" y="56" on="0"/>
        <pt x="185" y="56" on="1"/>
        <pt x="246" y="56" on="0"/>
        <pt x="314" y="158" on="0"/>
        <pt x="333" y="253" on="1"/>
        <pt x="340" y="285" on="0"/>
        <pt x="343" y="322" on="1"/>
        <pt x="304" y="350" on="0"/>
        <pt x="253" y="350" on="1"/>
        <pt x="147" y="350" on="0"/>
        <pt x="116" y="197" on="1"/>
      </contour>
    </TTGlyph>
    <TTGlyph name="exclam" xMin="125" yMin="-10" xMax="353" yMax="640">
      <contour>
        <pt x="261" y="640" on="1"/>
        <pt x="353" y="640" on="1"/>
        <pt x="250" y="192" on="1"/>
        <pt x="186" y="192" on="1"/>
      </contour>
      <contour>
        <pt x="125" y="78" on="0"/>
        <pt x="168" y="118" on="0"/>
        <pt x="198" y="118" on="1"/>
        <pt x="223" y="118" on="0"/>
        <pt x="255" y="89" on="0"/>
        <pt x="255" y="64" on="1"/>
        <pt x="255" y="29" on="0"/>
        <pt x="212" y="-10" on="0"/>
        <pt x="182" y="-10" on="1"/>
        <pt x="157" y="-10" on="0"/>
        <pt x="125" y="18" on="0"/>
        <pt x="125" y="43" on="1"/>
      </contour>
    </TTGlyph>
    <TTGlyph name="exclamdbl" xMin="29" yMin="-10" xMax="449" yMax="640">
      <component glyphName="exclam" x="-96" y="0" flags="0x400"/>
      <component glyphName="exclam" x="96" y="0" flags="0x400"/>
    </TTGlyph>
</ttFont>
